<svg xmlns="http://www.w3.org/2000/svg" viewBox="0 0 100 100"><defs><style>.cls-1,.cls-2{fill:none;}.cls-2{stroke:#000;stroke-linecap:round;stroke-linejoin:round;stroke-width:3px;}</style></defs><g id="Layer_2" data-name="Layer 2"><g id="Layer_1-2" data-name="Layer 1"><rect class="cls-1" width="100" height="100"/><path class="cls-2" d="M98.38,58.75c0-6.55-4.84-10.34-10.29-10.6a10.88,10.88,0,0,0-5.74,1.3,20,20,0,0,0-20-19.56,16.35,16.35,0,0,0-7.3,1.81,1.47,1.47,0,0,0-.87,1.35V68.48A1.48,1.48,0,0,0,55.69,70l31.86-.1C93.8,69.86,98.41,65.2,98.38,58.75Z"/><line class="cls-2" x1="49" y1="69.96" x2="49" y2="32.66"/><line class="cls-2" x1="38.46" y1="69.96" x2="38.46" y2="38.44"/><line class="cls-2" x1="33.19" y1="69.96" x2="33.19" y2="36.05"/><line class="cls-2" x1="27.92" y1="69.96" x2="27.92" y2="37.66"/><line class="cls-2" x1="22.65" y1="69.96" x2="22.65" y2="40.88"/><line class="cls-2" x1="17.38" y1="69.96" x2="17.38" y2="46.99"/><line class="cls-2" x1="12.12" y1="69.96" x2="12.12" y2="49.6"/><line class="cls-2" x1="6.85" y1="69.96" x2="6.85" y2="50.13"/><line class="cls-2" x1="1.58" y1="65.28" x2="1.58" y2="54.27"/><line class="cls-2" x1="43.73" y1="69.96" x2="43.73" y2="36.61"/></g></g></svg>