<svg xmlns="http://www.w3.org/2000/svg" viewBox="0 0 50 50">
    <defs>
        <style>.stroke{fill:none;stroke:#140E1B;stroke-linecap:round;stroke-linejoin:round;stroke-width:3px;}</style>
    </defs>
    <path class="stroke" d="M47.69,28.41a5.16,5.16,0,0,0-5.15-5.3,5.45,5.45,0,0,0-2.87.65,10,10,0,0,0-10-9.78,8.15,8.15,0,0,0-3.65.91.73.73,0,0,0-.44.67V33.28a.74.74,0,0,0,.74.74L42.27,34A5.31,5.31,0,0,0,47.69,28.41Z"/>
    <line class="stroke" x1="16.2" y1="34.02" x2="16.2" y2="17.06"/>
    <line class="stroke" x1="11.57" y1="34.02" x2="11.57" y2="19.48"/>
    <line class="stroke" x1="6.94" y1="34.02" x2="6.94" y2="23.84"/>
    <line class="stroke" x1="2.31" y1="31.68" x2="2.31" y2="26.17"/>
    <line class="stroke" x1="20.82" y1="34.02" x2="20.82" y2="17.34"/>
</svg>