<svg xmlns="http://www.w3.org/2000/svg" viewBox="0 0 50 50">
    <path fill="#fff" d="M24.87.13A24.74,24.74,0,1,0,49.61,24.87,24.74,24.74,0,0,0,24.87.13ZM35.63,36a1.68,1.68,0,0,1-1.46.84,1.65,1.65,0,0,1-.85-.23c-4.44-2.6-9.58-3-13.11-2.91a32.47,32.47,0,0,0-6.8.9,1.69,1.69,0,0,1-.89-3.26,34.55,34.55,0,0,1,7.5-1,32.62,32.62,0,0,1,7.22.53A24.37,24.37,0,0,1,35,33.72,1.68,1.68,0,0,1,35.63,36Zm3.15-6.53a2,2,0,0,1-1.73,1,2,2,0,0,1-1-.27c-5.27-3.08-11.35-3.57-15.53-3.45a38.9,38.9,0,0,0-8,1.07A2,2,0,0,1,11.4,24a42,42,0,0,1,8.88-1.2,38.93,38.93,0,0,1,8.55.62,28.94,28.94,0,0,1,9.23,3.37A2,2,0,0,1,38.78,29.5Zm1.93-5.94a2.53,2.53,0,0,1-1.24-.33c-12.51-7.32-28.75-3-28.91-2.93a2.46,2.46,0,1,1-1.31-4.74,51.87,51.87,0,0,1,10.89-1.47,48.42,48.42,0,0,1,10.5.76A35.46,35.46,0,0,1,42,19a2.46,2.46,0,0,1-1.25,4.58Z"/>
</svg>