<svg xmlns="http://www.w3.org/2000/svg" viewBox="0 0 100 100"><defs><style>.cls-1,.cls-2{fill:none;}.cls-2{stroke:#000;stroke-linecap:round;stroke-linejoin:round;stroke-width:3px;}</style></defs><g id="Layer_2" data-name="Layer 2"><g id="Layer_1-2" data-name="Layer 1"><rect class="cls-1" width="100" height="100"/><path class="cls-2" d="M49.94,1.87A47.82,47.82,0,1,0,97.76,49.69,47.82,47.82,0,0,0,49.94,1.87Zm20.25,69a3,3,0,0,1-2.6,1.49A3,3,0,0,1,66.07,72C58.14,67.33,49,66.58,42.7,66.77a59,59,0,0,0-12.12,1.6A3,3,0,1,1,29,62.56a62.71,62.71,0,0,1,13.36-1.81,59.28,59.28,0,0,1,12.88.93,43.43,43.43,0,0,1,13.88,5.07A3,3,0,0,1,70.19,70.88Zm6.64-12.24a3.88,3.88,0,0,1-3.35,1.92,3.84,3.84,0,0,1-2-.53c-10.18-6-21.94-6.9-30-6.66A73.82,73.82,0,0,0,26,55.43,3.87,3.87,0,0,1,23.9,48a80.76,80.76,0,0,1,17.16-2.33,75.93,75.93,0,0,1,16.54,1.2,56,56,0,0,1,17.84,6.51A3.88,3.88,0,0,1,76.83,58.64Zm3.73-11.48a4.75,4.75,0,0,1-2.39-.65C54,32.37,22.58,40.78,22.27,40.86a4.75,4.75,0,0,1-2.53-9.16A99.17,99.17,0,0,1,40.8,28.85a92.88,92.88,0,0,1,20.29,1.47,68.46,68.46,0,0,1,21.88,8,4.75,4.75,0,0,1-2.41,8.85Z"/></g></g></svg>