<svg xmlns="http://www.w3.org/2000/svg" viewBox="0 0 50 50">
    <defs>
        <style>.stroke{fill:none;}.fill{fill:#97CCC3;}.stroke{stroke:#140E1B;stroke-linecap:round;stroke-linejoin:round;stroke-width:3px;}</style>
    </defs>
    <path class="fill" d="M39.31,10.81a10.81,10.81,0,0,1-2.7-7.18H34.5A10.94,10.94,0,0,0,39.31,10.81ZM19.82,26.32a6.63,6.63,0,0,0-3.05,12.49,6.61,6.61,0,0,1,5.35-10.49,6.86,6.86,0,0,1,2,.31v-8a14.25,14.25,0,0,0-2-.15h-.35v6.1A7.08,7.08,0,0,0,19.82,26.32Z"/>
    <path class="fill" d="M45.27,14.36v6.1a18.7,18.7,0,0,1-10.94-3.55V33A14.51,14.51,0,0,1,19.82,47.43a14.35,14.35,0,0,1-8.3-2.63A14.48,14.48,0,0,0,36.61,35V19a18.69,18.69,0,0,0,11,3.51V14.6a11.06,11.06,0,0,1-2.29-.24Z"/>
    <path class="stroke" d="M13.8,36.49A6.46,6.46,0,0,1,19,26.24a6.86,6.86,0,0,1,1.91.3V18.69A12.2,12.2,0,0,0,19,18.54H18.7A14.15,14.15,0,0,0,4.79,32.93a14,14,0,0,0,3.88,9.43,14.17,14.17,0,0,0,24.54-9.64V17.07a18.37,18.37,0,0,0,10.71,3.44V12.82a10.59,10.59,0,0,1-2.24-.24l0,0A10.69,10.69,0,0,1,35.85,9.1h0a10.59,10.59,0,0,1-2.64-7H25.5V33a6.47,6.47,0,0,1-11.71,3.53"/>
</svg>