<svg xmlns="http://www.w3.org/2000/svg" viewBox="0 0 100 100"><defs><style>.cls-1,.cls-3{fill:none;}.cls-2{fill:#ccc;}.cls-3{stroke:#000;stroke-linecap:round;stroke-linejoin:round;stroke-width:3px;}</style></defs><g id="Layer_2" data-name="Layer 2"><g id="Layer_1-2" data-name="Layer 1"><rect class="cls-1" width="100" height="100"/><path class="cls-2" d="M77.66,20.87a22.26,22.26,0,0,1-5.53-14.7H67.81A22.4,22.4,0,0,0,77.66,20.87ZM37.74,52.67a13.57,13.57,0,0,0-6.26,25.57,13.55,13.55,0,0,1,11-21.48,14.34,14.34,0,0,1,4,.63V40.94a28.24,28.24,0,0,0-4-.31h-.72V53.14A13.87,13.87,0,0,0,37.74,52.67Z"/><path class="cls-2" d="M89.89,28.15V40.66a38.33,38.33,0,0,1-22.42-7.28V66.24A29.74,29.74,0,0,1,37.74,95.91a29.41,29.41,0,0,1-17-5.38,29.67,29.67,0,0,0,51.4-20.2V37.57a38.45,38.45,0,0,0,22.45,7.19V28.65a22.37,22.37,0,0,1-4.69-.5Z"/><path class="cls-3" d="M26.49,73.81a13.55,13.55,0,0,1,11-21.49,14.35,14.35,0,0,1,4,.63V36.5a30,30,0,0,0-4-.31h-.71A29.64,29.64,0,0,0,7.61,66.33a29.34,29.34,0,0,0,8.12,19.76A29.68,29.68,0,0,0,67.14,65.9V33.13a38.43,38.43,0,0,0,22.45,7.19V24.22a23.79,23.79,0,0,1-4.69-.5l0-.1a22.41,22.41,0,0,1-12.26-7.19h0A22.2,22.2,0,0,1,67.14,1.74H51V66.46a13.57,13.57,0,0,1-24.54,7.41"/></g></g></svg>