<svg xmlns="http://www.w3.org/2000/svg" viewBox="0 0 100.01 100">
    <path fill="#E6B5B5" d="M50.08,84.53c-7.57-.13-14.5-.13-21.42-.42A146.83,146.83,0,0,1,13,82.8c-6.72-1-10.84-5.36-11.67-12.06C.65,65.58.23,60.36.08,55.16c-.17-5.51,0-11,.22-16.55A80.63,80.63,0,0,1,1.6,27.44c1.13-6,5.22-9.41,11-10.38a108.66,108.66,0,0,1,15.3-1.3q16.92-.39,33.85-.28c6.95,0,13.9.56,20.85.94a36.89,36.89,0,0,1,5.43.73c5.54,1.12,8.9,4.53,10.11,10a93.2,93.2,0,0,1,1.7,15.63,151.93,151.93,0,0,1-.9,25.68,31.14,31.14,0,0,1-.88,4.7A12.53,12.53,0,0,1,87.3,82.73,132.47,132.47,0,0,1,72,84C64.48,84.34,57,84.39,50.08,84.53Zm15.4-34.64L40.39,34.47V65.31Z"/>
</svg>