<svg xmlns="http://www.w3.org/2000/svg" viewBox="0 0 1313.9 337.3">
  <style>path{fill:#140E1B;}</style>
  <path d="M419.6,420.6c1.9-3.3,3.8-6.2,5.5-9.2,8-14.8,15.9-29.6,23.9-44.3a205.4,205.4,0,0,1,12.2-20,34.8,34.8,0,0,1,6.2-7.1c6-4.8,12.5-3.8,16.6,2.7s4.2,11.5,5,17.5c1.5,10.6,1.8,21.2,3.9,31.7.3,1.3.6,2.6,1,3.8,1.6,5.6,5.9,7.9,11.5,6.2,3.1-.9,5.5-3,7.8-5.3s1-2.4,1-3.7c.1-17.7,5.7-34.2,11.3-50.7,1.3-3.6,4-4.9,7-3.9s4.1,4.4,3,7.4a196.4,196.4,0,0,0-10,37,52.5,52.5,0,0,0-.6,11.9c.3,3.9,1.6,5,5.5,4.8s7.9-2.3,11.4-4.7a108.1,108.1,0,0,0,15.4-13.3A171.5,171.5,0,0,0,571,365.6a60.2,60.2,0,0,0,6.3-9.5,59.6,59.6,0,0,1,15.6-19.3c5.7-4.7,11.9-7.2,19.4-4.6s10.9,9.1,7.1,16.9a38.3,38.3,0,0,1-9.5,12,173.4,173.4,0,0,1-27.2,20.3c-3,1.8-4.1,4-3.7,7.3a22.2,22.2,0,0,0,1.2,5.8c2.2,6.1,6.4,8.6,12.8,7.5a47.8,47.8,0,0,0,17-7,163.3,163.3,0,0,0,28.3-22.1c1.3-1.2,2.5-2.6,3.9-3.7a5.2,5.2,0,0,1,6.9,0,5.4,5.4,0,0,1,1,6.8,10.1,10.1,0,0,1-1.3,1.6c-11.6,11.2-23.5,22.1-38.1,29.5a52.6,52.6,0,0,1-15,5.3c-13.9,2.5-24.8-5.4-26.7-19.4-.3-2.2.2-4.6-1.4-6.5l-4.7,4.4c-6.4,6.7-13.4,12.5-21.9,16.3-6.9,3.1-14,4.3-21,.2-1.9-1.1-2.8,0-4,.8a23.2,23.2,0,0,1-12.9,4.8c-9.1.4-16.2-4.3-19.1-12.9s-3.3-16.2-4-24.5-1.2-14.2-2.9-21.2c-.4-2.1-.5-5.3-2.3-5.6s-3.5,2.6-4.8,4.4c-7.4,10.7-13.4,22.2-19.5,33.6S438,411,430.9,422.6c-2.6,4.3-5.1,8.6-9.4,11.5s-9.6,1.6-11.7-3.7a12.6,12.6,0,0,1-1-3.8c-.8-5.7,0-11.3.7-16.9,2.4-17.9,6.7-35.5,11-53.1,1.2-5,2.5-10,4-14.9.5-2.1-.1-2.3-1.9-1.8-9.4,2.6-17.1,8-24.5,14.1-1.4,1.2-1.3,3-1.8,4.5a206.9,206.9,0,0,1-25.2,52.3,56.4,56.4,0,0,1-7.6,9.2c-3.3,3.1-6.9,5.5-11.7,3.3s-5.3-6.4-5-11,2.3-11,4.8-16.1a148.7,148.7,0,0,1,23-34.2,99.2,99.2,0,0,1,10.2-10.3c4.1-3.4,3.6-7.6,3.1-11.8-.4-2.7-3.1-3.4-5.4-3.7s-7.2.9-10.5,2.7c-5.5,2.9-10,7.1-14.2,11.6s-6.3,7.4-9.4,11c-8.7,10.4-14,22.4-17.4,35.5-8.5,32.1-15.7,64.5-22,97.1-1.7,8.6-3.3,17.2-4.3,26a16.5,16.5,0,0,1-1,4.4,5.1,5.1,0,0,1-5.7,3c-2.3-.5-4-1.7-4.1-4.3a55.8,55.8,0,0,1,.5-12.9c2.8-22.6,7.1-44.9,11.3-67.3,5.3-28.7,11.2-57.3,17.9-85.7a8,8,0,0,0,.3-1.5c.4-1.8.3-2.9-2.2-2.1-6.6,2.2-13.4,2-20.2.9-2.3-.4-2.6.4-2.5,2.2a89.2,89.2,0,0,1-.9,17.9,57.1,57.1,0,0,1-11.7,26.6,25.5,25.5,0,0,1-6.8,5.8,16.6,16.6,0,0,1-23.6-6.3,21.7,21.7,0,0,1-2.7-8.5c-1.1-11.4-.7-22.5,4.6-33.1a52.3,52.3,0,0,1,12.9-16.3,20,20,0,0,1,14.3-4.9,14,14,0,0,1,6.6,1.9,34.2,34.2,0,0,0,24.4,4.3c4.3-.8,7.5-3.6,11.2-5.5,1.1-.5,1-2,1.3-3.1l2.4-10.7a14.7,14.7,0,0,1,1.3-3.7,5.5,5.5,0,0,1,6.1-2.4,4.9,4.9,0,0,1,3.7,5.3,13.7,13.7,0,0,1-.7,3.4c-2.3,10.2-4.7,20.4-7,30.5a15.7,15.7,0,0,0-.5,3,3.2,3.2,0,0,0,.3.9c.3-.2.7-.2.9-.4l2.1-2.8c6.4-8.1,12.6-16.4,20.6-23,5.9-4.8,12.2-8.7,19.8-10a20.9,20.9,0,0,1,15.7,3.5,12,12,0,0,1,5,7.7c.4,2.2,1.3,2.7,3.3,1.3a60.7,60.7,0,0,1,8.2-4.8,43.9,43.9,0,0,1,15.1-4.9c2.8-.3,3.8-1.5,4.6-4.1Q437,297.9,447,272c5.8-15,12-29.9,20.2-43.7A59.9,59.9,0,0,1,478,214.6c3.5-3.1,7.3-5.2,12.1-5.1s9.7,3.4,11.1,8.9.3,9.9-.8,14.8c-3.5,14.6-9.2,28.4-15.9,41.8-15.7,31.3-33.5,61.5-52.4,91a46.7,46.7,0,0,0-6.6,15.4c-2.4,11.4-4.8,22.8-6.1,34.3A9.2,9.2,0,0,0,419.6,420.6Zm71.9-195.5a7.5,7.5,0,0,0,0-1.5c-.3-3.5-2.1-4.5-4.9-2.3a28,28,0,0,0-4.5,4.6,105.7,105.7,0,0,0-13.5,22c-13.2,27.9-22.6,57.1-31.1,86.6-.2.6-.7,1.6-.2,1.8s1.2-.8,1.5-1.3c8.4-13.9,16.7-28,24.5-42.2,9-16.5,17.5-33.2,24-50.8C489.3,236.5,491.2,231,491.5,225.1ZM288.3,362.6a29.6,29.6,0,0,0-.3-8.4c-.6-5-4.2-6.7-8.6-4.2a28,28,0,0,0-7,6.3c-7.5,8.9-9.4,19.5-9.1,30.7a18.9,18.9,0,0,0,1.4,7.3c2.3,5.2,7,6.3,11.2,2.4a36.6,36.6,0,0,0,4.6-5.8C286.3,382.3,288.5,372.8,288.3,362.6Zm318-20.5c-2.8.2-5.1,1.7-7.3,3.5-6.4,5.3-10.7,12.2-14.2,19.5-.3.6-1,1.3-.1,1.7s1.1-.4,1.6-.7A173,173,0,0,0,602.6,353a62.5,62.5,0,0,0,6.1-6.5c.9-.9,2-2.1,1-3.5S607.7,342.2,606.3,342.1ZM358.6,409.6c7.6-9.4,13-19.9,18.2-30.6.2-.3.3-1.1,0-1.3s-1.1.3-1.3.6c-6.7,9.1-13,18.4-16.9,29.1A2.1,2.1,0,0,0,358.6,409.6Z" transform="translate(-30.2 -190.3)"/>
  <path d="M1275.9,411.6a132.8,132.8,0,0,1,2-17.8c.1-.8.2-2.1-.2-2.4s-1.7.5-2.4,1.1c-7.4,6.2-15.3,11.8-24.1,15.8-5.4,2.5-10.9,4.3-16.8,4.5s-10-.9-14-4.2c-2.1-1.7-3.3-1.3-5,.2-3.7,3.1-7.8,5.2-12.7,5.3s-9.3-2.2-11.7-6.9a46.1,46.1,0,0,1-4-15.4c-.7-6.6-1.3-13.2-2.3-19.8-.2-1.8.2-4.5-2-5.2s-3.1,1.6-4.4,2.8c-7.4,6.7-13.7,14.5-20.1,22.1l-12.9,15.2a26.3,26.3,0,0,1-5.3,4.7c-1.8,1.2-3.8,2-6,.8a5.5,5.5,0,0,1-3-5.8c.5-3.5,1.1-6.9,1.6-10.4.1-.5.3-1.2,0-1.4s-1.1.2-1.5.6a58,58,0,0,1-17,11.1,27.8,27.8,0,0,1-10.7,2.3c-9.1,0-14.5-4.5-16.4-13.4-.2-.7.3-1.8-.9-2s-1.1.6-1.5,1.1a46.3,46.3,0,0,1-11.5,9.6c-4.6,2.5-9.5,3.8-14.9,2.2s-9.4-5.4-10.5-11.4l-.6-3.4c-.1-1.5-.8-1.7-1.9-.8l-7.4,5.9a90.5,90.5,0,0,1-21.8,13,37.2,37.2,0,0,1-14,3.2c-11.5.2-19.7-6.5-22-17.7a44.9,44.9,0,0,1,.7-20.3c3.6-13.8,9.9-26,20.4-35.9a31.9,31.9,0,0,1,8.5-6,17.8,17.8,0,0,1,15.9.3c5.4,2.7,7.4,7.5,5.6,13.3s-4.5,8.5-7.9,12c-7.1,7.3-15.3,13.2-23.7,19-1.5,1-3.1,1.9-4.6,3s-4.3,1.8-4.8,4a18.3,18.3,0,0,0,.9,10.3c2.3,5.9,6.2,8.2,12.5,7.2s11.1-3.4,16.1-6.3c10.7-6.3,20.2-14.2,29.2-22.6A59.5,59.5,0,0,0,1059,361a71.4,71.4,0,0,1,17.8-19.4,23.8,23.8,0,0,1,7.9-4.1c5.3-1.4,10.3-.9,14.2,3.4,1.4,1.6,2.3,2.6,4.4.7s4-1.2,5.9.3a5.1,5.1,0,0,1,1.6,6.3c-1.7,4.3-3.6,8.5-5.5,12.8a103.8,103.8,0,0,0-7.8,25.6c-.5,3.7-1.3,7.6,1.9,10.3s7.3,1.2,10.8-.4c9.4-4.1,16.4-11.3,23.2-18.6a23.6,23.6,0,0,0,5.9-11.8c1.9-9.2,4.4-18.4,6.7-27.5,1.4-5.4,3.9-7.4,7.7-6.4s4.2,3.6,2.8,8.8c-4,15.4-7.7,30.9-11,46.5-.1.7-.7,1.5.1,2.1s1-.8,1.5-1.3a299,299,0,0,1,22.5-25.3,33.8,33.8,0,0,1,8.4-6.2c7.5-3.7,13.6-1,15.8,7a113.7,113.7,0,0,1,3.2,20.1,110.5,110.5,0,0,0,2.2,15.3c1.1,4.5,2.8,5.1,6.8,3a5.7,5.7,0,0,1,1.3-.8c4-2,5.7-4.5,4.7-9.6-2.2-11.9,2-22.9,7.1-33.5a62.9,62.9,0,0,1,15.2-20.2,26.1,26.1,0,0,1,10.6-6.3,17,17,0,0,1,13.9,2.1c4.7,2.7,6.3,7.2,4.6,12.4s-4.6,8.8-8.1,12.4a143.9,143.9,0,0,1-28.9,22.1c-4.4,2.6-4.8,5.8-4.2,9.9a16.4,16.4,0,0,0,2.5,7,9.5,9.5,0,0,0,9.3,4.6,35.5,35.5,0,0,0,11.5-3.4c13.3-6.1,24.3-15.5,35.1-25.2,1.5-1.4,1.6-3.2,2-5,3.4-16.4,7.4-32.7,11.4-48.9.4-1.5.7-3,1.2-4.4a5.1,5.1,0,0,1,5.8-3.5,5.2,5.2,0,0,1,4.4,5.7,31.2,31.2,0,0,1-.9,4.4c-3.5,15.1-7,30.1-10.4,45.1-.3,1.2-1.4,3.1-.1,3.6s1.7-1.6,2.3-2.6a97.4,97.4,0,0,1,15.8-19.9c6.2-5.8,13.2-9.9,22-10.4a33.2,33.2,0,0,1,5.5.3c3.2.4,4.7,2.5,4.5,5.5s-1.7,4.8-4.7,4.6c-11.2-.7-18.5,5.6-25.1,13.2-8.1,9.2-13.6,20-18.3,31.2-3.4,8-6.1,16.1-8.7,24.4a21.3,21.3,0,0,1-1.1,3.3c-.9,2.1-2.7,2.7-4.8,2.8a4.6,4.6,0,0,1-4.6-3.1C1275.6,417.3,1276,414.4,1275.9,411.6Zm-217.9-23c0,6.6,3.2,9,8.2,7.1a20.9,20.9,0,0,0,8.3-6.2c7.5-8.5,13.2-18.2,18.7-28,2.4-4.4,1-7.9-.9-11.6s-3-2.9-5.8-1.7a19.7,19.7,0,0,0-5.8,3.7,81.4,81.4,0,0,0-20.9,29.9A23.7,23.7,0,0,0,1058,388.6Zm-40.7-46.5c-2.8.1-5.1,1.6-7.4,3.3-6.3,5.1-10.5,11.8-14.1,18.9-.4.7-1.2,1.6-.5,2.2s1.5-.2,2-.6a164.7,164.7,0,0,0,18.8-15.5,27.9,27.9,0,0,0,3.5-4.2c.6-.9,1.8-1.8,1.1-3.1S1018.7,342.3,1017.3,342.1Zm235.7,2c-.1-1.5-.9-1.7-1.7-1.8-3.7-.7-6.5,1-9.1,3.1-6.5,5.3-10.8,12.1-14.4,19.4-.3.6-1,1.3-.4,1.8s1.5-.3,2-.7a148.7,148.7,0,0,0,18.5-15.1c1.5-1.5,2.8-3.2,4.2-4.9A15,15,0,0,0,1253,344.1Z" transform="translate(-30.2 -190.3)"/>
  <path d="M160.8,339.3c-16.1-.3-31.9,2-47.7,4.3s-34.5,5.8-52.1,5.5A45.4,45.4,0,0,1,43.9,346c-10.3-4.3-15.2-13.6-13.2-24.5s6.5-20.2,12.5-29.1c11.7-17,26.1-31.4,42.3-44.1C108,230.6,132,215.6,158.7,205c14.6-5.8,29.7-8.5,45.5-6.5a48.5,48.5,0,0,1,13,3.2c9.6,4.1,14.8,11.3,15.8,21.7.8,8.7-1.5,16.9-4.4,24.8s-5.9,13-9,19.4a10,10,0,0,1-2,2.9,6,6,0,0,1-7,.5c-2-1.4-2.7-3.6-1.5-6.2s3.5-6.8,5.1-10.2c3.3-6.9,6.7-13.7,8-21.4,2.6-15.2-6.5-21.9-16.7-23.7s-21.8-.4-32.5,2.6c-18.1,5-34.7,13.5-50.7,23.1a261.7,261.7,0,0,0-47.6,36.1A163.2,163.2,0,0,0,46.9,307a48.3,48.3,0,0,0-5.4,12.8c-2.3,9.4,1.5,16,11,18.4,6.7,1.8,13.6,1.2,20.3.4,17.4-2.2,34.6-5.3,51.9-7.9,14.3-2.2,28.6-4.1,43.2-3.5a94.4,94.4,0,0,1,30.2,6.1A48.4,48.4,0,0,1,216.3,346c2.7,2.9,2.7,2.9,6.3,1.2s8.3-4.2,12.7-5.9,8.3,1.1,7.7,5.7c-.4,2.3-1.9,3.4-3.8,4.3-4.1,1.8-8.1,3.8-12.2,5.7-1.6.7-2.3,1.5-1.4,3.4,9.7,21.6,5.9,42.5-4,62.8-7.2,14.9-17.2,27.7-28.4,39.6-16.9,18.1-35.8,33.8-57.7,45.6-12.8,6.8-26.1,12.6-40.6,14.7a54.9,54.9,0,0,1-7,.5c-15.5,0-25.5-9.9-26.1-25.4-.4-9.8,2.5-18.7,7-27.2,7.5-14.1,17.7-26.1,28.7-37.5,30.7-31.8,66.9-56.1,105.9-76.6,5.9-3.1,6-3.1.6-7.1-9.3-6.9-19.9-9.7-31.3-10.5C168.8,339.1,164.8,339.3,160.8,339.3Zm60.1,46.4a55.6,55.6,0,0,0-3.8-18.6c-2.2-5.1-2-4.3-5.9-2.4-26.6,13.6-52.1,28.9-75.5,47.5-20,15.9-38,33.9-52,55.4a83.3,83.3,0,0,0-10.1,22.1,26.7,26.7,0,0,0-.6,11.9,13.5,13.5,0,0,0,11.8,11.2,37.7,37.7,0,0,0,15.3-1.5,141.7,141.7,0,0,0,30-12.1c20.9-11.1,38.9-26.1,55.1-43.3,10.1-10.8,19.3-22.4,26.2-35.6C217,409.6,220.6,398.3,220.9,385.7Z" transform="translate(-30.2 -190.3)"/>
  <path d="M708.5,437.4a198.5,198.5,0,0,1,9-52.4c17.3-54.3,42.7-104.7,74.7-151.8,8.4-12.5,17.9-24,29.9-33.2,8.2-6.3,17.1-10.3,27.7-9.6,13.8.9,23.8,7.2,29.5,20.1,4.2,9.7,5.3,19.8,5.6,30.1.3,12.6-1.8,24.9-3.1,37.2a5.8,5.8,0,0,1-1.8,4,5.5,5.5,0,0,1-6.1,1A4.7,4.7,0,0,1,871,278c.4-3.3.6-6.6,1.2-9.9a143,143,0,0,0,.7-39.2,40.6,40.6,0,0,0-6.7-18.5c-4.6-6.9-11-9.5-18.9-8.7a44.2,44.2,0,0,0-22.3,9.1,102.1,102.1,0,0,0-24.2,27c-29.1,46.6-54.9,94.8-72.1,147.2-5.2,15.7-9.2,31.6-10.3,48.1-.9,13.8.7,27.1,7,39.7,9,18.2,25.7,26,45.5,21.5,8.7-1.9,16.8-5.3,24.7-9.2,26.8-13.2,50.6-30.7,72.2-51.1q23.1-21.7,44.8-44.9a10,10,0,0,0,2.6-5.1c4.2-22.2,9.4-44.2,14.9-66.1,1.3-5,3.4-6.7,6.9-5.9s4.6,3.6,3.4,8.5c-3.6,15.7-7.2,31.4-10.9,47-.2,1-.4,2-.5,3s-.1,1,.4,1.1a1.4,1.4,0,0,0,.8-.6l2-3.4c5.6-8.7,11.6-17,20.1-23.2,6.5-4.8,13.8-7.4,22-6.4,3.7.4,5.9,2.6,5.7,5.6s-2.5,4.8-6,4.6c-8.2-.3-14.5,3.4-20,8.8-8.1,7.8-14,17.2-18.8,27.4A223.2,223.2,0,0,0,923,416.9c-.3,1-.6,1.9-1,2.9-.9,2.7-3,3.3-5.5,3.2s-3.9-1.7-4.4-4a28,28,0,0,1-.4-10.4c.1-.6.1-1.7-.2-1.8s-1.4.5-1.9,1l-17.9,18.9c-26.8,27.9-56.9,51.5-91.4,69.2a92.9,92.9,0,0,1-35.3,10c-24.4,1.6-45.5-9.5-52.9-36.5A105,105,0,0,1,708.5,437.4Z" transform="translate(-30.2 -190.3)"/>
  <path d="M529.6,321.5a5,5,0,0,1-5.2-3.6c-.9-2.4,0-4.2,1.7-5.7a8.2,8.2,0,0,1,2.6-1.4c7.9-3.4,8.6-3.1,10.8,5.4.2.8.5,1.6-.5,2C535.8,319.5,532.6,321,529.6,321.5Z" transform="translate(-30.2 -190.3)"/>
</svg>