<svg xmlns="http://www.w3.org/2000/svg" viewBox="0 0 100 100">
    <defs>
        <style>.cls-1,.cls-2{fill:none;}.cls-1{stroke:#000;stroke-linecap:round;stroke-linejoin:round;stroke-width:3px;}</style>
    </defs>
    <g id="Layer_2" data-name="Layer 2">
        <g id="Layer_1-2" data-name="Layer 1">
            <path d="M28,72.2c21.45,21.28,49,28.29,61.52,15.67a20,20,0,0,0,4.35-6.7,8.06,8.06,0,0,0-3.31-9.67l-13-8.25a7.51,7.51,0,0,0-9.89,1.45,66.93,66.93,0,0,1-4.71,5.46C59.22,74,49,70.05,39.48,60.58S25.87,41,29.71,37.2a66.42,66.42,0,0,1,5.42-4.75,7.5,7.5,0,0,0,1.37-9.9L28.14,9.65a8,8,0,0,0-9.69-3.24,19.86,19.86,0,0,0-6.67,4.41C-.74,23.45,6.5,50.93,28,72.2"/>
        </g>
    </g>
</svg>