<svg xmlns="http://www.w3.org/2000/svg" viewBox="0 0 100 100">
    <defs>
        <style>.cls-1,.cls-2{fill:none;}.cls-1{stroke:#000;stroke-linecap:round;stroke-linejoin:round;stroke-width:3px;}</style>
    </defs>
    <g id="Layer_2" data-name="Layer 2">
        <g id="Layer_1-2" data-name="Layer 1">
            <path d="M24,85.14h0a10.5,10.5,0,0,1-11.94-8.91L9.49,59.1A10.62,10.62,0,0,1,18.27,47h0A10.51,10.51,0,0,1,30.21,55.9L32.78,73A10.62,10.62,0,0,1,24,85.14Z"/>
            <path d="M77,85.14h0a10.49,10.49,0,0,0,11.93-8.91L91.51,59.1A10.62,10.62,0,0,0,82.73,47h0A10.51,10.51,0,0,0,70.79,55.9L68.22,73A10.61,10.61,0,0,0,77,85.14Z"/>
            <path d="M90.1,68.45a35.25,35.25,0,0,0,5.19-18.36c0-21.69-20.05-39.27-44.79-39.27S5.7,28.4,5.7,50.09a35.26,35.26,0,0,0,5.2,18.36"/>
            <path d="M70.24,14.83c-1.88,2.75-9.15,4.57-19.74,4.57s-17.86-1.82-19.74-4.57"/>
            <rect width="100" height="100"/>
        </g>
    </g>
</svg>