<svg xmlns="http://www.w3.org/2000/svg" viewBox="0 0 411.66 105.67"><defs><style>.cls-1,.cls-2,.cls-3{fill:none;}.cls-1,.cls-3{stroke:#000;stroke-linecap:round;stroke-width:3px;}.cls-1{stroke-miterlimit:10;}.cls-3{stroke-linejoin:round;}</style></defs><g id="Layer_2" data-name="Layer 2"><g id="Layer_1-2" data-name="Layer 1"><path class="cls-1" d="M156.41,27.83a36.67,36.67,0,1,0,10.74,25.93A36.58,36.58,0,0,0,156.41,27.83Z"/><path class="cls-1" d="M154.68,51.24c-.2-.21-.51-.62-.82-1l-.2-.2a3.52,3.52,0,0,0-1-.71l-15.11-8.68a.1.1,0,0,1-.1-.1l-15.21-8.78a5.74,5.74,0,0,0-4.29-.61,6,6,0,0,0-3.47,2.65,8.74,8.74,0,0,0-.61,1.33c-.1.3-.1.71-.2,1.12V71.85a5.58,5.58,0,0,0,5.61,5.62,4.71,4.71,0,0,0,1.63-.31,6,6,0,0,0,1.43-.71l15-8.68.2-.1L152.64,59c.1,0,.1-.1.2-.1a5.69,5.69,0,0,0,2.45-3.37A5.28,5.28,0,0,0,154.68,51.24Z"/><path class="cls-1" d="M258.07,35,220.13,19.6a7.06,7.06,0,0,0-5.27,0L176.92,35a2,2,0,0,0,0,3.71l37.94,15.4a7,7,0,0,0,5.27,0l37.94-15.4A2,2,0,0,0,258.07,35Z"/><path class="cls-1" d="M197.81,47.19,189.47,59a2.82,2.82,0,0,0,.11,3.19s10.71,13.26,27.67,13.26c16,0,28.55-13.36,28.55-13.36a2.47,2.47,0,0,0,.18-3.06l-8.8-11.87"/><polyline class="cls-1" points="217.5 34.95 181.77 40.68 186.31 72.72"/><path class="cls-1" d="M185.21,73.6l-2.7,12.22A1.36,1.36,0,0,0,184,87.46l8.84-1.34a1.36,1.36,0,0,0,1-2l-6.14-10.87A1.36,1.36,0,0,0,185.21,73.6Z"/><rect class="cls-2" x="167.5" y="4.22" width="100" height="100"/><path class="cls-1" d="M21.71,48.76V61c0,7.65,2.95,13.94,8.53,18.19,4.51,3.43,10.55,5.4,17.55,5.74h4.42c7-.34,13-2.31,17.55-5.74C75.34,74.89,78.29,68.6,78.29,61V48.83"/><path class="cls-1" d="M30.91,97H69.09"/><path class="cls-3" d="M50,84.88V97"/><path class="cls-1" d="M35.38,73.43C39,75.84,44,77.07,50.11,77.07s11.11-1.23,14.73-3.64c4.31-2.89,6.6-7.47,6.6-13.25V32.27c0-11.39-8.77-19.34-21.33-19.34s-21.33,8-21.33,19.34V60.18C28.78,66,31.07,70.54,35.38,73.43Z"/><path class="cls-1" d="M29.47,37.27H49.06"/><path class="cls-1" d="M29.47,47.87H49.06"/><path class="cls-1" d="M29.47,58.46H49.06"/><rect class="cls-2" y="5.67" width="100" height="100"/><path class="cls-1" d="M298.43,66c-6.78,3.09-14.87,1.35-16.35-4.05s4.46-10.82,14.86-10.82c11.9,0,16.36,8.34,16.36,13.52,0,8.11-5.95,16.23-25.28,16.23-14.09,0-24.19-9.59-22.29-21.64,1.48-9.46,10.11-15.2,20.81-23,7.43-5.41,10.81-10.82,10.81-18.93,0-5.41-2.7-12-9.53-11.4s-8.77,6-8.14,13.23c.91,10.34,9.13,21.3,12.8,34.68,3,10.82,4.46,17.58,4.46,27.05,0,10.82-3.46,17.28-10.16,18-5.17.52-10.82-3.93-8.66-8.85"/><rect class="cls-2" x="239.4" y="2.87" width="100" height="100"/><rect class="cls-3" x="329.18" y="24.75" width="64.96" height="50.5" rx="3"/><path class="cls-3" d="M329.18,27.75,356.91,53a7.4,7.4,0,0,0,9.5,0l27.73-25.29"/><line class="cls-3" x1="329.18" y1="70.31" x2="352.48" y2="49"/><line class="cls-3" x1="394.14" y1="70.31" x2="370.84" y2="49"/><rect class="cls-2" x="311.66" width="100" height="100"/></g></g></svg>