<svg xmlns="http://www.w3.org/2000/svg" viewBox="0 0 56.84 87.74"><defs><style>.cls-1{fill:none;stroke:#000;stroke-linecap:round;stroke-linejoin:round;stroke-width:3px;}</style></defs><g id="Layer_2" data-name="Layer 2"><g id="Layer_1-2" data-name="Layer 1"><path class="cls-1" d="M28.42,74.58s.83-23.09,0-31.06-4-23.94-10.49-20.34c-4.85,2.68-2.35,10.6,2,13.37,5.48,3.49,10.73.57,15.15-4s6.1-10.2,2.94-12-9.86,5.67-10.24,18.16"/><path class="cls-1" d="M28.42,74.58c5.48,0,8.79-2.37,9.3-12.27.49-9.56,4.16-13.45,10.22-20.08a26.32,26.32,0,0,0,7.4-18.54C55.34,9.53,44.68,1.5,28.42,1.5S1.5,9.53,1.5,23.69A26.32,26.32,0,0,0,8.9,42.23C15,48.86,18.63,52.75,19.12,62.31,19.63,72.21,22.94,74.58,28.42,74.58Z"/><path class="cls-1" d="M21.06,78.62a12.91,12.91,0,0,0,7.17,2.11c5.16,0,7.55-2.11,7.55-2.11"/><path class="cls-1" d="M21.06,84.12a12.87,12.87,0,0,0,7.17,2.12c5.16,0,7.55-2.12,7.55-2.12"/></g></g></svg>