<svg xmlns="http://www.w3.org/2000/svg" viewBox="0 0 100 100">
    <defs>
        <style>.stroke{fill:none;}.stroke{stroke:#000;stroke-linecap:round;stroke-miterlimit:10;stroke-width:3px;}</style>
    </defs>
    <path class="stroke" d="M59,63.15c-6.78,3.08-14.86,1.35-16.35-4.06-1.44-5.25,4.46-10.82,14.87-10.82,11.89,0,16.35,8.34,16.35,13.52C73.9,69.91,68,78,48.63,78c-14.09,0-24.19-9.59-22.3-21.64,1.49-9.46,10.11-15.2,20.81-23C54.57,28,58,22.58,58,14.46c0-5.4-2.69-12-9.52-11.4s-8.78,6-8.14,13.23c.9,10.34,9.12,21.31,12.8,34.69,3,10.81,4.46,17.57,4.46,27,0,10.82-3.46,17.29-10.17,18-5.17.53-10.82-3.93-8.65-8.85"/>
</svg>