<svg xmlns="http://www.w3.org/2000/svg" viewBox="0 0 50 50">
    <defs>
        <style>.stroke{fill:none;stroke:#000;stroke-linecap:round;stroke-linejoin:round;stroke-width:3px;}</style>
    </defs>
    <g id="Layer_2" data-name="Layer 2">
        <g id="Layer_1-2" data-name="Layer 1">
            <path class="stroke" d="M14,36.1C24.7,46.74,38.47,50.25,44.73,43.93a9.76,9.76,0,0,0,2.18-3.35,4,4,0,0,0-1.66-4.83l-6.48-4.13a3.76,3.76,0,0,0-5,.73,30.7,30.7,0,0,1-2.35,2.73c-1.86,1.94-6.95,0-11.73-4.79s-6.81-9.81-4.89-11.69a34.38,34.38,0,0,1,2.71-2.38,3.75,3.75,0,0,0,.69-4.95L14.07,4.82A4,4,0,0,0,9.22,3.21a9.92,9.92,0,0,0-3.33,2.2C-.37,11.72,3.25,25.46,14,36.1"/>
        </g>
    </g>
</svg>