<svg xmlns="http://www.w3.org/2000/svg" viewBox="0 0 100 100">
    <defs>
        <style>.stroke{fill:none;stroke:#000;stroke-linecap:round;stroke-linejoin:round;stroke-width:3px;}</style>
    </defs>
    <g id="Layer_2" data-name="Layer 2">
        <g id="Layer_1-2" data-name="Layer 1">
            <ellipse class="stroke" cx="24.21" cy="27.36" rx="16.06" ry="4.84" transform="translate(-11.97 22.25) rotate(-40.44)"/>
            <path class="stroke" d="M88.12,85.19c-14.76,0-21.09-7-25.66-12.18"/>
            <path class="stroke" d="M53.62,78.18c2.4-.58,4.59-1.59,8.84-5.17h0C66.67,69.38,68,67.38,69,65.1"/>
            <path class="stroke" d="M48.39,74.15c3-.27,5.73-1.19,10.57-5.25h0c4.77-4.14,6.1-6.63,6.86-9.6"/>
            <path class="stroke" d="M36.44,16.94,61,50.63a5.67,5.67,0,0,1,.91,5.17c-.83,2.65-2.59,5.25-6.52,8.68h0c-4,3.33-6.84,4.66-9.59,5.06a5.8,5.8,0,0,1-5-1.69L12,37.78"/>
            <path class="stroke" d="M23.67,34,34.06,45a2.6,2.6,0,0,0,3.57.2l1.82-1.56a2.53,2.53,0,0,0,.32-3.51L30.3,28.41"/>
            <line class="stroke" x1="24.28" y1="27.44" x2="14.66" y2="16.39"/>
            <line class="stroke" x1="18.71" y1="31.09" x2="12.48" y2="24"/>
            <line class="stroke" x1="28.61" y1="21.9" x2="22.38" y2="14.81"/>
        </g>
    </g>
</svg>