<svg xmlns="http://www.w3.org/2000/svg" viewBox="0 0 100 100">
    <defs>
        <style>.stroke{fill:none;stroke:#000;stroke-linecap:round;stroke-linejoin:round;stroke-width:3px;}</style>
    </defs>
    <g id="Layer_2" data-name="Layer 2">
        <g id="Layer_1-2" data-name="Layer 1">
            <path class="stroke" d="M22.72,42.63A11.43,11.43,0,0,1,34.15,54.06"/>
            <path class="stroke" d="M77.19,42.63A11.43,11.43,0,0,1,88.62,54.06"/>
            <path class="stroke" d="M42.05,54.06A19.24,19.24,0,1,1,22.81,34.82,19.24,19.24,0,0,1,42.05,54.06Z"/>
            <path class="stroke" d="M58,54.06A19.24,19.24,0,1,0,77.19,34.82,19.23,19.23,0,0,0,58,54.06Z"/>
            <path class="stroke" d="M10.16,39.56,25,27.57a11.58,11.58,0,0,1,6.63-2.09A11.77,11.77,0,0,1,43.09,35.61,10.87,10.87,0,0,1,50,33.15h0a10.87,10.87,0,0,1,6.91,2.46A11.77,11.77,0,0,1,68.4,25.48,11.5,11.5,0,0,1,75,27.57l14.81,12"/>
            <path class="stroke" d="M60.45,63.61a12,12,0,0,0-10.37-6h-.16a12,12,0,0,0-10.37,6"/>
            <circle class="stroke" cx="50" cy="46.03" r="4.42"/>
        </g>
    </g>
</svg>