<svg xmlns="http://www.w3.org/2000/svg" viewBox="0 0 100 100">
    <path d="M47.81,10a3.21,3.21,0,0,1,4.38,0A128.39,128.39,0,0,0,70.71,24.64c6.34,3.94,15,9.27,24.06,13a1.08,1.08,0,0,1-.21,2.06C73.85,43.36,50,43.32,50,43.32s-23.85,0-44.56-3.63a1.08,1.08,0,0,1-.21-2.06c9-3.72,17.72-9.05,24.06-13A128.39,128.39,0,0,0,47.81,10Z"/>
    <path d="M82.13,41.46c0,11.29,4.51,37.35-3.8,45-3,2.78-12.09,3-17.11,2.92a3.24,3.24,0,0,1-3.17-3.5l1.11-14.05A4.13,4.13,0,0,0,55,67.41H45a4.13,4.13,0,0,0-4.13,4.41L42,85.87a3.24,3.24,0,0,1-3.17,3.5c-5,.09-14.09-.14-17.11-2.92-8.31-7.64-3.8-33.7-3.8-45"/>
    <rect x="25.81" y="50.81" width="13.86" height="12.35" rx="2"/>
    <rect x="60.33" y="50.81" width="13.86" height="12.35" rx="2"/>
</svg>