<svg xmlns="http://www.w3.org/2000/svg" viewBox="0 0 100 100">
    <defs>
        <style>.stroke{fill:none;stroke:#000;stroke-linecap:round;stroke-linejoin:round;stroke-width:3px;}</style>
    </defs>
    <g id="Layer_2" data-name="Layer 2">
        <g id="Layer_1-2" data-name="Layer 1">
            <path class="stroke" d="M50,80.71s.83-23.09,0-31.06S46,25.71,39.51,29.31c-4.85,2.68-2.35,10.6,2,13.37,5.48,3.49,10.73.57,15.15-4s6.1-10.19,2.94-12-9.86,5.66-10.24,18.15"/>
            <path class="stroke" d="M50,80.71c5.48,0,8.79-2.37,9.3-12.27.49-9.55,4.16-13.44,10.22-20.08a26.32,26.32,0,0,0,7.4-18.54C76.92,15.66,66.26,7.63,50,7.63s-26.92,8-26.92,22.19a26.32,26.32,0,0,0,7.4,18.54C36.54,55,40.21,58.89,40.7,68.44,41.21,78.34,44.52,80.71,50,80.71Z"/>
            <path class="stroke" d="M42.64,84.75a12.87,12.87,0,0,0,7.17,2.12c5.16,0,7.55-2.12,7.55-2.12"/>
            <path class="stroke" d="M42.64,90.25a12.87,12.87,0,0,0,7.17,2.12c5.16,0,7.55-2.12,7.55-2.12"/>
        </g>
    </g>
</svg>