<svg xmlns="http://www.w3.org/2000/svg"
    xmlns:xlink="http://www.w3.org/1999/xlink" viewBox="0 0 100 100">
    <defs>
        <style>.insta-gradient{fill:url(#insta-gradient);}.cls-3{fill:url(#insta-gradient-3);}</style>
        <linearGradient id="insta-gradient" x1="50" y1="0" x2="50" y2="100" gradientUnits="userSpaceOnUse">
            <stop offset="0%" stop-color="#312142" class="orange"/>
            <stop offset="30%" stop-color="#312142" class="orange"/>
            <stop offset="80%" stop-color="#CFB72F" class="purple"/>
            <stop offset="100%" stop-color="#CFB72F" class="purple"/>
        </linearGradient>
    </defs>
    <path fill="url(#insta-gradient)" d="M70.21,0H29.79A29.82,29.82,0,0,0,0,29.79V70.21A29.82,29.82,0,0,0,29.79,100H70.21A29.82,29.82,0,0,0,100,70.21V29.79A29.82,29.82,0,0,0,70.21,0ZM89.94,70.21A19.73,19.73,0,0,1,70.21,89.94H29.79A19.73,19.73,0,0,1,10.06,70.21V29.79A19.73,19.73,0,0,1,29.79,10.06H70.21A19.73,19.73,0,0,1,89.94,29.79V70.21Z"/>
    <path fill="url(#insta-gradient)" d="M50,24.14A25.86,25.86,0,1,0,75.86,50,25.89,25.89,0,0,0,50,24.14ZM50,65.8A15.8,15.8,0,1,1,65.8,50,15.8,15.8,0,0,1,50,65.8Z"/>
    <circle fill="url(#insta-gradient)" cx="75.91" cy="24.33" r="6.2"/>
</svg>