<svg xmlns="http://www.w3.org/2000/svg" viewBox="0 0 100 100">
    <defs>
        <style>.stroke{fill:none;stroke:#000;stroke-linecap:round;stroke-miterlimit:10;stroke-width:3px;}</style>
    </defs>
    <g id="Layer_2" data-name="Layer 2">
        <g id="Layer_1-2" data-name="Layer 1">
            <path class="stroke" d="M90.58,30.79,52.63,15.39a6.94,6.94,0,0,0-5.26,0L9.42,30.79a2,2,0,0,0,0,3.7l37.95,15.4a6.94,6.94,0,0,0,5.26,0l37.95-15.4A2,2,0,0,0,90.58,30.79Z"/>
            <path class="stroke" d="M30.31,43,22,54.81a2.83,2.83,0,0,0,.1,3.2S32.8,71.27,49.76,71.27c16,0,28.55-13.36,28.55-13.36a2.51,2.51,0,0,0,.18-3.07L69.69,43"/>
            <polyline class="stroke" points="50 30.73 14.28 36.46 18.82 68.5"/>
            <path class="stroke" d="M17.71,69.38,15,81.61a1.37,1.37,0,0,0,1.54,1.64l8.84-1.35a1.37,1.37,0,0,0,1-2L20.23,69A1.36,1.36,0,0,0,17.71,69.38Z"/>
        </g>
    </g>
</svg>