<svg xmlns="http://www.w3.org/2000/svg" viewBox="0 0 50 50">
    <defs>
        <style>.stroke{fill:none;stroke:#000;stroke-linecap:round;stroke-linejoin:round;stroke-width:3px;}</style>
    </defs>
    <g id="Layer_2" data-name="Layer 2">
        <g id="Layer_1-2" data-name="Layer 1">
            <path class="stroke" d="M12,42.57h0a5.25,5.25,0,0,1-6-4.45L4.75,29.55a5.31,5.31,0,0,1,4.39-6.06h0a5.24,5.24,0,0,1,6,4.46l1.29,8.56A5.3,5.3,0,0,1,12,42.57Z"/>
            <path class="stroke" d="M38.5,42.57h0a5.25,5.25,0,0,0,6-4.45l1.28-8.57a5.31,5.31,0,0,0-4.39-6.06h0a5.25,5.25,0,0,0-6,4.46l-1.28,8.56A5.3,5.3,0,0,0,38.5,42.57Z"/>
            <path class="stroke" d="M45.05,34.23A17.65,17.65,0,0,0,47.65,25c0-10.84-10-19.63-22.4-19.63S2.85,14.2,2.85,25a17.65,17.65,0,0,0,2.6,9.19"/>
            <path class="stroke" d="M35.12,7.42c-.94,1.37-4.58,2.28-9.87,2.28s-8.93-.91-9.87-2.28"/>
        </g>
    </g>
</svg>