<svg xmlns="http://www.w3.org/2000/svg" viewBox="0 0 100 100">
    <defs>
        <style>.stroke{fill:none;stroke:#000;stroke-linecap:round;stroke-linejoin:round;stroke-width:3px;}</style>
    </defs>
    <g id="Layer_2" data-name="Layer 2">
        <g id="Layer_1-2" data-name="Layer 1">
            <ellipse class="stroke" cx="68.96" cy="38.39" rx="14.78" ry="16.09" transform="translate(-8.82 51.78) rotate(-38.88)"/>
            <path class="stroke" d="M26.19,61.55,17,69.3a3.39,3.39,0,0,0-.55,4.63l1.35,1.81a3.62,3.62,0,0,0,4.78.93l9.62-5.87"/>
            <path class="stroke" d="M58.86,25.86c-.7,3.92-.92,8.83,3.19,15.59S72.19,51.73,76.56,52.51"/>
            <path class="stroke" d="M53.65,37,26.49,59.72a1,1,0,0,0-.36.8,13.27,13.27,0,0,0,2,6.38A14.16,14.16,0,0,0,33,71.24a1,1,0,0,0,.93-.07L64.16,52.74"/>
        </g>
    </g>
</svg>