<svg xmlns="http://www.w3.org/2000/svg" viewBox="0 0 100 100">
    <defs>
        <style>.stroke{fill:none;stroke:#000;stroke-linecap:round;stroke-linejoin:round;stroke-width:3px;}</style>
    </defs>
    <g id="Layer_2" data-name="Layer 2">
        <g id="Layer_1-2" data-name="Layer 1">
            <path class="stroke" d="M63.77,71.35c0,8.39,4.54,15.2,10.15,15.2s10.14-6.81,10.14-15.2V65.83a3,3,0,0,0-3-3H63.77Z"/>
            <path class="stroke" d="M73.92,86.55H26.08c-5.6,0-10.14-6.81-10.14-15.2V17.15a3,3,0,0,1,3-3H60.77a3,3,0,0,1,3,3V62.83"/>
            <path class="stroke" d="M22.72,30.11a7.56,7.56,0,0,1,2.91,2.6,15.87,15.87,0,0,1,1.78,3.59,31.55,31.55,0,0,1,3.72-7.47A21,21,0,0,1,37,23.29"/>
            <line class="stroke" x1="42.07" y1="29.79" x2="57.05" y2="29.79"/>
            <path class="stroke" d="M22.66,47.6a7.54,7.54,0,0,1,2.91,2.59,16.09,16.09,0,0,1,1.78,3.59,31.13,31.13,0,0,1,3.72-7.47,21.39,21.39,0,0,1,5.84-5.54"/>
            <line class="stroke" x1="42.01" y1="47.28" x2="57" y2="47.28"/>
            <path class="stroke" d="M22.66,65.08a7.48,7.48,0,0,1,2.91,2.6,15.9,15.9,0,0,1,1.78,3.58,31.14,31.14,0,0,1,3.72-7.46,21.28,21.28,0,0,1,5.84-5.55"/>
            <line class="stroke" x1="42.01" y1="64.76" x2="57" y2="64.76"/>
        </g>
    </g>
</svg>