<svg xmlns="http://www.w3.org/2000/svg" viewBox="0 0 100 100">
    <defs>
        <style>.stroke{fill:none;stroke:#000;stroke-linecap:round;stroke-width:3px;stroke-linejoin:round;}</style>
    </defs>
    <g id="Layer_2" data-name="Layer 2">
        <g id="Layer_1-2" data-name="Layer 1">
            <path class="stroke" d="M21.71,43.09V55.28c0,7.65,2.95,13.93,8.53,18.18,4.51,3.44,10.55,5.41,17.55,5.75h4.42c7-.34,13-2.31,17.55-5.75,5.58-4.25,8.53-10.53,8.53-18.18V43.16"/>
            <path class="stroke" d="M30.91,91.31H69.09"/>
            <path class="stroke" d="M50,79.21v12.1"/>
            <path class="stroke" d="M35.38,67.76C39,70.17,44,71.39,50.11,71.39s11.11-1.22,14.73-3.63c4.31-2.89,6.6-7.47,6.6-13.25V26.6c0-11.39-8.77-19.34-21.33-19.34s-21.33,8-21.33,19.34V54.51C28.78,60.29,31.07,64.87,35.38,67.76Z"/>
            <path class="stroke" d="M29.47,31.6H49.06"/>
            <path class="stroke" d="M29.47,42.19H49.06"/>
            <path class="stroke" d="M29.47,52.79H49.06"/>
        </g>
    </g>
</svg>