<svg xmlns="http://www.w3.org/2000/svg" viewBox="0 0 100.03 100">
    <defs>
        <style>.cls-1{fill:none;}.cls-2{stroke:#000;stroke-linecap:round;stroke-linejoin:round;stroke-width:3px;}</style>
    </defs>
    <g id="Layer_2" data-name="Layer 2">
        <g id="Layer_1-2" data-name="Layer 1">
            <rect class="cls-1" x="0.03" width="100" height="100"/>
            <path d="M100,59.47c0-7-5.17-11-11-11.32a11.71,11.71,0,0,0-6.13,1.4A21.32,21.32,0,0,0,61.58,28.67a17.52,17.52,0,0,0-7.79,1.93,1.59,1.59,0,0,0-.93,1.45V69.86a1.58,1.58,0,0,0,1.58,1.58l34-.11C95.11,71.33,100,66.35,100,59.47Z"/>
            <line class="cls-2" x1="48.92" y1="69.96" x2="48.92" y2="32.66"/>
            <line class="cls-2" x1="38.39" y1="69.96" x2="38.39" y2="38.44"/>
            <line class="cls-2" x1="33.12" y1="69.96" x2="33.12" y2="36.05"/>
            <line class="cls-2" x1="27.85" y1="69.96" x2="27.85" y2="37.66"/>
            <line class="cls-2" x1="22.58" y1="69.96" x2="22.58" y2="40.88"/>
            <line class="cls-2" x1="17.31" y1="69.96" x2="17.31" y2="46.99"/>
            <line class="cls-2" x1="12.04" y1="69.96" x2="12.04" y2="49.6"/>
            <line class="cls-2" x1="6.77" y1="69.96" x2="6.77" y2="50.13"/>
            <line class="cls-2" x1="1.5" y1="65.28" x2="1.5" y2="54.27"/>
            <line class="cls-2" x1="43.65" y1="69.96" x2="43.65" y2="36.61"/>
        </g>
    </g>
</svg>