<svg xmlns="http://www.w3.org/2000/svg" viewBox="0 0 100 100"><defs><style>.cls-1{fill:none;}.cls-2{fill:#00d95f;}</style></defs><g id="Layer_2" data-name="Layer 2"><g id="Layer_1-2" data-name="Layer 1"><rect class="cls-1" width="100" height="100"/><path class="cls-2" d="M50,0a50,50,0,1,0,50,50A50,50,0,0,0,50,0ZM71.18,72.16a3.15,3.15,0,0,1-4.31,1.13C58.58,68.44,49,67.67,42.44,67.87a60.44,60.44,0,0,0-12.68,1.67,3.15,3.15,0,0,1-1.67-6.08,65.17,65.17,0,0,1,14-1.89,61.39,61.39,0,0,1,13.46,1,45.54,45.54,0,0,1,14.52,5.3A3.16,3.16,0,0,1,71.18,72.16Zm6.94-12.8a4.06,4.06,0,0,1-3.5,2,4,4,0,0,1-2-.56c-10.65-6.22-22.94-7.21-31.38-7A78.11,78.11,0,0,0,24.92,56a4.05,4.05,0,1,1-2.15-7.81,84.77,84.77,0,0,1,18-2.43A79.06,79.06,0,0,1,58,47a58.27,58.27,0,0,1,18.64,6.8A4,4,0,0,1,78.12,59.36Zm3.9-12a5,5,0,0,1-2.5-.68c-25.3-14.79-58.12-6-58.45-5.91a5,5,0,0,1-2.64-9.58,103.7,103.7,0,0,1,22-3,96.82,96.82,0,0,1,21.21,1.53A71.58,71.58,0,0,1,84.54,38.1,5,5,0,0,1,82,47.36Z"/></g></g></svg>