<svg xmlns="http://www.w3.org/2000/svg" viewBox="0 0 100 100"><defs><style>.cls-1,.cls-2{fill:none;}.cls-2{stroke:#000;stroke-linecap:round;stroke-linejoin:round;stroke-width:3px;}</style></defs><g id="Layer_2" data-name="Layer 2"><g id="Layer_1-2" data-name="Layer 1"><rect class="cls-1" width="100" height="100"/><path class="cls-2" d="M29.72,56.16a15.57,15.57,0,1,1,18-12.63c-3,17.22-20.44,26.28-28,25C24.15,65.56,28.87,60.94,29.72,56.16Z"/><path class="cls-2" d="M28,41.64A15.68,15.68,0,0,1,22,38.87a12,12,0,0,1,10.62-8.72A30.26,30.26,0,0,0,28,41.64Z"/><path class="cls-2" d="M60.64,62a15.56,15.56,0,1,1,18-12.62c-3,17.22-20.44,26.28-28,25C55.07,71.42,59.8,66.8,60.64,62Z"/><path class="cls-2" d="M59,47.5a15.82,15.82,0,0,1-6.05-2.77A12,12,0,0,1,63.53,36,30.26,30.26,0,0,0,59,47.5Z"/></g></g></svg>