<svg xmlns="http://www.w3.org/2000/svg" viewBox="0 0 100 100">
    <defs>
        <style>.blue{fill:#97CCC3;}.red{fill:#E6B5B5;}.fill{fill:#140E1B;}</style>
    </defs>
    <path class="blue" d="M40.24,39.38V35.49a28,28,0,0,0-4.08-.36,30.32,30.32,0,0,0-17.38,55.2A30.28,30.28,0,0,1,40.24,39.38Z"/>
    <path class="blue" d="M41,83.52A13.87,13.87,0,0,0,54.81,70.27V4.18H66.88A23.43,23.43,0,0,1,66.53,0H50V66A13.78,13.78,0,0,1,29.8,77.77,13.84,13.84,0,0,0,41,83.52ZM89.43,26.61V22.93a22.57,22.57,0,0,1-12.49-3.77A22.9,22.9,0,0,0,89.43,26.61Z"/>
    <path class="red" d="M76.94,19.16a22.76,22.76,0,0,1-5.65-15H66.88A22.85,22.85,0,0,0,76.94,19.16ZM36.16,51.65a13.86,13.86,0,0,0-6.39,26.12A13.83,13.83,0,0,1,41,55.83a15,15,0,0,1,4.09.64V39.67A29.53,29.53,0,0,0,41,39.35h-.74V52.13A14.07,14.07,0,0,0,36.16,51.65Z"/>
    <path class="red" d="M89.43,26.61V39.38a39.17,39.17,0,0,1-22.9-7.44V65.51A30.34,30.34,0,0,1,18.78,90.33,30.31,30.31,0,0,0,71.29,69.7V36.22a39.31,39.31,0,0,0,22.93,7.35V27.12a24.13,24.13,0,0,1-4.79-.51Z"/>
    <path class="fill" d="M66.53,65.51V31.94a39.14,39.14,0,0,0,22.93,7.35V26.51a22.89,22.89,0,0,1-12.52-7.35,22.85,22.85,0,0,1-10.06-15H54.81V70.27a13.87,13.87,0,0,1-25.08,7.57,13.87,13.87,0,0,1,6.39-26.13,14.15,14.15,0,0,1,4.09.64V39.57A30.28,30.28,0,0,0,18.75,90.68a30,30,0,0,0,17.41,5.14A30.37,30.37,0,0,0,66.53,65.51Z"/>
</svg>