<svg xmlns="http://www.w3.org/2000/svg" viewBox="0 0 100 100">
	<path fill="#97CCC3" d="M50.1,84.5c-7.6-0.1-14.5-0.1-21.4-0.4C23.4,84,18.2,83.5,13,82.8c-6.7-1-10.8-5.4-11.7-12.1c-0.7-5.2-1.1-10.4-1.2-15.6c-0.2-5.5,0-11,0.2-16.5c0.2-3.7,0.6-7.5,1.3-11.2c1.1-6,5.2-9.4,11-10.4c5.1-0.8,10.2-1.2,15.3-1.3c11.3-0.3,22.6-0.4,33.8-0.3c6.9,0,13.9,0.6,20.8,0.9c1.8,0.1,3.6,0.4,5.4,0.7c5.5,1.1,8.9,4.5,10.1,10c1,5.2,1.6,10.4,1.7,15.6c0.4,8.6,0.1,17.2-0.9,25.7c-0.2,1.6-0.5,3.2-0.9,4.7c-1.2,5.1-5.5,9-10.8,9.6C82.2,83.4,77.1,83.9,72,84C64.5,84.3,57,84.4,50.1,84.5z M65.5,49.9L40.4,34.5v30.8L65.5,49.9z"/>
	<path fill="#fff" d="M65.5,50L40.4,34.6v30.8L65.5,50z"/>
</svg>