<svg xmlns="http://www.w3.org/2000/svg" viewBox="0 0 143.07 121.05">
    <defs>
        <style>.stroke{fill:none;}.fill{fill:#97CCC3;}.stroke{stroke:#140E1B;stroke-linecap:round;stroke-linejoin:round;stroke-width:3px;}</style>
    </defs>
            <path class="fill" d="M18.25,37.15c-10.48,6.65-4.9,77.94,3.07,82.27,11.5,6.24,49.47-28.6,49.12-38S32,28.43,18.25,37.15Z"/>
            <path class="stroke" d="M20.84,75.87c2.23,17.2-3.18,33.46,2.24,38.94,6.22,6.3,22.43.68,51.17,1.3,25,.54,41.83,5.1,48.43-.41,5.1-4.25,1.92-21.47,1.93-39.21,0-18.83,5.51-33.92,1.1-38.95-5.55-6.33-37.36-1.34-53.48-1.34s-35.93-3.89-46,0c-13.71,5.31,5.51,16.13,18.57,27,10.24,8.51,18.84,19.6,27.39,19.52s18-9.77,30.14-20.77c15.44-14,29.74-35.63,37.6-58.64"/>
</svg>