<svg xmlns="http://www.w3.org/2000/svg" viewBox="0 0 116.42 91.12">
    <defs>
        <style>.fill{fill:#97CCC3;}.stroke{fill:none;stroke:#140E1B;stroke-linecap:round;stroke-linejoin:round;stroke-width:3px;}</style>
    </defs>
    <path class="fill" d="M5.75,8.11C-4.74,14.75.84,86,8.82,90.37c11.5,6.25,49.46-28.59,49.12-38S19.52-.62,5.75,8.11Z"/>
    <path class="stroke" d="M8.34,46.83C10.57,64,5.16,80.28,10.58,85.76c6.22,6.3,22.43.69,51.16,1.31,25.05.54,41.83,5.09,48.44-.41,5.1-4.25,1.91-21.47,1.93-39.21,0-18.83,5.51-33.92,1.1-38.95-5.55-6.33-37.36-1.35-53.48-1.35s-35.93-3.88-46,0c-13.71,5.32,5.5,16.14,18.57,27,10.24,8.51,18.83,19.6,27.39,19.53s18-9.78,30.13-20.77c9.09-8.25,18.92-18.11,24-31.4"/>
</svg>