<svg xmlns="http://www.w3.org/2000/svg" viewBox="0 0 143.07 140.26"><defs><style>.cls-1,.cls-3{fill:none;}.cls-2{fill:#ccc;}.cls-3{stroke:#000;stroke-linecap:round;stroke-linejoin:round;stroke-width:3px;}</style></defs><g id="Layer_2" data-name="Layer 2"><g id="Layer_2-2" data-name="Layer 2"><rect class="cls-1" width="143.07" height="140.26"/><path class="cls-2" d="M45.65,29.08c-2.56,8.17,8.17,15.64,21.24,17.11,12,1.35,27.28-13.93,41.68-7.08,11.92,5.66-6.3,19.92-57.78,17.74-15.42-.65-32.44-4.2-32.44-24.1,0-14.43,43.29-23.22,53-22.75s13.89,10.36,4.48,11.3S49.27,17.57,45.65,29.08Z"/><path class="cls-3" d="M112.51,45c17.37-4.9,25.63-7.81,25.4-14-.25-7-18.66-13.22-30.41-18S83.31,3.38,74.28,3.38c-9.92,0-23.55,6.36-34,10.25-10.64,4-29.93,10.78-30.75,16.78S28.82,43.73,39.65,48s24,9.07,34.08,9.12,22.22-10,32-8.69c5.61.78,9.87,15.68,8.44,21.62-1.69,7-10.94,20.78-40.45,20.17C45.6,89.64,36.28,75.61,34.92,68s14.81-22.61,5.5-33.9c-7.19-8.71-23.45-1.37-19,12.71,5,15.91,8.39,36.63,7,52.52C27,115,17.85,125.41,22.76,133.05c3.46,5.38,15.27,5.19,16.66-2.73,2.46-14.11-17.54-26.46-34.75-30.56"/></g></g></svg>