<svg xmlns="http://www.w3.org/2000/svg" viewBox="0 0 143.07 112.42"><defs><style>.cls-1,.cls-3{fill:none;}.cls-2{fill:#ccc;}.cls-3{stroke:#000;stroke-linecap:round;stroke-linejoin:round;stroke-width:3px;}</style></defs><g id="Layer_2" data-name="Layer 2"><g id="Layer_2-2" data-name="Layer 2"><rect class="cls-1" width="143.07" height="112.42"/><path class="cls-2" d="M61.64,28C48.29,33.53,47,76.45,57.79,89.14S122,79,122.43,62.34,77.75,21.25,61.64,28Z"/><path class="cls-3" d="M2.65,11.39c54.61,2.38,116,34.76,115.58,47.79-.19,6.45-13.19,13.13-25,20.66-12,7.62-24.76,12-31.91,7.53-8-5.06-5-20.79-4.46-33.4.76-16.68,2.86-25.6,14.62-31.65,11.49-5.9,46.92-8,60.25,20.31,11.76,25-7.22,56.58-35.92,63.89-26,6.61-48.2-.71-59.18-23.94-15.38-32.53-1.88-77,44.44-79.12"/></g></g></svg>