<svg xmlns="http://www.w3.org/2000/svg" viewBox="0 0 143.07 150.71">
    <defs>
        <style>.fill{fill:#FEFDF9;}.stroke{fill:none;stroke:#DFDDD5;stroke-linecap:round;stroke-linejoin:round;stroke-width:3px;}</style>
    </defs>
    <path class="fill" d="M35.86,30.05c-13.42,29.44,9.43,97.35,37,75.06,10.57-8.56,10.68-43.49,1.94-68C67.29,16.07,42,16.62,35.86,30.05Z"/>
    <path class="stroke" d="M3.55,147C34.3,132.26,117,124.51,117.09,134.25c.09,7.22-21,10.83-36.43,7.71-18.15-3.66-8.69-12.38-9.08-24.25-15.26-.86-28.7-5.62-35.85-16.1-8-11.71-4.25-32.46-4.46-60.2,12.09-2.13,41.58,7,40.6-1.74-.77-6.78-30.31-4.25-30.16,7.67S71.5,64.88,71.52,57.12c0-8-29.72-3.29-29.81,7.76-.12,13,30.06,16.49,29.81,9.2-.24-6.82-29.47-4.64-29.81,8.16-.28,10.1,10.79,20.91,30.12,20.87,21.12,0,31.36-8.15,32.29-22.18s0-44,0-55.77S92.32,3,74.31,3,42.64,9.14,42.52,28.61"/>
</svg>