<svg xmlns="http://www.w3.org/2000/svg" viewBox="-25 -2 100 100">
    <g id="Layer_2" data-name="Layer 2">
        <g id="Layer_1-2" data-name="Layer 1">
            <path class="stroke" d="M34.43,61.62C27.65,64.7,19.57,63,18.08,57.56,16.64,52.32,22.54,46.75,33,46.75c11.89,0,16.35,8.34,16.35,13.52C49.3,68.38,43.35,76.5,24,76.5,9.94,76.5-.16,66.91,1.73,54.86c1.48-9.47,10.11-15.2,20.81-23C30,26.46,33.35,21.05,33.35,12.94c0-5.41-2.69-12-9.52-11.4s-8.78,6-8.14,13.23c.9,10.34,9.12,21.3,12.8,34.68C31.46,60.27,33,67,33,76.5c0,10.81-3.46,17.28-10.17,18C17.61,95,12,90.52,14.13,85.61" />
        </g>
    </g>
</svg>