<svg xmlns="http://www.w3.org/2000/svg" viewBox="-5.25 -10.5 100 100">
    <g id="Layer_2" data-name="Layer 2">
        <g id="Layer_1-2" data-name="Layer 1">
            <path class="stroke" d="M87.2,18.64l-42-17a1.22,1.22,0,0,0-.92,0l-42,17.05a1.22,1.22,0,0,0,0,2.26L44.27,38a1.22,1.22,0,0,0,.92,0l42-17.05A1.22,1.22,0,0,0,87.2,18.64Z" />
            <path class="stroke" d="M25,30.13,16.64,42a2.8,2.8,0,0,0,.1,3.19S27.49,58.49,44.49,58.49c16,0,28.62-13.39,28.62-13.39A2.5,2.5,0,0,0,73.3,42l-8.83-11.9" />
            <polyline class="stroke" points="44.73 17.86 8.92 23.6 11.49 62.74" />
            <path class="stroke" d="M10.29,64.06,6.12,75.91a1.36,1.36,0,0,0,1.32,1.81l9-.27a1.35,1.35,0,0,0,1.22-1.88L12.83,64A1.36,1.36,0,0,0,10.29,64.06Z" />
        </g>
    </g>
</svg>