<svg xmlns="http://www.w3.org/2000/svg" viewBox="-11.83 -7 100 100">
    <g id="Layer_2" data-name="Layer 2">
        <g id="Layer_1-2" data-name="Layer 1">
            <path class="stroke" d="M64.1,12.24A36.67,36.67,0,1,0,74.84,38.17,36.54,36.54,0,0,0,64.1,12.24Z" />
            <path class="stroke" d="M62.37,35.64a10.48,10.48,0,0,1-.82-1l-.2-.2a3.91,3.91,0,0,0-1-.72L45.22,25a.1.1,0,0,1-.1-.1L29.91,16.15a5.74,5.74,0,0,0-4.29-.61,5.94,5.94,0,0,0-3.47,2.65,7.86,7.86,0,0,0-.61,1.33c-.1.3-.1.71-.2,1.12V56.26A5.57,5.57,0,0,0,27,61.87a4.69,4.69,0,0,0,1.63-.3A6.39,6.39,0,0,0,30,60.85l15-8.67.2-.1L60.33,43.4c.1,0,.1-.1.2-.1A5.74,5.74,0,0,0,63,39.93,5.35,5.35,0,0,0,62.37,35.64Z" />
        </g>
    </g>
</svg>