<svg xmlns="http://www.w3.org/2000/svg" viewBox="-18.5 -4.5 100 100">
    <g id="Layer_2" data-name="Layer 2">
        <g id="Layer_1-2" data-name="Layer 1">
            <path class="stroke" d="M1.5,38.7V51.36c0,7.94,3.13,14.47,9,18.88,4.79,3.57,11.19,5.61,18.62,6h4.68c7.43-.36,13.83-2.4,18.62-6,5.91-4.41,9-10.94,9-18.88V38.78" />
            <path class="stroke" d="M8.5,88.77h46" />
            <path class="square" d="M31,76.21V89.27" />
            <path class="stroke" d="M16,64.32c3.84,2.5,9.09,3.78,15.62,3.78s11.78-1.28,15.61-3.78c4.58-3,7-7.75,7-13.76v-29c0-11.82-9.3-20.08-22.61-20.08S9,9.76,9,21.58v29C9,56.57,11.42,61.32,16,64.32Z" />
            <path class="stroke" d="M9.73,26.77H30.5" />
            <path class="stroke" d="M9.73,37.77H30.5" />
            <path class="stroke" d="M9.73,48.77H30.5" />
        </g>
    </g>
</svg>