<svg xmlns="http://www.w3.org/2000/svg" viewBox="0 0 468.97 96"><defs><style>.cls-1,.cls-2,.cls-3{fill:none;stroke:#000;stroke-width:3px;}.cls-1,.cls-2{stroke-linecap:round;}.cls-1,.cls-3{stroke-miterlimit:10;}.cls-2{stroke-linejoin:round;}</style></defs><g id="Layer_2" data-name="Layer 2"><g id="Layer_1-2" data-name="Layer 1"><path class="cls-1" d="M274.18,28.39l-42-17a1.22,1.22,0,0,0-.92,0l-42,17.05a1.22,1.22,0,0,0,0,2.26l42,17.06a1.32,1.32,0,0,0,.92,0l42-17.06A1.22,1.22,0,0,0,274.18,28.39Z"/><path class="cls-1" d="M212,39.88l-8.35,11.88a2.8,2.8,0,0,0,.1,3.19s10.75,13.3,27.75,13.3c16,0,28.62-13.4,28.62-13.4a2.48,2.48,0,0,0,.19-3.06l-8.83-11.91"/><polyline class="cls-1" points="231.71 27.61 195.9 33.36 198.47 72.49"/><path class="cls-1" d="M197.27,73.81,193.1,85.66a1.36,1.36,0,0,0,1.32,1.81l9-.26a1.36,1.36,0,0,0,1.22-1.89l-4.8-11.58A1.36,1.36,0,0,0,197.27,73.81Z"/><path class="cls-1" d="M157.62,22a36.67,36.67,0,1,0,10.74,25.93A36.52,36.52,0,0,0,157.62,22Z"/><path class="cls-1" d="M155.89,45.4a10.64,10.64,0,0,1-.81-1l-.21-.2a3.61,3.61,0,0,0-1-.72l-15.1-8.67a.1.1,0,0,1-.1-.11l-15.21-8.77a5.79,5.79,0,0,0-4.29-.62A6,6,0,0,0,115.68,28a7.38,7.38,0,0,0-.61,1.32c-.1.31-.1.72-.21,1.13V66a5.58,5.58,0,0,0,5.62,5.61,4.69,4.69,0,0,0,1.63-.3,6.39,6.39,0,0,0,1.43-.72l15-8.67.21-.11,15.1-8.67c.11,0,.11-.1.21-.1a5.81,5.81,0,0,0,2.45-3.37A5.32,5.32,0,0,0,155.89,45.4Z"/><path class="cls-1" d="M340.34,61.62C333.56,64.7,325.47,63,324,57.56c-1.44-5.24,4.46-10.81,14.86-10.81,11.9,0,16.36,8.34,16.36,13.52,0,8.11-5.95,16.23-25.28,16.23-14.09,0-24.19-9.59-22.29-21.64,1.48-9.47,10.11-15.2,20.81-23,7.43-5.41,10.81-10.82,10.81-18.93,0-5.41-2.7-12-9.53-11.4s-8.77,6-8.14,13.23c.91,10.34,9.13,21.3,12.8,34.68,3,10.82,4.46,17.58,4.46,27.05,0,10.81-3.46,17.28-10.16,18-5.17.52-10.82-3.94-8.66-8.85"/><rect class="cls-2" x="395.47" y="23.47" width="72" height="50.5" rx="3.58"/><path class="cls-2" d="M395.47,27.33l34.38,24.9a3,3,0,0,0,3.24,0l34.38-24.9"/><line class="cls-2" x1="397.11" y1="72.04" x2="412.01" y2="51.47"/><line class="cls-2" x1="465.88" y1="72.04" x2="450.97" y2="51.47"/><path class="cls-1" d="M1.5,43V55.18c0,7.65,3.13,13.94,9,18.19,4.79,3.43,11.19,5.4,18.62,5.74h4.68c7.43-.34,13.83-2.31,18.62-5.74,5.91-4.25,9-10.54,9-18.19V43.06"/><path class="cls-1" d="M8.5,91.21h46"/><path class="cls-3" d="M31,79.11V91.69"/><path class="cls-1" d="M16,67.66c3.84,2.41,9.09,3.64,15.62,3.64s11.78-1.23,15.61-3.64c4.58-2.88,7-7.47,7-13.25V26.5c0-11.39-9.3-19.34-22.61-19.34S9,15.11,9,26.5V54.41C9,60.19,11.42,64.78,16,67.66Z"/><path class="cls-1" d="M9.73,31.5H30.5"/><path class="cls-1" d="M9.73,42.1H30.5"/><path class="cls-1" d="M9.73,52.69H30.5"/></g></g></svg>