<?xml version="1.0" encoding="utf-8"?>
<!-- Generator: Adobe Illustrator 25.1.0, SVG Export Plug-In . SVG Version: 6.00 Build 0)  -->
<svg version="1.1" id="Layer_1"
	xmlns="http://www.w3.org/2000/svg"
	xmlns:xlink="http://www.w3.org/1999/xlink" x="0px" y="0px" viewBox="0 0 1207.5 996.1" style="enable-background:new 0 0 1207.5 996.1;" xml:space="preserve">
	<style type="text/css">
	.st0{fill:#E6B5B5;}
	.st1{fill:#B99ADB;}
	.st2{fill:#97CCC3;}
	.st3{fill:#DFDDD5;}
	.st4{fill:#CFB72F;}
	.st5{fill:none;stroke:#140E1B;stroke-width:3;stroke-linecap:round;stroke-linejoin:round;stroke-miterlimit:10;}
	</style>
	<g id="colour">
		<path class="st0" d="M186.3,157.8c-18.4-0.9-35.5-5-35.5-11.6c0-11,32.5-10.5,39.4-10.8s28.4-1.7,35,23.5s20.4,49.1,18.5,88.4
		c-1,19.8-23.5,17.1-29.2,6.4c-5.6-10.5-10-26.3-8-49.7C208.9,174.6,205.3,158.7,186.3,157.8z"/>
		<path class="st0" d="M156,413.7c-8.4-0.3-10.3-17.1-6.4-26.1s31.8-18.6,43.3-13.6s14.3,34.4,15,62.6s-2.5,50.6-11.5,50.8
		s-5.4-29-5.4-39.7s0.6-27-7.5-32.6C174.3,408.7,162.9,414,156,413.7z"/>
		<path class="st1" d="M808.4,351.2c-8.2-1.9-39.7-1.1-35.8-15s68.7-17.3,82.8-1.3c17.4,19.7,10.7,84.5,8,105.9
		c-5.4,42.6-12.2,68.5-19.8,63.8c-10.4-6.4,8.1-55,6.4-102.7C848.5,360.8,819.9,353.8,808.4,351.2z"/>
		<path class="st0" d="M179.8,577.4c6.9-9.2,23.3-21.2,28.2-4.8c2.5,8.5-7.9,24.3-6.8,35.6c1.6,15.4-4.2,29.2-14.7,29.2
		c-12.8,0-18.9-16.5-28.8-24.1c-9.3-7.1-22.1-9.5-24-17.1c-2.5-10,9.3-14.5,23.3-12C165.3,585.6,173.3,586.1,179.8,577.4z"/>
		<path class="st0" d="M218.5,702.8c-20.3,3.8-8,49.4,0.9,77.2c11.1,34.7,9.1,83.9,3.8,103.3s-13.7,35.2-12.4,70
		c0.6,16,5.5,36,14.2,28.8c12.8-10.6,4.2-43.4,11.8-73.8c3.6-14.4,23.5-51.6,19.6-80.9s-12.1-48.6-16-66.2S233.4,700,218.5,702.8z" />
		<path class="st2" d="M394.6,246.9c14.9,22,22.2,27.6,23.6,67.4c0.6,16-0.2,51.3-20,68.5c-5.4,4.7-25.6-6.8-29.3,6.2
		c-3.9,13.7,19.1,17.7,30.2,16.8c15.2-1.3,32-27.1,39.2-93c3.5-31.7-2.7-85.4-14-87.8S386.7,235.1,394.6,246.9z"/>
		<path class="st2" d="M354.1,114c1.9,9.1,10.8,14,32.1,17.8c18.4,3.3,34.3-1.9,47.6,5.1c10.1,5.3,16.6,15.6,23.5,13
		c8.6-3.2,10-14.8,5.1-28.3c-7.2-19.8-32-23.7-59.4-26C361.9,92.3,352.3,105.3,354.1,114z"/>
		<path class="st2" d="M375.9,539.7c-5,0.2-14.7,8.2-6.5,19.6s27.8,12.3,40.1-2.3s21.6-29.4,24.6-48.3c1.9-11.7,3.5-41.8-8.7-24.8
		c-10.1,14.1-10.3,34.3-17.5,51c-5.3,12.5-13.1,18.7-20.6,17.2C381.7,551,385.7,539.4,375.9,539.7z"/>
		<path class="st2" d="M434.7,703.1c-17.8-3-29.4,40.5-40.6,67.5s-43.7,51.2-31.6,69.1c6.1,9.1,24.9-4.5,35-22
		c7-12.1,6.2-43.3,14.7-44.8s7.4,25.3,17.2,23.9c9.4-1.3,12.6-17.2,13-42.6S445,704.8,434.7,703.1z"/>
		<path class="st3" d="M549.3,101.8c2.9,11.6,18.9,5,25.9,2.3s13,5.7,29.9,4.2s31.6-19.9,33.1-30.6c2.5-17.1-6.2-25.8-22.5-18.1
		c-17,8-33.8,6-48.5,14.6C551.7,83.4,547.7,95.1,549.3,101.8z"/>
		<path class="st3" d="M595.6,252.3c-11,12.2,21.1,28.6,21.9,76.9c0.6,39-27.4,59.6-47.6,52.3c-17.5-6.3-29.2-0.2-24.5,18.6
		c4.3,17.4,21.4,38.4,41.1,36.1c36.6-4.2,55.4-58.7,52.7-98.1C635.9,291.2,606,240.9,595.6,252.3z"/>
		<path class="st3" d="M593.7,624.5c10.5-1.3,12.7,26.4,20.6,22.2s7.9-79.2,4.2-104.5s1-46.9,10.5-43.7s11.1,59.3,8.1,94.9
		c-2.3,26.9-11.1,58.6-9.9,78.4c0.9,15.3,16.3,33.8,10.8,43c-11.7,19.5-13.1-17.6-27.7-23.1c-14.8-5.6-40.6,7.3-43.8-8.1
		c-2.6-12.4,11.5-27.6,15.4-38.7C584.6,637,585.9,625.4,593.7,624.5z"/>
		<path class="st3" d="M629.2,983.6c-11.5,7.2-4.9-16.5-4.6-32.5c0.3-15-2.1-35.2-7.5-44.5c-5.9-10.2-14.6-10.8-25.3-7.7
		s-34.1,11.5-38.5,5s-1.1-31.3,12.9-43.5c13.7-11.9,29.8-21.5,47-20.3c9.3,0.6,18.2,11,22,25.3c4.2,15.7,0.5,59.3,0.5,70.9
		S638.9,977.6,629.2,983.6z"/>
		<path class="st1" d="M781.7,56.8c-0.2,8.5,17.1,2.5,26.7,9.8c7.9,6,10.2,22.9,17.1,22.7c5.1-0.1-3.7-28.6-10.9-35.2
		C802.5,43,781.9,45.5,781.7,56.8z"/>
		<path class="st1" d="M739.1,217.2c-9.1-3.1-19.4,13.4-22.5,27.4c-3.6,16,5.9,29.6,16.3,30.3c10.8,0.7,13-13.2,12-24.5
		C743.8,237.9,751.7,221.6,739.1,217.2z"/>
		<path class="st1" d="M818.1,669.1c3.9,8.4,17.8,14.4,25.5,7.9s12.9-21.6,19.7-16.2c10.4,8.1-4.7,38.7-27.7,45.8
		c-15.6,4.8-25.5-10.8-42.5-11.8c-16.5-1-28.7-8.8-23.6-19.1c6.4-12.8,26.7-30,36.7-28.4S815,662.5,818.1,669.1z"/>
		<path class="st1" d="M844.1,771.4c8.6,5.2,11.4,66.3,16.9,81.5c14.5,40.1,15.3,90.8,14.8,102.4c-0.5,11.7-8.9,37-21,34.7
		c-15.6-2.9-11.9-45.2-7.5-62.1s6.8-29.6-1.9-38.5c-9.6-9.8-24.6-2.9-22.8,22.4c0.9,12.6,23.5,82.5-2.6,82.8
		c-17.4,0.2-40.5-37.4-32.4-67.3c7.7-28.6,34.6-39.8,41.3-73C837.8,810.5,824.7,759.7,844.1,771.4z"/>
		<path class="st4" d="M915,701.8c-5.4,6.9,19.7,13,22.9,31.4c1.6,9.2-2.9,17.5-0.5,26c3.1,11.3,17.3,9.4,26.4,0.6
		c9.7-9.4,5.1-29.9-2-39.4C948.9,703.2,921.3,693.6,915,701.8z"/>
		<path class="st4" d="M1052.7,266.7c12.6-2.1,10.8,77,13,119.2c2.4,47.9,22.2,195.9,0.1,200.8c-20.8,4.6-27.8-61.7-26.9-116.3
		c0.6-36,8-94.3,6-134.3C1043.5,309.4,1041.3,268.7,1052.7,266.7z"/>
		<path class="st4" d="M1089.2,872.7c-4.8,27.1,19.9,85.2,1.9,91.5c-26.7,9.4-38.4-59.7-23.5-101.3c9.3-25.8,15-40.3,17.3-58.5
		c3.5-27.9,10.3-59,35.1-42.3c21.2,14.2,22.6,31,70,71.2c19.2,16.3,19.7,65.1,3.4,74.3s-23.5-25.4-27.5-58.7
		C1159.7,797.7,1100.3,809.8,1089.2,872.7z"/>
		<path class="st4" d="M1002.6,159.4c-10.9,8.1,9,17.8,21.5,21.5c10,3,26,7.6,35.6,1.6c17-10.6,13.1-31.6,13.8-59.8
		c0.5-19.6,5.3-50.5-8.2-50.5c-12.2,0-15.9,27.5-11.6,56.3c3.8,25.5,6.4,37-6.2,38.7C1030.9,169.7,1013.7,151.2,1002.6,159.4z"/>
	</g>
	<path class="st5" d="M1.5,301.5c23.9-7.5,67.4-36.5,94.9-68.4c31.6-36.7,27.6-71.5,31.4-80.6c4.6-11,16.6-13.8,47.2-13.1
	s39.3,1.4,43.5,14.4c3,9.5,5.5,26.8,10.5,42.1c5.3,16.3,14.2,31.3,16.3,45.9c2.1,14.6-2.8,50.9-3.6,62c-0.6,8.6-1.3,27.8-1.7,35.7
	c-0.1,1.6-1.4,2.9-3,2.8c-0.2,0-0.3,0-0.5-0.1c-8.4-1.7-27.8-6.8-59.1-7.9c-39.5-1.4-58.5,1.3-66.9,3.6
	c-11.8,3.3-10.5,12.2,1.3,12.7c12.1,0.5,34-2.7,58.7-2.2c29.2,0.6,48.6,5,59.5,7.9c11.6,3.1,11.7,13.4-1.2,11.8
	c-10.9-1.4-28-7-61.4-6.6s-51.6,1.3-57,3.3c-11.3,4.1-11,10.5,1.1,12.8c8.6,1.6,54.2-3.2,70.1-1.2c14.1,1.8,21.8,9,22.5,23.4
	c0.8,17,0.6,61.9-3.7,83.1c-2.4,11.9-6,22.8-29.9,22.4s-25.4-10.7-27.8-23.2c-3.8-20.1-2.5-67.5-1-80.3c1.3-11.2,6.7-11.6,13.3-12.2
	c6.3-0.6,18.8-0.4,28.1,1.6c6.2,1.4,8.5,4.5,9,9.4c0.5,4.8-2.3,8.8-7.6,9.8c-14,2.7-72.5-0.6-72.5-0.6c-1.7,0-3,1.3-3,3
	c0,0,0,0,0,0.1c0.4,15.1,7.8,96.4,8.4,157c0.6,68.7-10.5,140.1-5.2,152.2c2.7,6.2,8.2,18.9,55,21.7c25.8,1.5,40.7-7.7,47.3-13.3
	c1.3-1.1,3.1-1,4.2,0.3c0.4,0.4,0.6,1,0.7,1.6l2.5,18.5c0.2,1.4-0.6,2.7-1.9,3.2c-6.8,2.7-19.7,10-50.7,10
	c-34.9,0-49.1-11.1-59.3-15.3c-1.5-0.6-3.2,0.1-3.8,1.6c-0.1,0.3-0.2,0.7-0.2,1c-0.3,7.4-1.3,14.7-2.9,21.9c-2,7.5-4.7,14.9-8,21.9
	c-0.6,1.4-0.1,3.1,1.2,3.8c7.9,4.5,34.6,15.9,70.6,16.8c34.5,0.9,55.5-9.9,63.8-13.9c1.5-0.7,3.3-0.1,4,1.4c0.1,0.3,0.2,0.6,0.3,0.9
	l2.1,14.7c0.2,1.4-0.6,2.8-2,3.3c-9.2,3.1-26.9,13.4-70,12.6s-58.5-13.7-69.3-18c-1.5-0.6-3.3,0.1-3.9,1.7c-0.1,0.3-0.2,0.5-0.2,0.8
	c-0.6,5.9-3.8,25.5,2.5,42.7c9.1,24.6,30.7,35.3,72.3,34.9c33.9-0.3,46.1-8.8,56.7-13.5c1.5-0.7,3.3,0,4,1.5c0.3,0.7,0.3,1.5,0,2.3
	c0,0-4.2,11.1-9.4,15.6s-12.3,9.5-43.3,11.3c-39.1,2.2-52.1-5.3-59.7-8.3c-1.5-0.6-3.3,0.2-3.9,1.7c-0.1,0.3-0.2,0.7-0.2,1
	c0,0,4,25.5,5,38.8c1,12.5-0.2,41.9-0.2,41.9c0.1,1.6,1.4,2.8,3,2.8h100.7c1.7,0,3-1.3,3-3c0-0.2,0-0.3,0-0.5
	c-1.1-7.7-4.2-33.1-0.4-55.6c4.5-26.3,19.6-38.4,23.8-76.4c4.1-37.2-0.2-51.9-6-82.4c-4.3-23-7.9-33.5-10.9-55.6
	c-3.7-27.2-7-106.8-6.2-123.8c0.1-1.7-1.2-3.1-2.9-3.1h-0.1c0,0-15.7-4.5-22-0.8c-3.1,1.8-6.3,11-10,11.1s1.9-12.7-1.8-12.7
	c-3.4-0.1-4.8,14.7-8.9,13c-5.5-2.3,5.4-20.2,0.3-21.8c-7.3-2.2-2,16.8-9.5,11.8c-8.8-5.9-0.5,10.4-6.4,9.7
	c-3.5-0.4-3.2-14.2-8.1-14.7c-6.7-0.6,5.3,13.8-0.1,15.9c-4.1,1.6-4.8-12.1-10.2-10.5c-4.5,1.4-1.5,12.3,5.3,18.6
	c4.3,4,12.9,5.6,20.9,5.6s14.2-1,14-5.2c-0.2-4.9-9.9-5.4-16.5-0.8c-4.2,3-6.6,9,2.4,12.2c7.3,2.7,76.2,17.8,124.5-40.3
	c35.3-42.5,45.2-110.9,56.2-224.9c3.5-36.4,14.2-72.6,38.3-71.5c12.7,0.6,21.5,10.5,20.7,26.5c-0.7,15.2-8.5,26.5-21.2,26
	c-14.5-0.5-32.4-19.5-42-104.5c-4.1-36.1-1.9-102.2,1.1-116.4c3-14.4,25.7-18.2,48.3-17.9c27,0.4,59.1,3.9,61.8,20.1
	c2.3,13.9-35.9,8.8-59.5,8.5c-27-0.4-37.8-3.3-37.8-8.6s12.9-10.2,43.6-9.3c26,0.8,42.9,5.1,45.3,22.1c2.8,20.1,4.3,567.6-0.7,636.9
	c-1.9,25.7-10.6,47.2-24.8,62.7s-41.2,33.3-49,26.8s22.2-67.8,33.2-77.1c15-12.6,13.7,13.2,21.6,6.1c15-13.5,10.2-179.9-9.7-188.5
	c-10.7-4.6-20.9,44.1-31.2,52.6c-13.7,11.3-30-5.3-31.9-51.5c-1.3-31.1,2.3-57,8.2-61.6c12-9.3,14.2,29.1,28.5,26.4
	c13.2-2.5,26.5-23.2,29.3-30.5c15.7-41.7,17.3-75.1,4.7-63.8c-9.8,8.8-18.4,36.4-32.6,46.4c-11,7.7-24-20.6-26.5-46.3
	c-4.8-48.7,1.2-80.3,6.5-82.9s3.6,14.6,19.4,13s35.2-25.5,40.1-94.9c6-84.4-9.5-90.7-21.9-79.2c-9,8.4-30.3,19.1-19.1-17.9
	c7.3-24.1,13.1-38.9,27.1-37c15.7,2.1,6.7,59.1,49.7,42.7C544,186.7,583.4,125,589.3,114.1c19.4-35.4-0.8-34.2-8.7-30.6
	c-7.7,3.5-12.8,9.2-13.2,16.3s11.1,9.4,22.3,7c18.3-4,37.1-14.9,38.8-26.2c2.2-15-58.4-20.4-69.6,11.4c-3.7,10.4,0,150.4-2,158.3
	c-2.4,9.3-11.2,24.3-11.5,81.7c-0.3,52.8,15.8,97.8,43.9,97.4c15.5-0.2,46-25.9,44.7-107.2c-0.9-58.8-24.4-83.4-48.4-81.8
	c-9.5,0.6-22.3,17.3-22,38.9c0.3,26.5,17.4,71.9,40.5,67.1c12.2-2.5,17.1-42.4-7.2-45.9c-13.9-2-28.5,18-15.6,55.9
	c5.5,16,45.6,66.6,47,120.5s2.7,127.3,2.7,152.9s-16,39.3-20.7,39.2c-11.8-0.2-0.5-18.5-0.5-18.5s-15.5,18.9-21.6,16.7
	c-6.9-2.5,9.2-17.2,9.2-17.2c-4.5,0.7-8.6,2.7-11.8,5.9c-6.6,6.1-8.2,12.4-13.8,12s-4.9-9.7,1.4-11.2c4.3-1,8,10,6.3,16.8
	s-13.6,15-9.8,18s8.9-7.7,13.1-7.5s-2.6,6.5,1.4,6.5s4.9-7.2,8.4-8s-4,8.4,1.5,8.2s4.4-6.5,9.7-8s-0.5,6.1,6.1,8
	c6.5,1.9,8.2-4.4,14.3-0.9s6.8-10.9,7.2,12.3s1.6,81,1.2,85.3s0.1,11.7-8.2,7c-7-4-14.8-6.8-34.4-7c-15.4-0.1-32.7,4.1-40.4,6.8
	c-1.6,0.6-3.3-0.3-3.8-1.8c-0.1-0.3-0.2-0.7-0.2-1c0,0,0.5-160.3,2.1-219.2c0.3-12.5,0.3-24.1,5-24.2s5.3,9.1,5.4,23.2
	c0.5,75.5-2.8,285.5-2.8,285.5s7.2-15.9,35.5-15.1c17.5,0.5,24.2,5,26.3,12.1c2.8,9.1-4.7,18.4-12,20.9c-13.6,4.7-17.1-3.1-17.5-9.4
	c-0.5-9.5,7.4-12.6,9.5-10.4c5.3,5.3-1.8,20.1-22.1,20.2c-8.2,0-6.1-9.1,0-8.5s3.1,8.3,1.2,11.6c-3,5.2-15.2,13.8-8.3,13.5
	c5.3-0.2,5.2-7,9.8-7.4c5.2-0.4-4.6,6.8,1.5,6.5c5-0.3,3.5-5.8,8.8-6.3c6.7-0.7-5.5,7,1.5,6.5c4.4-0.3,3.3-6.9,8.8-7
	c3.1-0.1-3.3,7.3,0.7,7c4.8-0.5,4.4-6.7,9.3-6.7s5.5,20.1-5.2,22.5c-8.3,1.8-14-4.1-22.6-5.4c-10.2-1.7-27.1,1.8-28.6,24.8
	c-0.4,6.2-0.4,33.4-0.4,42.5c0,1.7,1.3,3,3,3l73.8-0.4c1.7,0,3-1.3,3-3v-0.1c0,0-1.1-42.2-1.7-58.4c-0.2-6.6-2.3-32.5,3.2-32.8
	c6-0.3,5.7,18.7,5.9,25.1c0.5,14.7,1.7,54.6,2,65.7c0,1.6,1.4,2.9,3,2.8l0,0c18.1-0.5,104-5.1,123.4-0.5c18.6,4.4,22.6,16,32.6,21.3
	c12.3,6.6,26.6,0.7,27-14.2c0.3-11.1-8.4-19.6-21-17.9c-16,2.3-14.5,19.7-37.2,24.3c-8.8,1.8-25.8,1.3-33.5,1
	c-1.7-0.1-2.9-1.5-2.9-3.1c0-0.3,0.1-0.5,0.1-0.8c2.3-7.2,6.7-23.9,5-41.9c-2.6-26.3-11.7-44.8-11.7-44.8s12.8-21.9,15.7-59.6
	c3.1-41.3-5.4-67.3-5.4-67.3s22.4-24.4,26.4-45.9c3.9-21-2.3-35.8-10.2-36c-10.2-0.3-11.9,14.9-8.4,31.9
	c3.3,16.4,10.8,39.3,12.3,55.4c4.2,44.8-6.9,80.5-5.6,95c1.1,12.1,10.9,17.8,23.5,19c13.9,1.4,27.8,1.6,41.8,0.4
	c14.9-1.4,17.7-10,18.6-19.8c1.9-19.6-0.2-48.7-0.5-71.3c-0.1-11.2,0.4-19.3,4.7-19.5c3.8-0.2,4,8,4.5,29c0.6,25.7,1.3,65,1,75.1
	c-0.3,12.7-4.8,16.6-12.3,19.8c-11.4,4.9-25.4,9-34.1,16.1c-9.4,7.6-8.9,20.9-4.2,26.2c7.8,8.8,21.9,6.2,27.5-3.2
	c7.7-12.9-5.3-29.6-11-42.4c-6.3-14.2-11.2-29.2-4.4-44.3c5.3-11.8,17-17.5,18.8-34.2c1-9.7-3.2-20.2-16.8-20.4
	s-20.6,11.5-18.3,22.2c3.5,16.3,18.4,17.6,24.4,37.4c5.1,16.9-3.2,23-14.5,21.2c-8.4-1.3-13.4-8.8-10.7-21.8
	c1.7-8.2,0.5-17.3-7.9-19.6c-8.6-2.4-17.6,1.3-18.3,11.5s4.4,18.8,18,15.6c14.2-3.4,19.6,1.5,29.8,1.5c9.8,0,15.3-2,23.1-7.9
	c12.2-9.2,25.6-10,33.7,3.5c7.6,12.6-10.7,41.6-15.7,71.7c-5.6,33.6,3.2,55.1,10.1,55c7.7-0.2,16.9-14,13.4-43
	c-4.1-33.7-19-48.2-21.4-77.6c-3-37.7,1.5-272.5,2.3-304.8c0-1.5-0.9-2.9-2.4-3.4c-9.1-3.1-15.5-5.3-45.9-5.8
	c-22.7-0.4-36.7,4.7-43.9,5.6c-1.6,0.2-3.1-0.9-3.3-2.4l-3.5-18.9c-0.3-1.8,0.7-3.5,2.4-4.1c10.2-3.4,33.4-5.9,47.2-5.9
	c25.1,0,42.9,3.7,49.7,5.4c1.6,0.4,3.2-0.6,3.6-2.2V531c1.7-9.1,6.2-36.4,6.3-62c0-25-0.5-55.4-5.1-80.6c-4-22-7.5-44.1-7.7-48.5
	c0-0.7-0.3-1.3-0.7-1.8c-2.9-3.5-20.3-12.8-48.5-13.1c-35.7-0.3-46.6,10.6-46.6,10.6l3-24.9c0.1-2.6,1-3.9,3.2-4.7
	c9.8-3.6,21.2-6.4,40-6.2c32.2,0.3,37.5,8.5,48.2,12.5c0.5,0.2,1.1-0.1,1.3-0.6c0-0.1,0.1-0.2,0.1-0.4c-0.6-10.5-4.2-70.5-4.7-103.2
	c-0.5-36-19.1-129.2-23.3-139.8s-9.8-23.9-25.7-24.4s-23.8,5-28.7,20.2c-2.3,7.2-7.2,23.7-4,30.4c3.3,7.1,16.6,7.7,33.9,7.3
	c17.7-0.4,36.4-3.4,36.6-14.5c0.2-9.6-4.9-26.8-13.1-39.1c-6.2-9.4-15.3-13.7-25.4-13.5c-15.8,0.2-24.5,3.3-31,14.8
	c-5.5,9.8-9.2,20.4-11,42.1c-1.3,15.6-4.3,44.8-4.7,79.9c-0.4,35.7,0.8,73.5-2.1,87.4c-2,9.3-6.2,9.6-15.8,9.9
	c-10.7,0.4-17.3-2.6-15.4-17.4c2.5-19,17-18.6,46.6-14.8c34.7,4.4,52.8,7.2,60.8,7.5c8.9,0.2,14.5-2.6,14.7-15.4
	c0.2-13.6-1-34.6-2.3-44.2c-1.7-11.5-7.3-14.4-15.8-15.3c-13.2-1.2-26.6-1.3-39.8-0.4c-11.6,1-18.2,1.9-19.6,20.9
	c-1.7,22.4-1,46.6-4.6,75.9c-2.6,21.4-7.3,38.4-12.1,78c-2.6,21.2-10.6,57.9-9.4,112.5c0.5,21.7,6.1,76.8,11.2,104.6
	c4.7,25,1.3,67.8,2.5,84.2c1.7,23.9,16.6,21.8,27.9,22c10.5,0.2,30.2,0.3,32-7.9c1.6-7.2-6.3-8.8-10.2-6.8
	c-13.9,7.1-12.5,34.9-25.5,36.2c-7.7,0.8-6.3-8.7,0.2-8.5s7.2,10.6,12.6,8.5c7.3-2.9,5.5-8.8,9.9-10c6.1-1.7-3,9.4,3.3,8.8
	s4.7-7.6,10.1-9.5s-3.9,11.1,3,9.2s5.8-8.4,9.5-9.9c5.8-2.3-0.2,7.8,4.7,10.9c4.1,2.6,9.9,9.3-0.4,13c-21.6,7.6-36.1-7.2-45.6-1.3
	c-5.8,3.6-8.1,32.2-2.8,36.7c11.8,10.1,53.4,7,95-7.5c56.1-19.5,98.7-17,93.8,16.7c-2.2,15.1-19.2,12.4-24.9,4.2
	c-5.2-7.5-4.6-19.3,3.5-19.6c13.4-0.5,41.4,17.9,54.2,98.5c4.2,26.4-2,35.5-7.9,37.9c-6.5,2.6-15.2-4.6-18.1-19.5
	c-2.2-11.4-1.5-30,4.2-32c11.6-4.1,18.1,43.1,20.2,56.2c6.1,39.5,0.1,44.2-4.8,44.9s-11.5-3.6-15.2-13.4c-4.4-11.6-2.5-25.5,4-26.8
	c9-1.8,14.5,18.7,16.7,35.3s8.4,48.2-7.9,55.6c-8.5,3.8-17.1-4.3-18.3-16.8s0.6-21.8,5.5-23.5c5.4-1.9,13.9,4.4,14.7,25.6
	c0.5,13.4,0.7,30.8-27.3,24.7c-12.9-2.8-15.2-13.2-15.8-19.5c-4.2-44.4-2.7-164-2.6-169.3c0.2-8.9,4.9-16.7,12.7-18.8
	c8.1-2.1,18-8.1,19.2-24.8c1.5-20-10.9-31.5-19.2-35.4s-13.7-8.5-14.6-20c-2.2-27.4-2.2-103.8,0.4-108.9s7-0.2,10.4-4.3
	s-4.3-21.3,1.6-31.6c6.2-10.7,32.6-8.2,45.5-4.3c8.3,2.5,8.1,10.6-1.2,11.2c-6.7,0.4-26.8-3.8-32.5,2.2c-4.2,4.4-3.6,13.4-0.8,20.7
	c3.4,9.1,12.9,23.4,30.2,22.3c8.5-0.6,14.8-7.6,12.9-17.9c-1.7-9.2-7.1-11.2-13.2-11.5c-13.3-0.7-23.8,5.5-32.4,21
	s-9.2,32.9-4.4,45.3c4.5,11.7,16.9,28,33.4,27.1c10.4-0.5,14.6-8.4,14.6-15.8s-4.2-14.1-14.4-14.3c-12.9-0.3-20.7,6.8-26.9,17
	c-7.4,12.1-10.7,27.5-5.5,35.1c7.6,11,25.4,9.2,35.3,7.5c7-1.2,13.2-6.3,13-11.7c-0.2-5.1-6.5-7.8-12-3.2c-5,4.1-11.6,22-3.4,46.2
	c10.6,31.6,42.8,49.5,51.8,36.8c8.8-12.5,2.6-54.7,0.6-69.8s-4.2-33.6,1.5-34.7c5.8-1.1,5.5,16.9,7.1,37.6
	c1.7,22.1,8.8,59.6,6.3,101.8s-10.5,104.2-6.5,136.3s15.6,43.8,23,42.5c11.6-2.1,16.5-16.4,15-35s-6.1-32.9-20.8-45.1
	s-29.4-27.8-28.8-62.4c0.5-26.2,22.7-58.6,47.3-48.8c16.1,6.4,20,25.1,22.2,42.5c1.9,15.2-0.8,37-12.2,40.5
	c-11.1,3.3-22.6-15.2-23.7-41.8c-1.1-26.4,10.4-38.8,5-80.4c-4.2-32.2-15.4-38.9-17.7-58.9c-1.7-15.1,4.6-19.5,12.1-19.5
	s15,7.2,15.6,19.1c0.5,9.6-7.7,14.5-14.1,10c-9.5-6.8-2.5-36.1-4.5-77.8c-1.9-39.7-21.1-311.4-23-337.5c-0.1-1.2-0.9-2.3-2.1-2.6
	c-4.4-1.3-8.9-2.2-13.5-2.5c-5.3-0.2-10.7,0-16,0.6c-1.6,0.2-3.1-1-3.3-2.6l-1.9-16.8c-0.2-1.6,0.9-3.1,2.5-3.3
	c5.6-0.9,11.3-1.3,17-1.1c4.9,0.3,9.8,1.2,14.5,2.7c1.6,0.5,3.3-0.4,3.7-2c0-0.1,0.1-0.2,0.1-0.3c2.1-10.9,9.9-47.1,8.2-100.5
	c-1.5-48.2-3.6-81.3-4.3-99.9c-0.7-17.8-1-34.7-4-40.5c-4.4-8.7-10.7-7.7-20.1,2.5c-7.9,8.6-30,50.3-33.3,67.2
	c-2.5,12.6,2.9,14.5,11.7,13.7c7.9-0.7,41.2-7.1,51.8-9.1c1.6-0.3,3.2,0.7,3.5,2.4c0,0.1,0,0.2,0,0.3c0.5,6.5,1.6,21.9,2.2,40.4
	c0.7,22.3,1.2,39,1.3,45.7c0,1.7-1.3,3-2.9,3.1c-0.1,0-0.2,0-0.3,0c-10.4-0.7-44.5-2.3-53.9-9.2c-8.3-6-7.7-27.3-2.2-33.6
	c8.5-9.7,28-9.5,35.4-5.4c7.9,4.4,7.2,51.7-0.8,55.3c-9.9,4.6-26.3-4-42.6-5.9c-14.3-1.7-25.3-9.9-25.3-28.9s4.5-23,10.1-22.8
	c5.9,0.2,10.3,12.1,10.5,22.9c0.3,17.2-10.5,26.4-18,26.1c-9.6-0.4-12.4-13.2-14.7-23.5c-2.6-11.6-1.3-21.5,4.8-23.2
	c5-1.4,12.8,6.9,14,21.8s-7.4,22.1-21.1,24.8c-10.6,2.1-22.3,2.6-25.9-8.3c-3.3-9.9,6.2-15.3,15.3-10.1s8.7,19,16.6,24.3
	c6.5,4.4,16.1,2.4,16.1,2.4s12.9,18.5,20,75.6c10.7,86.2,7.8,156.5,4.4,203.5c-2.9,40.3-3.1,68.2,4.1,69.6
	c6.5,1.3,10.6-20.9,14.4-45.3c3.7-23.1,5.9-64.7,5.9-64.7s-0.1,158.2,6.7,192.2c3.1,15.4,12.8,20.1,19.4,15.5
	c6.2-4.4,10.2-19.2-4.4-28.3c-14.2-8.8-25.3,1.1-25.3,17.2s9.9,23.5,22.8,24.8c25.1,2.5,47.6-3.5,54.9-9.3s5.7-16.7-0.3-20.3
	s-13.2,0.6-14.6,10.8c-2.3,16.6,8.1,50,14.3,70.8c6,20.2,13.2,50.7,5.9,52.6c-11.8,3.2-8.5-41.4-15.9-42.8c-9-1.6-5.8,26.2,0.5,47.2
	c8.2,27,24.4,42.6,39.4,50.8c29.8,16.2,53.4,8.8,63.6,41.9c4.7,15.1,5.1,44.8-2.7,48.4s-20.4-9.4-25.7-38.2
	c-6.4-49.2,16.3-93.8,47.3-111.1"/>
</svg>
