<svg id="Layer_1" data-name="Layer 1"
    xmlns="http://www.w3.org/2000/svg" viewBox="0 0 1239.7 996.1">
    <defs>
        <style>.cls-1{fill:#e6b5b5;}.cls-2{fill:#b99adb;}.cls-3{fill:#97ccc3;}.cls-4{fill:#dfddd5;}.cls-5{fill:#cfb72f;}.cls-6{fill:none;stroke:#140e1b;stroke-linecap:round;stroke-linejoin:round;stroke-width:3px;}</style>
    </defs>
    <g id="colour">
        <path class="cls-1" d="M186.28,157.85c-18.4-.88-35.55-5-35.54-11.61,0-11,32.51-10.48,39.43-10.83s28.39-1.73,35,23.54,20.44,49.08,18.51,88.41c-1,19.76-23.55,17.13-29.2,6.4-5.56-10.54-10-26.3-8-49.74C208.91,174.6,205.34,158.73,186.28,157.85Z" transform="translate(0 -0.06)"/>
        <path class="cls-1" d="M156,413.73c-8.37-.34-10.33-17.06-6.44-26.12S181.41,369,192.86,374s14.32,34.35,15,62.62-2.45,50.55-11.45,50.81-5.42-29-5.42-39.71.62-27-7.46-32.57C174.25,408.73,162.91,414,156,413.73Z" transform="translate(0 -0.06)"/>
        <path class="cls-2" d="M808.41,351.18c-8.17-1.88-39.68-1.12-35.79-15s68.65-17.29,82.77-1.32c17.41,19.69,10.7,84.52,8,105.91-5.42,42.55-12.16,68.5-19.82,63.76-10.4-6.44,8.13-55,6.4-102.67C848.45,360.78,819.91,353.83,808.41,351.18Z" transform="translate(0 -0.06)"/>
        <path class="cls-1" d="M179.84,577.43c6.91-9.19,23.3-21.23,28.18-4.77,2.52,8.5-7.93,24.31-6.78,35.61,1.58,15.44-4.18,29.16-14.65,29.16-12.79,0-18.9-16.54-28.84-24.12-9.29-7.09-22.07-9.45-24-17.12-2.48-10,9.33-14.55,23.35-12C165.32,585.63,173.33,586.09,179.84,577.43Z" transform="translate(0 -0.06)"/>
        <path class="cls-1" d="M218.48,702.82c-20.26,3.8-8,49.42.87,77.15,11.11,34.67,9.09,83.92,3.84,103.34s-13.7,35.23-12.37,70c.62,16,5.49,36,14.18,28.83,12.77-10.55,4.16-43.42,11.75-73.75,3.61-14.44,23.5-51.56,19.58-80.93s-12.11-48.63-16-66.25S233.42,700,218.48,702.82Z" transform="translate(0 -0.06)"/>
        <path class="cls-3" d="M394.65,246.87c14.91,22,22.19,27.58,23.6,67.36.57,16-.23,51.32-20,68.47-5.41,4.69-25.64-6.76-29.32,6.17-3.9,13.67,19.11,17.67,30.19,16.75,15.25-1.27,32-27.14,39.25-93,3.47-31.72-2.72-85.37-14-87.81S386.67,235.09,394.65,246.87Z" transform="translate(0 -0.06)"/>
        <path class="cls-3" d="M354.13,114c1.9,9.13,10.79,14,32.07,17.78,18.36,3.29,34.29-1.87,47.63,5.08,10.09,5.27,16.64,15.56,23.49,13,8.58-3.17,10-14.79,5.08-28.26-7.18-19.77-32-23.72-59.38-26C361.91,92.27,352.32,105.35,354.13,114Z" transform="translate(0 -0.06)"/>
        <path class="cls-3" d="M375.91,539.73c-5,.18-14.65,8.21-6.45,19.63s27.83,12.3,40.13-2.34,21.58-29.39,24.63-48.35c1.88-11.65,3.53-41.85-8.65-24.75-10.07,14.14-10.35,34.28-17.49,51-5.33,12.46-13.14,18.65-20.57,17.23C381.71,551,385.69,539.39,375.91,539.73Z" transform="translate(0 -0.06)"/>
        <path class="cls-3" d="M434.73,703.07c-17.77-3-29.41,40.48-40.56,67.54s-43.66,51.17-31.64,69.12c6.08,9.08,24.87-4.46,35-22,7-12.12,6.2-43.29,14.66-44.76s7.36,25.27,17.21,23.89c9.36-1.32,12.6-17.25,13-42.62S445,704.82,434.73,703.07Z" transform="translate(0 -0.06)"/>
        <path class="cls-4" d="M549.33,101.78c2.89,11.63,18.94,5,25.92,2.33s13,5.68,29.9,4.17,31.58-19.94,33.14-30.55c2.51-17.12-6.16-25.79-22.5-18.15-17,8-33.76,6-48.52,14.63C551.66,83.36,547.67,95.11,549.33,101.78Z" transform="translate(0 -0.06)"/>
        <path class="cls-4" d="M595.59,252.34c-11,12.15,21.12,28.63,21.9,76.94.63,39-27.42,59.59-47.58,52.34-17.54-6.32-29.19-.19-24.49,18.59,4.35,17.43,21.41,38.39,41.11,36.12,36.61-4.21,55.43-58.71,52.66-98.11C635.91,291.24,606,240.88,595.59,252.34Z" transform="translate(0 -0.06)"/>
        <path class="cls-4" d="M593.72,624.47c10.49-1.26,12.67,26.39,20.58,22.17s7.92-79.18,4.23-104.51,1-46.93,10.48-43.74,11.1,59.26,8.08,94.88c-2.27,26.9-11.07,58.6-9.87,78.42.94,15.34,16.31,33.76,10.77,43-11.74,19.52-13.08-17.57-27.72-23.11-14.8-5.59-40.58,7.34-43.76-8.12C564,671,578,655.86,581.91,644.73,584.63,637,585.91,625.41,593.72,624.47Z" transform="translate(0 -0.06)"/>
        <path class="cls-4" d="M629.2,983.57c-11.55,7.15-5-16.49-4.62-32.55.31-15-2.12-35.23-7.49-44.47-5.89-10.15-14.63-10.76-25.3-7.7s-34.11,11.55-38.51,5-1.12-31.26,12.93-43.46c13.65-11.86,29.77-21.49,47-20.35,9.35.61,18.23,11,22,25.3,4.15,15.72.48,59.35.48,70.9S638.91,977.57,629.2,983.57Z" transform="translate(0 -0.06)"/>
        <path class="cls-2" d="M781.67,56.79c-.17,8.47,17.12,2.54,26.67,9.79,7.87,6,10.21,22.88,17.12,22.72,5.07-.12-3.65-28.64-10.87-35.23C802.48,43,781.91,45.49,781.67,56.79Z" transform="translate(0 -0.06)"/>
        <path class="cls-2" d="M739.13,217.25c-9.12-3.14-19.39,13.4-22.52,27.37-3.6,16,5.89,29.59,16.28,30.26,10.83.69,13-13.19,12-24.45C743.83,237.86,751.68,221.56,739.13,217.25Z" transform="translate(0 -0.06)"/>
        <path class="cls-2" d="M818.05,669.14c3.9,8.38,17.77,14.37,25.51,7.92s12.86-21.59,19.7-16.25c10.41,8.12-4.7,38.73-27.7,45.77-15.63,4.78-25.53-10.76-42.52-11.8-16.5-1-28.7-8.83-23.6-19.08,6.36-12.8,26.66-30,36.67-28.38S815,662.54,818.05,669.14Z" transform="translate(0 -0.06)"/>
        <path class="cls-2" d="M844.09,771.38c8.64,5.19,11.4,66.27,16.93,81.54,14.51,40.08,15.28,90.76,14.76,102.43s-8.87,37-21,34.73c-15.62-3-11.93-45.24-7.46-62.14s6.8-29.57-1.89-38.46c-9.56-9.77-24.56-2.93-22.79,22.36.88,12.59,23.53,82.48-2.64,82.79-17.4.21-40.46-37.42-32.39-67.26,7.74-28.62,34.61-39.78,41.31-73C837.79,810.52,824.73,759.73,844.09,771.38Z" transform="translate(0 -0.06)"/>
        <path class="cls-5" d="M915,701.8c-5.38,6.93,19.7,13,22.88,31.4,1.59,9.2-2.86,17.47-.53,26,3.09,11.28,17.26,9.39,26.36.58,9.73-9.42,5.13-29.88-2-39.38C948.91,703.19,921.35,693.65,915,701.8Z" transform="translate(0 -0.06)"/>
        <path class="cls-5" d="M1052.67,266.73c12.58-2.15,10.83,77,13,119.24,2.41,47.9,22.19,195.88.13,200.78C1045,591.37,1038,525,1038.9,470.42c.59-36,8-94.3,6-134.26C1043.52,309.37,1041.28,268.73,1052.67,266.73Z" transform="translate(0 -0.06)"/>
        <path class="cls-5" d="M1089.22,872.73c-4.77,27.1,19.92,85.22,1.93,91.53-26.66,9.36-38.44-59.74-23.52-101.35,9.26-25.81,15-40.34,17.27-58.49,3.54-27.87,10.28-59,35.13-42.33,21.25,14.23,22.58,31,70,71.19,19.19,16.29,19.68,65.13,3.42,74.27s-23.5-25.44-27.51-58.7C1159.74,797.73,1100.3,809.83,1089.22,872.73Z" transform="translate(0 -0.06)"/>
        <path class="cls-5" d="M1002.61,159.44c-10.92,8.15,9,17.76,21.47,21.52,10,3,26,7.56,35.56,1.64,17-10.6,13.09-31.64,13.83-59.76.51-19.65,5.32-50.48-8.16-50.48-12.16,0-15.86,27.49-11.55,56.35,3.82,25.54,6.43,37-6.22,38.71C1030.91,169.73,1013.67,151.19,1002.61,159.44Z" transform="translate(0 -0.06)"/>
    </g>
    <path class="cls-6" d="M1.5,301.47C25.39,294,69,265,96.43,233.06c31.64-36.71,27.59-71.49,31.43-80.64,4.6-11,16.61-13.77,47.23-13.06s39.34,1.37,43.5,14.37c3,9.49,5.51,26.78,10.48,42.13,5.29,16.33,14.18,31.34,16.32,45.94s-2.85,50.93-3.56,62c-.56,8.65-1.34,27.8-1.65,35.68a2.93,2.93,0,0,1-3,2.82l-.48-.06c-8.38-1.72-27.82-6.75-59.07-7.87-39.54-1.43-58.54,1.28-66.91,3.65-11.77,3.31-10.48,12.21,1.3,12.71,12.11.49,34-2.72,58.67-2.23,29.2.59,48.6,5,59.54,7.93,11.6,3.12,11.7,13.39-1.19,11.77-10.86-1.38-28-7-61.44-6.63s-51.57,1.26-57,3.26c-11.31,4.12-11,10.53,1.15,12.78,8.63,1.6,54.25-3.21,70.08-1.21,14.12,1.78,21.84,9,22.5,23.44.77,17,.62,61.86-3.73,83.09-2.44,11.93-6.05,22.8-29.91,22.44s-25.42-10.71-27.78-23.15c-3.81-20.07-2.53-67.48-1-80.3,1.3-11.22,6.72-11.6,13.29-12.22,6.27-.58,18.79-.44,28.11,1.64,6.16,1.37,8.51,4.49,9,9.42.49,4.76-2.32,8.8-7.64,9.81-14,2.68-72.47-.62-72.47-.62a3,3,0,0,0-3,3V413c.38,15.15,7.82,96.4,8.36,157.05.61,68.71-10.49,140.11-5.19,152.25,2.72,6.25,8.16,18.92,55,21.74,25.75,1.55,40.69-7.69,47.3-13.34a3,3,0,0,1,4.23.3,2.94,2.94,0,0,1,.71,1.56L222.09,751a3,3,0,0,1-1.86,3.19c-6.8,2.7-19.66,10-50.73,10-34.9,0-49.1-11.14-59.31-15.34a2.93,2.93,0,0,0-4,2.56,118.86,118.86,0,0,1-2.92,21.9,133.59,133.59,0,0,1-8,21.91,3,3,0,0,0,1.22,3.83C104.29,803.54,131,815,167,815.92c34.52.91,55.53-9.89,63.83-13.9a3,3,0,0,1,4,1.4,2.8,2.8,0,0,1,.27.88L237.23,819a3,3,0,0,1-2,3.26c-9.16,3.14-26.86,13.39-70,12.56s-58.49-13.73-69.33-18A3,3,0,0,0,92,818.46a2.83,2.83,0,0,0-.2.81c-.56,5.9-3.81,25.47,2.53,42.67,9.07,24.62,30.74,35.29,72.3,34.88,33.94-.33,46.09-8.76,56.65-13.55a3,3,0,0,1,4,1.55,3,3,0,0,1,0,2.28s-4.18,11.09-9.38,15.63S205.63,912.25,174.6,914c-39.1,2.25-52.09-5.3-59.67-8.28a3,3,0,0,0-3.89,1.7,3.15,3.15,0,0,0-.2,1s4,25.49,5,38.84c1,12.48-.19,41.95-.19,41.95a3,3,0,0,0,3,2.79H219.38a3,3,0,0,0,3-3,3.55,3.55,0,0,0,0-.46c-1.12-7.74-4.24-33.14-.37-55.56,4.54-26.33,19.63-38.4,23.83-76.44,4.11-37.18-.22-51.94-6-82.38-4.33-23-7.91-33.5-10.88-55.63-3.66-27.2-7-106.75-6.2-123.81a3,3,0,0,0-2.87-3.13h-.13s-15.74-4.45-22-.79c-3.13,1.83-6.35,11-10,11.08s1.92-12.68-1.77-12.74c-3.39-.06-4.83,14.7-8.87,13-5.47-2.32,5.43-20.21.34-21.78-7.33-2.25-2,16.83-9.54,11.84-8.83-5.88-.49,10.36-6.38,9.7-3.53-.4-3.15-14.25-8.07-14.69-6.72-.59,5.27,13.81-.1,15.89-4.09,1.58-4.83-12.11-10.16-10.46-4.5,1.4-1.5,12.29,5.31,18.6,4.33,4,12.91,5.58,20.93,5.58s14.18-1,14-5.2c-.22-4.92-9.91-5.44-16.5-.76-4.19,3-6.56,9,2.4,12.24,7.31,2.68,76.2,17.78,124.53-40.29C329.27,540.47,339.12,472,350.1,358.07c3.51-36.42,14.21-72.6,38.31-71.48,12.7.59,21.46,10.45,20.73,26.52-.69,15.23-8.51,26.47-21.21,26-14.47-.49-32.41-19.53-42-104.47-4.08-36.09-1.86-102.24,1.08-116.35,3-14.35,25.68-18.22,48.34-17.91,27,.37,59.08,3.89,61.77,20.15,2.3,13.89-35.92,8.8-59.55,8.46-27-.38-37.83-3.26-37.83-8.56s12.91-10.23,43.62-9.27c26,.82,42.91,5,45.31,22.08,2.81,20.06,4.35,567.57-.74,636.92-1.88,25.67-10.61,47.2-24.85,62.74s-41.24,33.31-49,26.84,22.17-67.82,33.24-77.14c15-12.59,13.67,13.24,21.63,6.09,15-13.46,10.17-179.89-9.73-188.54-10.67-4.64-20.9,44.09-31.24,52.6-13.69,11.26-30-5.32-31.92-51.47-1.29-31.08,2.29-57,8.19-61.57,12-9.29,14.18,29.12,28.47,26.43C406,563.65,419.25,543,422,535.69c15.65-41.74,17.28-75.13,4.72-63.77-9.8,8.81-18.41,36.41-32.59,46.35-11,7.74-24-20.62-26.53-46.33-4.79-48.71,1.16-80.29,6.52-82.94s3.56,14.63,19.37,13.05,35.19-25.49,40.1-94.89c6-84.36-9.55-90.73-21.88-79.19-9,8.42-30.29,19.08-19.1-17.9,7.28-24.08,13.14-38.86,27.12-37,15.69,2.07,6.69,59.06,49.69,42.73,74.92-28.46,114.28-90.25,120.23-101.14,19.36-35.37-.82-34.18-8.72-30.55-7.66,3.53-12.78,9.23-13.24,16.34s11.09,9.45,22.34,7c18.31-4,37.13-14.9,38.75-26.19,2.16-15-58.39-20.37-69.59,11.44-3.66,10.41,0,150.44-2,158.29-2.38,9.3-11.15,24.25-11.52,81.71-.34,52.77,15.8,97.8,43.94,97.43,15.47-.2,45.95-25.85,44.69-107.17-.91-58.82-24.44-83.35-48.4-81.8-9.5.61-22.29,17.27-22,38.85.29,26.48,17.43,71.85,40.48,67.15,12.16-2.49,17.14-42.36-7.23-45.87-13.88-2-28.49,18-15.57,55.87,5.45,16,45.62,66.65,47,120.54s2.69,127.31,2.69,152.91-16,39.27-20.7,39.2c-11.8-.17-.47-18.48-.47-18.48S594.6,670.22,588.51,668c-6.93-2.49,9.25-17.15,9.25-17.15a21.65,21.65,0,0,0-11.85,5.85c-6.58,6.07-8.15,12.43-13.76,12s-4.88-9.72,1.4-11.22c4.26-1,8,10,6.32,16.84s-13.57,15-9.83,18,8.89-7.72,13.1-7.49-2.57,6.55,1.4,6.55,4.92-7.25,8.42-8-4,8.42,1.49,8.18,4.36-6.54,9.74-8-.47,6.08,6.08,8,8.19-4.44,14.27-.93,6.76-10.88,7.15,12.3,1.62,81,1.23,85.3.06,11.71-8.18,7c-7-4-14.75-6.85-34.39-7-15.42-.09-32.71,4.08-40.39,6.76a3,3,0,0,1-4-2.86s.48-160.28,2.09-219.17c.35-12.53.26-24.07,5-24.22S558.4,558,558.5,572c.53,75.49-2.85,285.47-2.85,285.47s7.21-15.91,35.45-15.12c17.46.48,24.17,5,26.31,12.09,2.75,9.07-4.71,18.39-12,20.9-13.56,4.71-17.12-3.1-17.46-9.42-.52-9.5,7.4-12.56,9.53-10.4,5.26,5.33-1.81,20.08-22.06,20.23-8.15.05-6.08-9.12,0-8.51s3.14,8.27,1.17,11.57c-3,5.15-15.23,13.77-8.27,13.48,5.35-.21,5.23-7,9.84-7.39,5.2-.43-4.63,6.83,1.5,6.47,5-.29,3.46-5.83,8.77-6.35,6.73-.67-5.53,7,1.51,6.53,4.38-.29,3.29-6.86,8.81-7,3.12-.06-3.28,7.35.7,7,4.79-.45,4.43-6.71,9.34-6.71s5.49,20.09-5.23,22.47c-8.3,1.83-14-4.06-22.55-5.44-10.2-1.65-27.1,1.83-28.6,24.83-.39,6.16-.42,33.38-.42,42.53a3,3,0,0,0,3,3l73.8-.38a3,3,0,0,0,3-3v-.1s-1.12-42.18-1.67-58.4c-.23-6.64-2.35-32.52,3.21-32.85,6-.35,5.65,18.67,5.89,25.12.54,14.7,1.71,54.64,2,65.72a2.89,2.89,0,0,0,3,2.81h0c18.13-.48,104-5.09,123.41-.51,18.58,4.39,22.55,16,32.56,21.31,12.34,6.58,26.59.74,27-14.21.32-11.08-8.43-19.64-21-17.86-16,2.26-14.54,19.7-37.17,24.35-8.75,1.8-25.75,1.34-33.5,1a3,3,0,0,1-2.85-3.14,2.9,2.9,0,0,1,.14-.78c2.3-7.19,6.72-23.91,5-41.94-2.57-26.29-11.68-44.85-11.68-44.85s12.84-21.92,15.71-59.64c3.14-41.32-5.39-67.3-5.39-67.3s22.38-24.38,26.37-45.93c3.88-21-2.3-35.75-10.18-36-10.22-.32-11.86,14.89-8.43,31.86,3.32,16.4,10.78,39.3,12.29,55.41,4.21,44.77-6.86,80.54-5.59,95,1.06,12.1,10.9,17.8,23.49,19a226.57,226.57,0,0,0,41.75.43c14.89-1.44,17.69-10,18.61-19.78,1.87-19.63-.25-48.72-.5-71.27-.12-11.2.43-19.28,4.66-19.47,3.85-.16,4,8,4.49,29,.6,25.7,1.31,65,1,75.09-.33,12.68-4.83,16.61-12.33,19.84-11.42,4.92-25.38,9-34.08,16.06-9.37,7.62-8.92,20.92-4.22,26.23,7.84,8.84,21.9,6.2,27.5-3.15,7.73-12.88-5.27-29.58-11-42.44-6.35-14.21-11.17-29.24-4.42-44.33,5.28-11.79,17-17.45,18.82-34.21,1-9.71-3.17-20.21-16.85-20.41s-20.56,11.51-18.3,22.17c3.48,16.35,18.39,17.63,24.41,37.36,5.13,16.86-3.24,23-14.52,21.22C791,878,786,870.53,788.76,857.47c1.74-8.2.46-17.28-7.91-19.64-8.55-2.4-17.63,1.29-18.34,11.52s4.39,18.82,18,15.57c14.25-3.39,19.64,1.5,29.8,1.5,9.79,0,15.3-2,23.12-7.89,12.2-9.15,25.63-9.95,33.74,3.53,7.58,12.6-10.65,41.62-15.66,71.69-5.6,33.59,3.16,55.12,10.14,55,7.66-.16,16.94-14,13.39-43-4.12-33.67-19-48.25-21.39-77.59-3-37.69,1.5-272.49,2.29-304.82a3.51,3.51,0,0,0-2.38-3.41c-9.14-3.11-15.5-5.35-45.88-5.85-22.66-.37-36.66,4.66-43.91,5.6a3,3,0,0,1-3.35-2.42l-3.51-18.89a3.7,3.7,0,0,1,2.41-4.07c10.2-3.41,33.42-5.87,47.16-5.87,25.07,0,42.91,3.7,49.7,5.37a3,3,0,0,0,3.61-2.22l0-.13c1.67-9.12,6.25-36.45,6.28-62,0-25-.53-55.35-5.11-80.61-4-22-7.54-44.15-7.68-48.5a3,3,0,0,0-.7-1.83c-2.94-3.47-20.27-12.82-48.46-13.07-35.69-.32-46.59,10.59-46.59,10.59l3-24.94c.11-2.64,1-3.91,3.19-4.7,9.77-3.56,21.21-6.39,40-6.24,32.19.26,37.49,8.46,48.19,12.46a1,1,0,0,0,1.27-.63.92.92,0,0,0,0-.37c-.63-10.55-4.18-70.47-4.66-103.23-.53-36-19.06-129.19-23.3-139.77S815,44.38,799.15,43.85s-23.78,5-28.69,20.18c-2.35,7.24-7.15,23.69-4,30.35,3.32,7.07,16.64,7.69,33.9,7.27,17.68-.42,36.39-3.41,36.62-14.51.2-9.61-4.9-26.83-13.12-39.14-6.24-9.36-15.3-13.66-25.37-13.52-15.81.21-24.54,3.32-31,14.76-5.5,9.76-9.15,20.39-11,42.14-1.35,15.63-4.28,44.84-4.74,79.94-.45,35.68.82,73.52-2.11,87.36-2,9.31-6.15,9.59-15.85,9.94-10.7.39-17.32-2.58-15.39-17.35,2.48-19,17-18.56,46.59-14.82,34.67,4.38,52.8,7.25,60.76,7.46,8.88.23,14.53-2.58,14.72-15.44.2-13.65-1-34.57-2.34-44.2-1.67-11.53-7.28-14.43-15.81-15.33a254.38,254.38,0,0,0-39.81-.39c-11.59,1-18.17,1.91-19.64,20.94-1.73,22.42-1,46.57-4.55,75.91-2.6,21.38-7.26,38.35-12.09,78-2.58,21.2-10.64,57.89-9.42,112.51.48,21.71,6.05,76.81,11.24,104.59,4.66,25,1.33,67.79,2.46,84.25,1.65,23.9,16.61,21.76,27.86,22,10.48.2,30.19.35,32-7.87,1.55-7.22-6.28-8.82-10.16-6.83-13.87,7.12-12.54,34.89-25.47,36.18-7.72.77-6.28-8.68.18-8.49s7.2,10.58,12.56,8.49c7.34-2.87,5.51-8.8,9.89-10,6.06-1.7-3,9.4,3.27,8.85s4.73-7.64,10.1-9.54-3.92,11.11,3,9.23,5.76-8.4,9.49-9.88c5.82-2.3-.25,7.76,4.73,10.91,4.08,2.59,9.94,9.34-.36,13-21.64,7.63-36.13-7.16-45.62-1.27-5.79,3.59-8.1,32.15-2.77,36.74,11.78,10.13,53.42,7,95-7.49,56.14-19.53,98.72-17,93.76,16.67-2.23,15.11-19.17,12.38-24.91,4.15-5.23-7.51-4.59-19.27,3.53-19.57,13.44-.49,41.4,17.91,54.22,98.48,4.2,26.38-2,35.51-7.86,37.87-6.54,2.61-15.23-4.59-18.14-19.46-2.23-11.44-1.48-29.95,4.21-32,11.59-4.13,18.13,43.11,20.16,56.19,6.13,39.52.06,44.19-4.81,44.92s-11.52-3.64-15.19-13.39c-4.38-11.64-2.48-25.52,4-26.81,9-1.8,14.47,18.69,16.66,35.26s8.45,48.22-7.88,55.57c-8.49,3.82-17.06-4.33-18.28-16.76s.61-21.81,5.49-23.52c5.45-1.9,13.88,4.36,14.7,25.58.51,13.4.69,30.82-27.26,24.74-12.93-2.81-15.25-13.24-15.84-19.49-4.18-44.4-2.65-164-2.55-169.35.17-8.91,4.88-16.73,12.74-18.77C969,767,979,761,980.21,744.3c1.49-20-10.92-31.48-19.2-35.37s-13.65-8.5-14.57-20c-2.22-27.44-2.25-103.81.44-108.93s7-.17,10.37-4.31-4.31-21.31,1.62-31.56c6.2-10.73,32.63-8.21,45.53-4.32,8.29,2.5,8.09,10.61-1.15,11.15-6.7.39-26.83-3.82-32.49,2.17-4.15,4.4-3.56,13.42-.85,20.65,3.41,9.07,12.92,23.4,30.19,22.28,8.51-.56,14.8-7.63,12.9-17.93-1.71-9.22-7.11-11.18-13.21-11.49-13.28-.66-23.77,5.46-32.39,21s-9.17,32.87-4.44,45.27c4.47,11.73,16.86,28,33.44,27.06,10.38-.55,14.64-8.44,14.64-15.75s-4.21-14.12-14.38-14.33c-12.88-.26-20.69,6.85-26.9,17C962.35,659,959,674.34,964.3,682c7.56,11,25.43,9.25,35.35,7.55,7-1.19,13.15-6.34,13-11.67-.16-5.12-6.46-7.78-12-3.19-5,4.12-11.55,22-3.45,46.24,10.57,31.6,42.79,49.47,51.77,36.75,8.82-12.5,2.59-54.68.58-69.75s-4.18-33.61,1.46-34.7c5.81-1.13,5.5,16.88,7.08,37.61,1.69,22.07,8.83,59.63,6.32,101.82s-10.5,104.17-6.5,136.31,15.61,43.85,23,42.49c11.56-2.12,16.46-16.44,15-35s-6.11-32.91-20.75-45.12-29.45-27.81-28.78-62.41c.52-26.15,22.72-58.64,47.35-48.82,16.09,6.42,20,25.09,22.17,42.53,1.9,15.15-.77,37-12.23,40.49-11.07,3.35-22.62-15.23-23.72-41.83-1.09-26.44,10.4-38.83,5-80.37-4.17-32.18-15.41-38.92-17.65-58.86-1.7-15.1,4.59-19.49,12.12-19.49s15,7.2,15.57,19.09c.47,9.58-7.68,14.52-14.06,10-9.51-6.79-2.51-36.08-4.52-77.77-1.91-39.68-21.12-311.41-23-337.52a3,3,0,0,0-2.13-2.65,60.12,60.12,0,0,0-13.49-2.51,111,111,0,0,0-16,.57,3,3,0,0,1-3.28-2.64l-1.93-16.79a3,3,0,0,1,2.51-3.31,88.75,88.75,0,0,1,17-1.07,61.28,61.28,0,0,1,14.52,2.69,3,3,0,0,0,3.74-2c0-.1.06-.2.08-.3,2.08-10.94,9.9-47.12,8.21-100.5-1.53-48.17-3.56-81.35-4.28-99.87-.69-17.81-1-34.68-4-40.52-4.42-8.71-10.67-7.72-20.06,2.49-7.91,8.62-30,50.27-33.28,67.2-2.47,12.65,3,14.52,11.66,13.71,7.88-.74,41.18-7.1,51.82-9.15A3,3,0,0,1,1068,84.1a1.88,1.88,0,0,1,0,.33c.51,6.51,1.6,21.88,2.19,40.39.7,22.32,1.17,39,1.35,45.72a3,3,0,0,1-2.92,3.08h-.29c-10.42-.73-44.46-2.34-53.88-9.21-8.26-6-7.71-27.27-2.2-33.58,8.47-9.71,28-9.52,35.37-5.43,7.88,4.41,7.25,51.65-.75,55.34-9.88,4.56-26.34-4-42.64-5.94C990,173.06,979,164.92,979,145.88s4.47-23,10.14-22.76c5.87.19,10.26,12.11,10.47,22.87.33,17.22-10.47,26.44-18,26.1-9.55-.44-12.41-13.21-14.69-23.51-2.58-11.65-1.26-21.49,4.81-23.19,5-1.39,12.79,6.9,14,21.8s-7.42,22.12-21.06,24.76c-10.62,2.06-22.32,2.55-25.92-8.26-3.29-9.87,6.15-15.29,15.3-10.06s8.72,19,16.62,24.33c6.53,4.41,16.06,2.4,16.06,2.4s12.9,18.49,20,75.6c10.67,86.24,7.85,156.46,4.42,203.45-2.94,40.35-3.14,68.18,4.12,69.63,6.51,1.31,10.56-20.93,14.45-45.28,3.69-23.14,5.87-64.68,5.87-64.68s-.09,158.19,6.68,192.2c3.06,15.37,12.84,20.14,19.42,15.51,6.21-4.37,10.25-19.23-4.38-28.32-14.2-8.82-25.31,1.09-25.31,17.23s9.89,23.52,22.8,24.82c25.09,2.53,47.56-3.48,54.89-9.29s5.66-16.73-.32-20.31-13.21.62-14.62,10.75c-2.3,16.56,8.14,50,14.3,70.79,6,20.22,13.15,50.68,5.87,52.63-11.78,3.16-8.48-41.44-15.9-42.75-9-1.59-5.82,26.24.51,47.22,8.15,27,24.41,42.62,39.45,50.8,29.77,16.2,53.37,8.76,63.64,41.86,4.69,15.14,5.08,44.8-2.69,48.38s-20.41-9.38-25.69-38.24c-7.47-57.7,25-109,64-117.45" transform="translate(0 -0.06)"/>
</svg>