<svg xmlns="http://www.w3.org/2000/svg" viewBox="0 0 110 132.5">
  <defs>
    <style>
      .cls-1 {
        fill: #B99ADB;
      }

      .cls-2 {
        fill: none;
        stroke: #140E1B;
        stroke-linecap: round;
        stroke-miterlimit: 10;
        stroke-width: 3px;
      }
    </style>
  </defs>
  <g id="Layer_2" data-name="Layer 2">
    <g id="Layer_1-2" data-name="Layer 1">
      <g>
        <path class="cls-1" d="M0,66.3C0,13.9,11.6,0,55,0s55,13.9,55,66.3-11.6,66.2-55,66.2S0,118.6,0,66.3"/>
        <path class="cls-2" d="M64,63.6c-6.8,3.1-14.8,1.4-16.3-4s4.4-10.9,14.8-10.9c11.9,0,16.4,8.4,16.4,13.6,0,8.1-5.9,16.2-25.3,16.2-14,0-24.1-9.6-22.3-21.7,1.5-9.4,10.2-15.2,20.9-23C59.6,28.5,63,23.1,63,14.9c0-5.4-2.7-12-9.5-11.4s-8.8,6-8.1,13.3c.9,10.3,9.1,21.3,12.8,34.7,3,10.8,4.4,17.5,4.4,27s-3.4,17.2-10.2,18c-5.1.5-10.8-4-8.6-8.9"/>
        <g>
          <path d="M29.4,100.6h1.8l6.7,19.8H35.7l-2-5.8H26.8l-1.9,5.8H22.7Zm3.9,12.1-3-9.2-3.1,9.2Z"/>
          <path d="M45.8,120.7a4.7,4.7,0,0,1-2.6-.8,6.7,6.7,0,0,1-1.9-2.2v2.7H39.5V100h2.1v8.7a7.1,7.1,0,0,1,1.9-2.3,4.5,4.5,0,0,1,2.6-.8,4,4,0,0,1,2.2.6,4.6,4.6,0,0,1,1.7,1.7,6.6,6.6,0,0,1,1.1,2.4,9.7,9.7,0,0,1,.4,2.9,9.2,9.2,0,0,1-.4,2.9,9,9,0,0,1-1.2,2.4,7,7,0,0,1-1.9,1.6A4.3,4.3,0,0,1,45.8,120.7Zm-.5-2.1a3,3,0,0,0,1.6-.5,3.7,3.7,0,0,0,1.3-1.2,4.6,4.6,0,0,0,.9-1.7,6.4,6.4,0,0,0,.3-2,7.6,7.6,0,0,0-.3-2.1,5.3,5.3,0,0,0-.8-1.7,4.6,4.6,0,0,0-1.2-1.2,3.4,3.4,0,0,0-1.7-.5,2.7,2.7,0,0,0-1.2.3l-1.1.7-.9,1.1-.6,1.3v4.2a2.9,2.9,0,0,0,.5,1.3,3.1,3.1,0,0,0,.9,1.1,3.9,3.9,0,0,0,1.1.6A2.7,2.7,0,0,0,45.3,118.6Z"/>
          <path d="M59,120.7a5.4,5.4,0,0,1-2.5-.6,7.4,7.4,0,0,1-1.9-1.6,8.3,8.3,0,0,1-1.2-2.5,8.7,8.7,0,0,1-.5-2.8,9.9,9.9,0,0,1,.5-3,9,9,0,0,1,1.2-2.4,6.2,6.2,0,0,1,2-1.6,4.8,4.8,0,0,1,2.4-.6,5.1,5.1,0,0,1,2.5.6,6.2,6.2,0,0,1,2,1.6,9,9,0,0,1,1.2,2.4,9.9,9.9,0,0,1,.5,3,8.7,8.7,0,0,1-.5,2.8,8.3,8.3,0,0,1-1.2,2.5,7.8,7.8,0,0,1-2,1.6A5.1,5.1,0,0,1,59,120.7Zm-4-7.5a6.6,6.6,0,0,0,.3,2.1,4.6,4.6,0,0,0,.9,1.7,3.7,3.7,0,0,0,1.3,1.2,2.8,2.8,0,0,0,1.5.4,2.9,2.9,0,0,0,1.6-.4,4.9,4.9,0,0,0,1.3-1.2,5.6,5.6,0,0,0,.9-1.7,7.8,7.8,0,0,0,.3-2.2,7.6,7.6,0,0,0-.3-2.1,5.6,5.6,0,0,0-.9-1.7,4.9,4.9,0,0,0-1.3-1.2,2.9,2.9,0,0,0-1.6-.4,2.8,2.8,0,0,0-1.5.4,3.7,3.7,0,0,0-1.3,1.2,5.6,5.6,0,0,0-.9,1.7A7.8,7.8,0,0,0,55,113.2Z"/>
          <path d="M71.1,120.7a3.3,3.3,0,0,1-2.9-1.5,9.4,9.4,0,0,1-.9-4.6v-8.8h2v8.3c0,3,.9,4.5,2.6,4.5a3.2,3.2,0,0,0,2.3-1,5.4,5.4,0,0,0,1.7-2.6v-9.2h2v11.6c0,.6.2.9.7.9v2.1h-1a1.3,1.3,0,0,1-1-.4,2.1,2.1,0,0,1-.4-1.1v-1.7a6.7,6.7,0,0,1-2.2,2.5A5,5,0,0,1,71.1,120.7Z"/>
          <path d="M87.3,119.7l-.4.3-.7.3-.9.2h-.9a2.5,2.5,0,0,1-1.9-.7,2.9,2.9,0,0,1-.9-2.3v-9.8H80v-2h1.6V101h2.1v4.8h2.7v2H83.7v9a1.7,1.7,0,0,0,.4,1.2,1.8,1.8,0,0,0,1,.4,2.3,2.3,0,0,0,1.1-.3l.7-.3Z"/>
        </g>
      </g>
    </g>
  </g>
</svg>
