<svg xmlns="http://www.w3.org/2000/svg" viewBox="0 0 110 132.5">
  <defs>
    <style>
      .cls-1 {
        fill: #97CCC3;
      }

      .cls-2 {
        fill: none;
        stroke: #140E1B;
        stroke-linecap: round;
        stroke-linejoin: round;
        stroke-width: 3px;
      }
    </style>
  </defs>
  <g id="Layer_2" data-name="Layer 2">
    <g id="Layer_1-2" data-name="Layer 1">
      <g>
        <path class="cls-1" d="M0,66.3C0,13.9,11.5,0,55,0s55,13.9,55,66.3-11.6,66.2-55,66.2S0,118.6,0,66.3"/>
        <g id="Layer_2-2" data-name="Layer 2">
          <g id="Layer_1-2-2" data-name="Layer 1-2">
            <line class="cls-2" x1="29.9" y1="24.7" x2="80.1" y2="75.3"/>
            <line class="cls-2" x1="80.3" y1="24.9" x2="29.7" y2="75.1"/>
          </g>
        </g>
        <g>
          <path d="M25.5,110.4a14.9,14.9,0,0,1,.5-3.6,10.7,10.7,0,0,1,1.6-3.2,8.8,8.8,0,0,1,2.4-2.3,6.4,6.4,0,0,1,3.4-.9,5.8,5.8,0,0,1,3.8,1.3,7.2,7.2,0,0,1,2.3,3.1l-1.7,1.3a4.8,4.8,0,0,0-.8-1.6l-1.2-1.1-1.3-.5-1.2-.2a4.3,4.3,0,0,0-2.5.7,5.8,5.8,0,0,0-1.7,1.8,7.1,7.1,0,0,0-1.1,2.5,8.6,8.6,0,0,0-.4,2.8,10.5,10.5,0,0,0,.5,3,6.4,6.4,0,0,0,1.2,2.5,5.8,5.8,0,0,0,1.8,1.7,4.3,4.3,0,0,0,2.2.6,3.4,3.4,0,0,0,1.4-.2,3.8,3.8,0,0,0,1.3-.6,6,6,0,0,0,1.2-1.1,7.6,7.6,0,0,0,.9-1.6l1.7,1.2a7.8,7.8,0,0,1-1.1,2,10.7,10.7,0,0,1-1.6,1.4,6.6,6.6,0,0,1-1.9.9,6.9,6.9,0,0,1-2,.3,5.9,5.9,0,0,1-3.1-.9,10.4,10.4,0,0,1-2.4-2.3,12.6,12.6,0,0,1-1.6-3.3A11.9,11.9,0,0,1,25.5,110.4Z"/>
          <path d="M41.9,100h2v16.7a1.6,1.6,0,0,0,.4,1.2,1.2,1.2,0,0,0,1,.5h.6l.6-.2.4,1.9-1.2.5H44.4a1.9,1.9,0,0,1-1.8-.8,3.1,3.1,0,0,1-.7-2.2Z"/>
          <path d="M53.5,120.7a5.1,5.1,0,0,1-2.5-.6,6,6,0,0,1-1.9-1.6,6.6,6.6,0,0,1-1.3-2.5,8.6,8.6,0,0,1-.4-2.8,9.9,9.9,0,0,1,.4-3,9.2,9.2,0,0,1,1.3-2.4,5.8,5.8,0,0,1,1.9-1.6,5.5,5.5,0,0,1,5,0,5.8,5.8,0,0,1,1.9,1.6,7,7,0,0,1,1.3,2.4,9.9,9.9,0,0,1,.4,3,8.6,8.6,0,0,1-.4,2.8,6.6,6.6,0,0,1-1.3,2.5,7.4,7.4,0,0,1-1.9,1.6A5.4,5.4,0,0,1,53.5,120.7Zm-4-7.5a6.7,6.7,0,0,0,1.1,3.8,4.9,4.9,0,0,0,1.3,1.2,2.9,2.9,0,0,0,1.6.4,3.2,3.2,0,0,0,1.6-.4,4.6,4.6,0,0,0,1.2-1.2,5.6,5.6,0,0,0,.9-1.7,7.8,7.8,0,0,0,.3-2.2,7.6,7.6,0,0,0-.3-2.1,5.6,5.6,0,0,0-.9-1.7,4.6,4.6,0,0,0-1.2-1.2,3.2,3.2,0,0,0-1.6-.4,2.9,2.9,0,0,0-1.6.4,4.9,4.9,0,0,0-1.3,1.2,8.9,8.9,0,0,0-.8,1.7A7.8,7.8,0,0,0,49.5,113.2Z"/>
          <path d="M66.1,120.7a9.3,9.3,0,0,1-2.9-.5,6.7,6.7,0,0,1-2.4-1.6l.8-1.7a8.6,8.6,0,0,0,2.2,1.5,5.4,5.4,0,0,0,2.2.5,3.3,3.3,0,0,0,2.1-.6,1.9,1.9,0,0,0,.8-1.8c0-.4,0-.7-.2-.9a1.3,1.3,0,0,0-.6-.7l-1.1-.5-1.5-.5-1.9-.6-1.3-.7a2.3,2.3,0,0,1-.7-1,3.3,3.3,0,0,1-.3-1.5,5.3,5.3,0,0,1,.4-1.9,4,4,0,0,1,1-1.5,5.3,5.3,0,0,1,1.5-.8,4.8,4.8,0,0,1,1.8-.3,5.1,5.1,0,0,1,2.5.5,6,6,0,0,1,2,1.4l-.9,1.5a3.8,3.8,0,0,0-1.7-1.2,4.5,4.5,0,0,0-2-.4,3.5,3.5,0,0,0-1.8.5,2,2,0,0,0-.8,1.9,1.9,1.9,0,0,0,.1.8l.5.6.9.4,1.3.5,2.1.7a5.3,5.3,0,0,1,1.5.8,3.1,3.1,0,0,1,.9,1.1,3.8,3.8,0,0,1,.3,1.6,4.1,4.1,0,0,1-1.3,3.2A5,5,0,0,1,66.1,120.7Z"/>
          <path d="M78.4,120.7a5.4,5.4,0,0,1-2.5-.6,6.2,6.2,0,0,1-2-1.6,9,9,0,0,1-1.2-2.4,9.9,9.9,0,0,1-.5-3,9.3,9.3,0,0,1,.5-2.9,7,7,0,0,1,1.3-2.4,5.8,5.8,0,0,1,1.9-1.6,5.4,5.4,0,0,1,2.5-.6,5.1,5.1,0,0,1,2.5.6,4.9,4.9,0,0,1,1.9,1.6,7,7,0,0,1,1.3,2.4,12.6,12.6,0,0,1,.4,2.8v.6a.6.6,0,0,1-.1.4h-10a6.5,6.5,0,0,0,.4,2,3.8,3.8,0,0,0,.9,1.5,4.1,4.1,0,0,0,1.3,1,2.4,2.4,0,0,0,1.5.4l1.1-.2,1-.5a6,6,0,0,0,.8-.8,3.1,3.1,0,0,0,.5-1l1.8.6a5.3,5.3,0,0,1-.8,1.5l-1.2,1.2a4.6,4.6,0,0,1-1.6.7A4.7,4.7,0,0,1,78.4,120.7Zm4.2-8.5a6.5,6.5,0,0,0-.5-2,3.8,3.8,0,0,0-.9-1.5,3.4,3.4,0,0,0-1.2-.9,2.9,2.9,0,0,0-1.6-.4,2.8,2.8,0,0,0-1.5.4,3.1,3.1,0,0,0-1.3,1l-.9,1.4a11.8,11.8,0,0,0-.4,2Z"/>
        </g>
      </g>
    </g>
  </g>
</svg>
