<svg xmlns="http://www.w3.org/2000/svg" viewBox="0 0 110 132.5">
  <defs>
    <style>
      .cls-1 {
        fill: #CFB72F;
      }

      .cls-2 {
        fill: none;
        stroke: #140E1B;
        stroke-linecap: round;
        stroke-linejoin: round;
        stroke-width: 3px;
      }
    </style>
  </defs>
  <g id="Layer_2" data-name="Layer 2">
    <g id="Layer_1-2" data-name="Layer 1">
      <g>
        <path class="cls-1" d="M0,66.3C0,13.9,11.6,0,55,0s55,13.9,55,66.3-11.6,66.2-55,66.2S0,118.6,0,66.3"/>
        <g id="Layer_2-2" data-name="Layer 2">
          <g id="Layer_1-2-2" data-name="Layer 1-2">
            <rect class="cls-2" x="22.5" y="24.8" width="65" height="50.5" rx="3"/>
            <path class="cls-2" d="M22.5,27.8,50.2,53a7.4,7.4,0,0,0,9.5,0L87.5,27.8"/>
            <line class="cls-2" x1="22.5" y1="70.3" x2="45.8" y2="49"/>
            <line class="cls-2" x1="87.5" y1="70.3" x2="64.2" y2="49"/>
          </g>
        </g>
        <g>
          <path d="M13.7,109.9a14.9,14.9,0,0,1,.5-3.6,14.8,14.8,0,0,1,1.5-3.1,6.8,6.8,0,0,1,2.5-2.3,6.3,6.3,0,0,1,3.3-.9,6,6,0,0,1,3.8,1.2,7.3,7.3,0,0,1,2.4,3.1L26,105.6a5.1,5.1,0,0,0-.9-1.6,5.2,5.2,0,0,0-1.1-1,3.1,3.1,0,0,0-1.3-.6H21.4a4,4,0,0,0-2.4.7,5.8,5.8,0,0,0-1.8,1.7,10.9,10.9,0,0,0-1,2.5,10.7,10.7,0,0,0,0,5.8,9.6,9.6,0,0,0,1.2,2.5,5.8,5.8,0,0,0,1.8,1.7,3.9,3.9,0,0,0,2.3.7l1.3-.2a4.2,4.2,0,0,0,1.4-.6,5.7,5.7,0,0,0,1.1-1.1,5.1,5.1,0,0,0,.9-1.6l1.8,1.1a9.5,9.5,0,0,1-1.1,2,7.5,7.5,0,0,1-1.6,1.5l-1.9.9a6.9,6.9,0,0,1-2,.3,5.6,5.6,0,0,1-3.1-.9,7.8,7.8,0,0,1-2.4-2.4,10.9,10.9,0,0,1-1.7-3.2A16.5,16.5,0,0,1,13.7,109.9Z"/>
          <path d="M35.3,120.3a5.1,5.1,0,0,1-2.5-.6,6.3,6.3,0,0,1-1.9-1.7,7,7,0,0,1-1.3-2.4,8.7,8.7,0,0,1,1.3-8.2,7.7,7.7,0,0,1,1.9-1.7,5.5,5.5,0,0,1,5,0,7.7,7.7,0,0,1,1.9,1.7,7,7,0,0,1,1.3,2.4,10.7,10.7,0,0,1,0,5.8,7,7,0,0,1-1.3,2.4,7.7,7.7,0,0,1-1.9,1.7A5.4,5.4,0,0,1,35.3,120.3Zm-4-7.6a7.8,7.8,0,0,0,.3,2.2,8.9,8.9,0,0,0,.8,1.7,4.5,4.5,0,0,0,1.3,1.1,3.4,3.4,0,0,0,3.2,0,6.3,6.3,0,0,0,1.3-1.1,7.5,7.5,0,0,0,.8-1.8,7.1,7.1,0,0,0,.3-2.1,6.6,6.6,0,0,0-.3-2.1,7.5,7.5,0,0,0-.8-1.8,6.3,6.3,0,0,0-1.3-1.1,3.4,3.4,0,0,0-3.2,0,4.9,4.9,0,0,0-1.3,1.2,6.7,6.7,0,0,0-.8,1.7A7.6,7.6,0,0,0,31.3,112.7Z"/>
          <path d="M54.2,120H52.1v-8.2a7.1,7.1,0,0,0-.6-3.4,2,2,0,0,0-1.8-1.1l-1.2.3-1.2.8-1,1.2a4.4,4.4,0,0,0-.6,1.6V120H43.6V105.4h1.9v3.1a7.2,7.2,0,0,1,2.1-2.5,5.2,5.2,0,0,1,2.9-.9,3.5,3.5,0,0,1,1.8.5,3.6,3.6,0,0,1,1.1,1.3,5.3,5.3,0,0,1,.6,1.9,19.5,19.5,0,0,1,.2,2.5Z"/>
          <path d="M63.2,119.3l-.5.2-.6.3-.9.3h-.9a3,3,0,0,1-2-.8,2.9,2.9,0,0,1-.8-2.3v-9.8H55.9v-1.9h1.6v-4.9h2.1v4.9h2.7v1.9H59.6v9.1a2.1,2.1,0,0,0,.4,1.2,1.7,1.7,0,0,0,1,.3l1.1-.2.6-.4Z"/>
          <path d="M68,120.3a2.9,2.9,0,0,1-1.6-.4,3,3,0,0,1-1.3-.9,4.6,4.6,0,0,1-.9-1.5,4.8,4.8,0,0,1-.3-1.8,3.4,3.4,0,0,1,.4-1.8,3.6,3.6,0,0,1,1-1.4,6.9,6.9,0,0,1,1.7-1,6.4,6.4,0,0,1,2-.3l1.8.2,1.6.5v-1.1a5,5,0,0,0-.8-2.9,3.3,3.3,0,0,0-2.4-1,6.6,6.6,0,0,0-3.9,1.7l-.6-1.6a7.6,7.6,0,0,1,4.7-1.9,4.4,4.4,0,0,1,3.7,1.6,6.2,6.2,0,0,1,1.4,4.3v6a.8.8,0,0,0,.6.9V120h-1a1,1,0,0,1-.9-.4,2.2,2.2,0,0,1-.5-1.1v-1a5.7,5.7,0,0,1-2.1,2A5.9,5.9,0,0,1,68,120.3Zm.5-1.9a3.5,3.5,0,0,0,2-.5,3.2,3.2,0,0,0,1.5-1.3,1.5,1.5,0,0,0,.4-1.1v-2.1a6.7,6.7,0,0,0-3.1-.7,3.6,3.6,0,0,0-2.5.8,3,3,0,0,0-.7,3.2,4.1,4.1,0,0,0,.5.9,2,2,0,0,0,.9.6Z"/>
          <path d="M76.6,112.7a9.9,9.9,0,0,1,.5-3,7.1,7.1,0,0,1,1.2-2.3,6.5,6.5,0,0,1,2-1.7,5.1,5.1,0,0,1,2.5-.6,4.8,4.8,0,0,1,3.1,1,5.2,5.2,0,0,1,2,2.6l-2,.7a3.4,3.4,0,0,0-1.3-1.6,3.2,3.2,0,0,0-1.9-.5,2.8,2.8,0,0,0-1.5.4,2.8,2.8,0,0,0-1.3,1.1,6.8,6.8,0,0,0-.9,1.7,7.8,7.8,0,0,0-.3,2.2,5.2,5.2,0,0,0,.4,2.1,7.5,7.5,0,0,0,.8,1.8,4.5,4.5,0,0,0,1.3,1.1,2.9,2.9,0,0,0,1.6.4h1l1-.5.7-.7a2,2,0,0,0,.5-.9l2,.7a5.5,5.5,0,0,1-.8,1.5,4.3,4.3,0,0,1-1.2,1.1,3.6,3.6,0,0,1-1.5.8,4.7,4.7,0,0,1-1.7.3,5.4,5.4,0,0,1-2.5-.6,6.3,6.3,0,0,1-1.9-1.7,7,7,0,0,1-1.3-2.4A9.3,9.3,0,0,1,76.6,112.7Z"/>
          <path d="M96.3,119.3l-.5.2-.7.3-.8.3h-.9a3,3,0,0,1-2-.8,2.9,2.9,0,0,1-.8-2.3v-9.8H89v-1.9h1.6v-4.9h2.1v4.9h2.7v1.9H92.7v9.1a1.6,1.6,0,0,0,.4,1.2,1.6,1.6,0,0,0,.9.3l1.1-.2.7-.4Z"/>
        </g>
      </g>
    </g>
  </g>
</svg>
