<svg xmlns="http://www.w3.org/2000/svg" viewBox="0 0 110 132.5">
  <defs>
    <style>
      .cls-1 {
        fill: #CFB72F;
      }

      .cls-2 {
        fill: none;
        stroke: #140E1B;
        stroke-linecap: round;
        stroke-linejoin: round;
        stroke-width: 3px;
      }
    </style>
  </defs>
  <g id="Layer_2" data-name="Layer 2">
    <g id="Layer_1-2" data-name="Layer 1">
      <g>
        <g>
          <path class="cls-1" d="M0,66.3C0,13.9,11.6,0,55,0s55,13.9,55,66.3-11.6,66.2-55,66.2S0,118.6,0,66.3"/>
          <g id="Layer_2-2" data-name="Layer 2">
            <g id="Layer_1-2-2" data-name="Layer 1-2">
              <rect class="cls-2" x="22.5" y="24.8" width="65" height="50.5" rx="3"/>
              <path class="cls-2" d="M22.5,27.8,50.2,53a7.4,7.4,0,0,0,9.5,0L87.5,27.8"/>
              <line class="cls-2" x1="22.5" y1="70.3" x2="45.8" y2="49"/>
              <line class="cls-2" x1="87.5" y1="70.3" x2="64.2" y2="49"/>
            </g>
          </g>
        </g>
        <g>
          <path d="M13.1,111.3c0-6.2,3.5-10.8,8.2-10.8a6.8,6.8,0,0,1,5.9,3.3l-1.4,1.9a5.3,5.3,0,0,0-4.4-2.5c-3.5,0-6.1,3.4-6.1,8.1s2.6,8,6.1,8a5.3,5.3,0,0,0,4.4-2.5l1.4,1.9a6.8,6.8,0,0,1-5.9,3.3C16.6,122,13.1,117.5,13.1,111.3Z"/>
          <path d="M27.9,113.8c0-4.7,2.6-8.1,6.1-8.1s6.1,3.4,6.1,8.1-2.6,8.1-6.1,8.1S27.9,118.6,27.9,113.8Zm10,0c0-3.4-1.6-5.6-3.9-5.6s-4,2.2-4,5.6,1.7,5.6,4,5.6S37.9,117.2,37.9,113.8Z"/>
          <path d="M53.6,112.6v9.2H51.4v-8.9c0-3.1-1.1-4.6-3.1-4.6s-3.8,1.8-3.8,5.3v8.2H42.4V105.9h2v2.4a4.6,4.6,0,0,1,4.3-2.6C51.5,105.7,53.6,107.9,53.6,112.6Z"/>
          <path d="M63.5,120.8a3.3,3.3,0,0,1-2.6,1.1c-2.4,0-3.7-1.7-3.7-4.9v-8.8h-2v-2.3h2v-3.5h2.1v3.5h3.4v2.3H59.3v8.6c0,1.8.7,2.7,1.9,2.7a2.4,2.4,0,0,0,1.6-.7Z"/>
          <path d="M74.7,112.2v9.6h-2v-2.1a4,4,0,0,1-3.8,2.2,4.3,4.3,0,0,1-4.4-4.6c0-2.6,1.2-4.7,4.7-4.7h3.4V112c0-2.4-1-3.8-3.1-3.8a5.4,5.4,0,0,0-3.8,1.7l-.9-2.1a6.5,6.5,0,0,1,4.9-2.1C72.9,105.7,74.7,107.8,74.7,112.2Zm-2.1,4.7v-2.2H69.3c-2.1,0-2.7,1.1-2.7,2.4a2.4,2.4,0,0,0,2.6,2.6A3.5,3.5,0,0,0,72.6,116.9Z"/>
          <path d="M77,113.8c0-4.7,2.6-8.1,6.2-8.1a5,5,0,0,1,4.8,3.4l-1.6,1.4a3.6,3.6,0,0,0-3.2-2.3c-2.3,0-4,2.2-4,5.6s1.7,5.6,4,5.6a3.4,3.4,0,0,0,3.2-2.3l1.6,1.4a5,5,0,0,1-4.8,3.4C79.6,121.9,77,118.6,77,113.8Z"/>
          <path d="M96.9,120.8a3.1,3.1,0,0,1-2.6,1.1c-2.3,0-3.7-1.7-3.7-4.9v-8.8h-2v-2.3h2v-3.5h2.2v3.5h3.3v2.3H92.8v8.6q0,2.7,1.8,2.7a2.8,2.8,0,0,0,1.7-.7Z"/>
        </g>
      </g>
    </g>
  </g>
</svg>
