<svg xmlns="http://www.w3.org/2000/svg" viewBox="0 0 110 132.5">
  <defs>
    <style>
      .cls-1 {
        fill: #dfddd5;
      }

      .cls-2 {
        fill: none;
        stroke: #140e1b;
        stroke-width: 3px;
      }
    </style>
  </defs>
  <g id="Layer_2" data-name="Layer 2">
    <g id="Layer_1-2" data-name="Layer 1">
      <g>
        <g>
          <path class="cls-1" d="M0,66.3C0,13.9,11.6,0,55,0s55,13.9,55,66.3-11.5,66.2-55,66.2S0,118.6,0,66.3"/>
          <g>
            <path class="cls-2" d="M52.8,10.7a3.3,3.3,0,0,1,4.4,0A124.4,124.4,0,0,0,75.7,25.4c6.4,3.9,15,9.2,24.1,13a1.1,1.1,0,0,1,.6,1.4c-.2.3-.5.6-.8.6C78.9,44.1,55,44.1,55,44.1s-23.8,0-44.6-3.7a1.1,1.1,0,0,1-.8-1.2.9.9,0,0,1,.6-.8c9-3.8,17.8-9.1,24.1-13A124.4,124.4,0,0,0,52.8,10.7Z"/>
            <path class="cls-2" d="M87.1,42.2c0,11.3,4.5,37.3-3.8,45-3,2.8-12.1,3-17.1,2.9A3.2,3.2,0,0,1,63,86.8v-.2l1.1-14a4.2,4.2,0,0,0-3.9-4.4H50a4.1,4.1,0,0,0-4.1,4.2v.3l1.1,14a3.3,3.3,0,0,1-3,3.5h-.2c-5,.1-14.1-.1-17.1-2.9-8.3-7.7-3.8-33.7-3.8-45"/>
            <rect class="cls-2" x="30.8" y="51.5" width="13.9" height="12.35" rx="2"/>
            <rect class="cls-2" x="65.3" y="51.5" width="13.9" height="12.35" rx="2"/>
          </g>
        </g>
        <g>
          <path d="M36.3,100.8v21H34.1v-9.3H25.2v9.3H23v-21h2.2v9.1h8.9v-9.1Z"/>
          <path d="M39,113.9c0-4.8,2.6-8.1,6.1-8.1s6.1,3.3,6.1,8.1-2.6,8.1-6.1,8.1S39,118.6,39,113.9Zm10,0c0-3.4-1.6-5.6-3.9-5.6s-4,2.2-4,5.6,1.7,5.6,4,5.6S49,117.3,49,113.9Z"/>
          <path d="M73,112.7v9.1H70.9V113c0-3.1-1.1-4.6-3-4.6s-3.6,1.8-3.6,5.2v8.2H62.2V113c0-3.1-1.1-4.6-3-4.6s-3.6,1.8-3.6,5.2v8.2H53.5V105.9h2v2.4a4.5,4.5,0,0,1,4.1-2.5,4.2,4.2,0,0,1,4.1,2.9,4.9,4.9,0,0,1,4.5-2.9C71.1,105.8,73,108,73,112.7Z"/>
          <path d="M87,114.8H77.4c.3,2.8,2,4.7,4.3,4.7a3.9,3.9,0,0,0,3.4-1.9l1.2,1.8a5.4,5.4,0,0,1-4.7,2.6c-3.8,0-6.3-3.4-6.3-8.1s2.5-8.1,5.9-8.1S87,109.1,87,114Zm-9.6-2H85c-.2-2.7-1.7-4.6-3.8-4.6S77.7,110.1,77.4,112.8Z"/>
        </g>
      </g>
    </g>
  </g>
</svg>
