<svg xmlns="http://www.w3.org/2000/svg" viewBox="0 0 110 132.5">
  <defs>
    <style>
      .cls-1 {
        fill: #dfddd5;
      }

      .cls-2 {
        fill: none;
        stroke: #140E1B;
        stroke-width: 3px;
      }
    </style>
  </defs>
  <g id="Layer_2" data-name="Layer 2">
    <g id="Layer_1-2" data-name="Layer 1">
      <g>
        <path class="cls-1" d="M0,66.3C0,13.9,11.6,0,55,0s55,13.9,55,66.3-11.5,66.2-55,66.2S0,118.6,0,66.3"/>
        <g>
          <path class="cls-2" d="M52.8,10.7a3.3,3.3,0,0,1,4.4,0A124.4,124.4,0,0,0,75.7,25.4c6.4,3.9,15,9.2,24.1,13a1.1,1.1,0,0,1,.6,1.4c-.2.3-.5.6-.8.6C78.9,44.1,55,44.1,55,44.1s-23.8,0-44.6-3.7a1.1,1.1,0,0,1-.8-1.2.9.9,0,0,1,.6-.8c9-3.8,17.8-9.1,24.1-13A124.4,124.4,0,0,0,52.8,10.7Z"/>
          <path class="cls-2" d="M87.1,42.2c0,11.3,4.5,37.3-3.8,45-3,2.8-12.1,3-17.1,2.9A3.2,3.2,0,0,1,63,86.8v-.2l1.1-14a4.2,4.2,0,0,0-3.9-4.4H50a4.1,4.1,0,0,0-4.1,4.2v.3l1.1,14a3.3,3.3,0,0,1-3,3.5h-.2c-5,.1-14.1-.1-17.1-2.9-8.3-7.7-3.8-33.7-3.8-45"/>
          <rect class="cls-2" x="30.8" y="51.5" width="13.9" height="12.35" rx="2"/>
          <rect class="cls-2" x="65.3" y="51.5" width="13.9" height="12.35" rx="2"/>
        </g>
        <g>
          <path d="M36.9,100v19.9H34.8v-9.1H25.7v9.1H23.6V100h2.1v8.6h9.1V100Z"/>
          <path d="M45.4,120.2a4.1,4.1,0,0,1-2.5-.7,6.2,6.2,0,0,1-2-1.6,9,9,0,0,1-1.2-2.4,8.7,8.7,0,0,1,0-5.8,7,7,0,0,1,1.3-2.4,5.2,5.2,0,0,1,1.9-1.7,5.1,5.1,0,0,1,2.5-.6,4.8,4.8,0,0,1,2.4.6,6.5,6.5,0,0,1,2,1.7,9,9,0,0,1,1.2,2.4,8.7,8.7,0,0,1,0,5.8,6.8,6.8,0,0,1-1.2,2.4,5.8,5.8,0,0,1-1.9,1.6A4.5,4.5,0,0,1,45.4,120.2Zm-4.1-7.6a7.8,7.8,0,0,0,.3,2.2,9.1,9.1,0,0,0,.9,1.7,6.9,6.9,0,0,0,1.3,1.1,2.9,2.9,0,0,0,1.6.4,2.8,2.8,0,0,0,1.5-.4,4.9,4.9,0,0,0,1.3-1.2,3.9,3.9,0,0,0,.9-1.7,7.1,7.1,0,0,0,.3-2.1,6.6,6.6,0,0,0-.3-2.1,5.1,5.1,0,0,0-.9-1.8,3.3,3.3,0,0,0-1.3-1.1,3,3,0,0,0-1.5-.5,3,3,0,0,0-1.6.5,4.9,4.9,0,0,0-1.3,1.2,5.4,5.4,0,0,0-.9,1.7A7.1,7.1,0,0,0,41.3,112.6Z"/>
          <path d="M72,119.9H69.9v-8.2a7.4,7.4,0,0,0-.6-3.4,2,2,0,0,0-1.8-1.1,2.9,2.9,0,0,0-2.2,1.1,5,5,0,0,0-1.4,2.8v8.8H61.8v-8.2a7.1,7.1,0,0,0-.6-3.4,2,2,0,0,0-1.8-1.1,2.9,2.9,0,0,0-2.2,1.1,5.8,5.8,0,0,0-1.5,2.8v8.8h-2V105.3h1.9v3.1a6.2,6.2,0,0,1,1.9-2.5,4.4,4.4,0,0,1,2.7-.9,3,3,0,0,1,2.4,1,4.4,4.4,0,0,1,1.1,2.6c1.1-2.4,2.6-3.6,4.6-3.6a3.5,3.5,0,0,1,1.8.5,3.6,3.6,0,0,1,1.1,1.3,5.3,5.3,0,0,1,.6,1.9,19.4,19.4,0,0,1,.2,2.4Z"/>
          <path d="M80.3,120.2a4.9,4.9,0,0,1-2.5-.6,5.5,5.5,0,0,1-2-1.7,7.9,7.9,0,0,1-1.7-5.3,8.8,8.8,0,0,1,.4-2.9,6.8,6.8,0,0,1,1.3-2.4,6.5,6.5,0,0,1,2-1.7,5.1,5.1,0,0,1,2.5-.6,5.4,5.4,0,0,1,2.5.6,6.1,6.1,0,0,1,1.9,1.7,7.1,7.1,0,0,1,1.2,2.3,9.8,9.8,0,0,1,.5,2.9,4.3,4.3,0,0,1-.1.5v.4H76.2a6.5,6.5,0,0,0,.5,2,3.8,3.8,0,0,0,.9,1.5,3.6,3.6,0,0,0,2.7,1.4,2,2,0,0,0,1.1-.2l1-.5a2.7,2.7,0,0,0,.8-.7,2.7,2.7,0,0,0,.6-1l1.8.6a4.2,4.2,0,0,1-.9,1.4,3.4,3.4,0,0,1-1.2,1.2,5.3,5.3,0,0,1-1.5.8A5.1,5.1,0,0,1,80.3,120.2Zm4.1-8.6a5.8,5.8,0,0,0-.4-1.9,5.4,5.4,0,0,0-.9-1.5,4.1,4.1,0,0,0-1.3-1,4,4,0,0,0-1.5-.3,3.3,3.3,0,0,0-1.5.3,3.2,3.2,0,0,0-1.3,1,3.8,3.8,0,0,0-.9,1.5,5.8,5.8,0,0,0-.4,1.9Z"/>
        </g>
      </g>
    </g>
  </g>
</svg>
