<svg xmlns="http://www.w3.org/2000/svg" viewBox="0 0 110 132.5">
  <defs>
    <style>
      .cls-1 {
        fill: #DFDDD5;
      }

      .cls-2 {
        fill: none;
        stroke: #140E1B;
        stroke-linecap: round;
        stroke-miterlimit: 10;
        stroke-width: 3px;
      }
    </style>
  </defs>
  <g id="Layer_2" data-name="Layer 2">
    <g id="Layer_1-2" data-name="Layer 1">
      <g>
        <g>
          <path class="cls-1" d="M0,66.3C0,13.9,11.5,0,55,0s55,13.9,55,66.3-11.6,66.2-55,66.2S0,118.6,0,66.3"/>
          <g id="Layer_2-2" data-name="Layer 2">
            <g id="Layer_1-2-2" data-name="Layer 1-2">
              <path class="cls-2" d="M95.6,31.7l-38-15.4a6.7,6.7,0,0,0-5.2,0l-38,15.4a2,2,0,0,0-1.1,2.6,2,2,0,0,0,1.1,1.1l38,15.4a6.7,6.7,0,0,0,5.2,0l38-15.4a2,2,0,0,0,1.1-2.6A2,2,0,0,0,95.6,31.7Z"/>
              <path class="cls-2" d="M35.3,43.9,27,55.7a2.9,2.9,0,0,0,.1,3.2S37.8,72.2,54.8,72.2,83.3,58.8,83.3,58.8a2.4,2.4,0,0,0,.2-3L74.7,43.9"/>
              <polyline class="cls-2" points="55 31.7 19.3 37.4 23.8 69.4"/>
              <path class="cls-2" d="M22.7,70.3,20,82.5a1.4,1.4,0,0,0,1.1,1.7h.4l8.9-1.4a1.3,1.3,0,0,0,1.1-1.5.9.9,0,0,0-.1-.5L25.2,69.9a1.3,1.3,0,0,0-1.8-.5A1.3,1.3,0,0,0,22.7,70.3Z"/>
            </g>
          </g>
        </g>
        <g>
          <path d="M13.8,100.8H16v18.4h8.5v2.6H13.8Z"/>
          <path d="M36.5,114.8H26.9c.3,2.8,2,4.7,4.3,4.7a3.9,3.9,0,0,0,3.4-1.9l1.2,1.8a5.4,5.4,0,0,1-4.7,2.6c-3.8,0-6.3-3.4-6.3-8.1s2.5-8.1,5.9-8.1,5.8,3.3,5.8,8.2Zm-9.6-2h7.6c-.2-2.7-1.7-4.6-3.8-4.6S27.2,110.1,26.9,112.8Z"/>
          <path d="M37.4,120.1l.8-2.2a6.6,6.6,0,0,0,4.2,1.6c1.9,0,2.8-.8,2.8-2.1,0-3.6-7.5-.5-7.5-6.9,0-2.8,1.9-4.7,4.9-4.7a6.7,6.7,0,0,1,4.3,1.4l-.9,2.3a5.2,5.2,0,0,0-3.4-1.3c-1.9,0-2.8,1-2.8,2.2,0,3.8,7.5.7,7.5,6.9,0,2.9-2,4.7-5.1,4.7A6.6,6.6,0,0,1,37.4,120.1Z"/>
          <path d="M47.8,120.1l.9-2.2a6.5,6.5,0,0,0,4.1,1.6c2,0,2.8-.8,2.8-2.1,0-3.6-7.4-.5-7.4-6.9,0-2.8,1.9-4.7,4.9-4.7a6.9,6.9,0,0,1,4.3,1.4l-.9,2.3a5.4,5.4,0,0,0-3.4-1.3c-1.9,0-2.8,1-2.8,2.2,0,3.8,7.5.7,7.5,6.9,0,2.9-2,4.7-5.1,4.7A6.9,6.9,0,0,1,47.8,120.1Z"/>
          <path d="M58.7,113.9c0-4.8,2.6-8.1,6.1-8.1s6.1,3.3,6.1,8.1-2.5,8.1-6.1,8.1S58.7,118.6,58.7,113.9Zm10.1,0c0-3.4-1.7-5.6-4-5.6s-3.9,2.2-3.9,5.6,1.7,5.6,3.9,5.6S68.8,117.3,68.8,113.9Z"/>
          <path d="M84.4,112.7v9.1H82.3V113c0-3.1-1.2-4.6-3.2-4.6s-3.7,1.8-3.7,5.2v8.2H73.2V105.9h2.1v2.4a4.7,4.7,0,0,1,4.2-2.5C82.4,105.8,84.4,108,84.4,112.7Z"/>
          <path d="M86.2,120.1l.9-2.2a6.6,6.6,0,0,0,4.2,1.6c1.9,0,2.7-.8,2.7-2.1,0-3.6-7.4-.5-7.4-6.9,0-2.8,1.9-4.7,4.9-4.7a6.7,6.7,0,0,1,4.3,1.4l-.9,2.3a5.2,5.2,0,0,0-3.4-1.3c-1.9,0-2.8,1-2.8,2.2,0,3.8,7.5.7,7.5,6.9,0,2.9-2,4.7-5.1,4.7A6.9,6.9,0,0,1,86.2,120.1Z"/>
        </g>
      </g>
    </g>
  </g>
</svg>
