<svg xmlns="http://www.w3.org/2000/svg" viewBox="0 0 110 132.5">
  <defs>
    <style>
      .cls-1 {
        fill: #DFDDD5;
      }

      .cls-2 {
        fill: none;
        stroke: #140E1B;
        stroke-linecap: round;
        stroke-miterlimit: 10;
        stroke-width: 3px;
      }
    </style>
  </defs>
  <g id="Layer_2" data-name="Layer 2">
    <g id="Layer_1-2" data-name="Layer 1">
      <g>
        <path class="cls-1" d="M0,66.3C0,13.9,11.5,0,55,0s55,13.9,55,66.3-11.6,66.2-55,66.2S0,118.6,0,66.3"/>
        <g id="Layer_2-2" data-name="Layer 2">
          <g id="Layer_1-2-2" data-name="Layer 1-2">
            <path class="cls-2" d="M95.6,31.7l-38-15.4a6.7,6.7,0,0,0-5.2,0l-38,15.4a2,2,0,0,0-1.1,2.6,2,2,0,0,0,1.1,1.1l38,15.4a6.7,6.7,0,0,0,5.2,0l38-15.4a2,2,0,0,0,1.1-2.6A2,2,0,0,0,95.6,31.7Z"/>
            <path class="cls-2" d="M35.3,43.9,27,55.7a2.9,2.9,0,0,0,.1,3.2S37.8,72.2,54.8,72.2,83.3,58.8,83.3,58.8a2.4,2.4,0,0,0,.2-3L74.7,43.9"/>
            <polyline class="cls-2" points="55 31.7 19.3 37.4 23.8 69.4"/>
            <path class="cls-2" d="M22.7,70.3,20,82.5a1.4,1.4,0,0,0,1.1,1.7h.4l8.9-1.4a1.3,1.3,0,0,0,1.1-1.5.9.9,0,0,0-.1-.5L25.2,69.9a1.3,1.3,0,0,0-1.8-.5A1.3,1.3,0,0,0,22.7,70.3Z"/>
          </g>
        </g>
        <g>
          <path d="M12.6,119.9V100h2.1v17.6h9.2v2.3Z"/>
          <path d="M30.8,120.2a5.1,5.1,0,0,1-2.5-.6,6.5,6.5,0,0,1-2-1.7,7.9,7.9,0,0,1-1.7-5.3,8.8,8.8,0,0,1,.4-2.9,6.8,6.8,0,0,1,1.3-2.4,6.5,6.5,0,0,1,2-1.7,5.1,5.1,0,0,1,2.5-.6,5.4,5.4,0,0,1,2.5.6,6.1,6.1,0,0,1,1.9,1.7,7.1,7.1,0,0,1,1.2,2.3,9.8,9.8,0,0,1,.5,2.9.7.7,0,0,1-.1.5v.4h-10a4.5,4.5,0,0,0,.4,2,3.8,3.8,0,0,0,.9,1.5,2.8,2.8,0,0,0,1.2,1,2.8,2.8,0,0,0,1.5.4,2,2,0,0,0,1.1-.2,3.1,3.1,0,0,0,1-.5l.9-.7a4.7,4.7,0,0,0,.5-1l1.8.6a4.2,4.2,0,0,1-.9,1.4,3.4,3.4,0,0,1-1.2,1.2,5.3,5.3,0,0,1-1.5.8A4.7,4.7,0,0,1,30.8,120.2Zm4.1-8.6a5.8,5.8,0,0,0-.4-1.9,3.8,3.8,0,0,0-.9-1.5,4.1,4.1,0,0,0-1.3-1,4,4,0,0,0-1.5-.3,3.7,3.7,0,0,0-1.5.3,4.1,4.1,0,0,0-1.3,1,3.8,3.8,0,0,0-.9,1.5,10.6,10.6,0,0,0-.4,1.9Z"/>
          <path d="M43.1,120.2a7.5,7.5,0,0,1-2.9-.6,7.8,7.8,0,0,1-2.4-1.6l.9-1.6,2.1,1.5a5.9,5.9,0,0,0,2.3.4,3.5,3.5,0,0,0,2.1-.6,2.1,2.1,0,0,0,.7-1.8,1.5,1.5,0,0,0-.2-.9,1.7,1.7,0,0,0-.6-.6,2.8,2.8,0,0,0-1.1-.5l-1.5-.5-1.9-.7-1.3-.7a3.6,3.6,0,0,1-.7-1,3.4,3.4,0,0,1-.2-1.5,5.8,5.8,0,0,1,.3-1.9,5,5,0,0,1,1-1.4,3.8,3.8,0,0,1,1.5-.9A5.7,5.7,0,0,1,43,105a7.5,7.5,0,0,1,2.6.5,10.1,10.1,0,0,1,2,1.4l-1,1.5a5.2,5.2,0,0,0-1.7-1.2,4.3,4.3,0,0,0-1.9-.4,2.9,2.9,0,0,0-1.9.6,2.2,2.2,0,0,0-.8,1.8,2.9,2.9,0,0,0,.2.9.8.8,0,0,0,.5.5l.8.5,1.4.4,2.1.7a3.7,3.7,0,0,1,1.4.8,3.1,3.1,0,0,1,.9,1.1,4.7,4.7,0,0,1-1,4.9A4.8,4.8,0,0,1,43.1,120.2Z"/>
          <path d="M54.3,120.2a7.5,7.5,0,0,1-2.9-.6A7.8,7.8,0,0,1,49,118l.9-1.6,2.1,1.5a5.9,5.9,0,0,0,2.3.4,3.3,3.3,0,0,0,2.1-.6,2.1,2.1,0,0,0,.7-1.8,1.5,1.5,0,0,0-.2-.9,1.7,1.7,0,0,0-.6-.6,2.8,2.8,0,0,0-1.1-.5l-1.5-.5-1.8-.7-1.4-.7a3.6,3.6,0,0,1-.7-1,6.1,6.1,0,0,1-.2-1.5,5.8,5.8,0,0,1,.3-1.9,5,5,0,0,1,1-1.4,3.8,3.8,0,0,1,1.5-.9,5.7,5.7,0,0,1,1.8-.3,7.5,7.5,0,0,1,2.6.5,10.1,10.1,0,0,1,2,1.4l-1,1.5a5.2,5.2,0,0,0-1.7-1.2,4.3,4.3,0,0,0-1.9-.4,2.9,2.9,0,0,0-1.9.6,2.2,2.2,0,0,0-.8,1.8,2.9,2.9,0,0,0,.2.9.8.8,0,0,0,.5.5l.8.5,1.4.4,2.1.7a5.3,5.3,0,0,1,1.5.8,4.4,4.4,0,0,1,.8,1.1,4.7,4.7,0,0,1-1,4.9A4.8,4.8,0,0,1,54.3,120.2Z"/>
          <path d="M66.6,120.2a4.1,4.1,0,0,1-2.5-.7,6.2,6.2,0,0,1-2-1.6,9,9,0,0,1-1.2-2.4,8.7,8.7,0,0,1,0-5.8,7,7,0,0,1,1.3-2.4,5.2,5.2,0,0,1,1.9-1.7,5.1,5.1,0,0,1,2.5-.6,4.8,4.8,0,0,1,2.4.6,5.5,5.5,0,0,1,2,1.7,9,9,0,0,1,1.2,2.4,9.3,9.3,0,0,1,.5,2.9,13.5,13.5,0,0,1-.4,2.9,9.2,9.2,0,0,1-1.3,2.4,5.8,5.8,0,0,1-1.9,1.6A4.5,4.5,0,0,1,66.6,120.2Zm-4.1-7.6a5.4,5.4,0,0,0,.4,2.2,8.9,8.9,0,0,0,.8,1.7,6.9,6.9,0,0,0,1.3,1.1,2.9,2.9,0,0,0,1.6.4,2.8,2.8,0,0,0,1.5-.4,4.9,4.9,0,0,0,1.3-1.2,3.9,3.9,0,0,0,.9-1.7,7.1,7.1,0,0,0,.3-2.1,6.6,6.6,0,0,0-.3-2.1,5.1,5.1,0,0,0-.9-1.8,3.3,3.3,0,0,0-1.3-1.1,3,3,0,0,0-1.5-.5,3,3,0,0,0-1.6.5,4.9,4.9,0,0,0-1.3,1.2,5.4,5.4,0,0,0-.8,1.7A4.9,4.9,0,0,0,62.5,112.6Z"/>
          <path d="M85.4,119.9h-2v-8.2a7.1,7.1,0,0,0-.6-3.4,2,2,0,0,0-1.8-1.1l-1.3.3-1.1.8-1,1.2a7.7,7.7,0,0,0-.7,1.6v8.8h-2V105.3h1.9v3.1a6,6,0,0,1,2-2.5,5.5,5.5,0,0,1,3-.9,3.5,3.5,0,0,1,1.8.5,3.6,3.6,0,0,1,1.1,1.3c.2.5.4,1.2.6,1.9a19.3,19.3,0,0,1,.1,2.4Z"/>
          <path d="M92.6,120.2a7.5,7.5,0,0,1-2.9-.6,6.7,6.7,0,0,1-2.4-1.6l.9-1.6,2.1,1.5a5.7,5.7,0,0,0,2.2.4,3.3,3.3,0,0,0,2.1-.6,1.9,1.9,0,0,0,.8-1.8,1.5,1.5,0,0,0-.2-.9,1.7,1.7,0,0,0-.6-.6,2.8,2.8,0,0,0-1.1-.5l-1.5-.5-1.9-.7-1.3-.7a2.3,2.3,0,0,1-.7-1,3.3,3.3,0,0,1-.3-1.5,5.8,5.8,0,0,1,.4-1.9,3.6,3.6,0,0,1,1-1.4,3.8,3.8,0,0,1,1.5-.9,4.8,4.8,0,0,1,1.8-.3,7.5,7.5,0,0,1,2.6.5l2,1.4-1,1.5a6.6,6.6,0,0,0-1.7-1.2,4.3,4.3,0,0,0-1.9-.4,2.9,2.9,0,0,0-1.9.6,1.9,1.9,0,0,0-.8,1.8,2.8,2.8,0,0,0,.1.9,1.2,1.2,0,0,0,.5.5l.9.5,1.3.4,2.1.7a5.3,5.3,0,0,1,1.5.8,3.1,3.1,0,0,1,.9,1.1,4.7,4.7,0,0,1-1,4.9A5,5,0,0,1,92.6,120.2Z"/>
        </g>
      </g>
    </g>
  </g>
</svg>
