<svg xmlns="http://www.w3.org/2000/svg" viewBox="0 0 110 132.5">
  <defs>
    <style>
      .cls-1 {
        fill: #97CCC3;
      }

      .cls-2 {
        fill: none;
        stroke: #140E1B;
        stroke-linecap: round;
        stroke-linejoin: round;
        stroke-width: 3px;
      }
    </style>
  </defs>
  <g id="Layer_2" data-name="Layer 2">
    <g id="Layer_1-2" data-name="Layer 1">
      <g>
        <g>
          <path class="cls-1" d="M0,66.3C0,13.9,11.6,0,55,0s55,13.9,55,66.3-11.5,66.2-55,66.2S0,118.6,0,66.3"/>
          <g id="Layer_2-2" data-name="Layer 2">
            <g id="Layer_1-2-2" data-name="Layer 1-2">
              <path class="cls-2" d="M39.7,80.6,78.8,55.1A5.4,5.4,0,0,0,80,47.7a3.4,3.4,0,0,0-1.2-1.2l-39-27c-3-2-6.8.4-6.8,4.2V76.2C33,80.1,36.7,82.5,39.7,80.6Z"/>
            </g>
          </g>
        </g>
        <g>
          <path d="M38.1,121.8V106.5l-5.6,12.8h-1l-5.6-12.7v15.2H23.7v-21h1.8L32,115.6l6.4-14.8h1.8v21Z"/>
          <path d="M54.6,114.8H45c.3,2.8,1.9,4.7,4.3,4.7a4,4,0,0,0,3.4-1.9l1.1,1.8a5.1,5.1,0,0,1-4.6,2.6c-3.8,0-6.3-3.4-6.3-8.1s2.5-8.1,5.9-8.1,5.8,3.3,5.8,8.2Zm-9.6-2h7.6c-.3-2.7-1.8-4.6-3.8-4.6S45.2,110.1,45,112.8Z"/>
          <path d="M68,99.6v22.2H66v-2.5a4.7,4.7,0,0,1-4.2,2.7c-3.5,0-6-3.3-6-8.1s2.5-8.1,6-8.1a4.7,4.7,0,0,1,4.1,2.5V99.6Zm-2.1,14.3c0-3.4-1.7-5.6-4-5.6s-3.9,2.2-3.9,5.6,1.7,5.6,3.9,5.6S65.9,117.3,65.9,113.9Z"/>
          <path d="M71,101a1.7,1.7,0,0,1,1.5-1.9,1.6,1.6,0,0,1,1.4,1.8c0,1.1-.6,2-1.4,2S71,102.1,71,101Zm.4,4.9h2.1v15.9H71.4Z"/>
          <path d="M86.3,112.2v9.6h-2v-2.1a4.1,4.1,0,0,1-3.9,2.3c-2.7,0-4.4-1.9-4.4-4.7s1.3-4.6,4.8-4.6h3.3v-.6c0-2.4-1-3.8-3.1-3.8a4.8,4.8,0,0,0-3.7,1.7l-.9-2.2a6.6,6.6,0,0,1,4.8-2C84.5,105.8,86.3,107.9,86.3,112.2ZM84.1,117v-2.3H80.9c-2.1,0-2.7,1.2-2.7,2.5a2.4,2.4,0,0,0,2.6,2.6A3.4,3.4,0,0,0,84.1,117Z"/>
        </g>
      </g>
    </g>
  </g>
</svg>
