<svg xmlns="http://www.w3.org/2000/svg" viewBox="0 0 110 132.5">
  <defs>
    <style>
      .cls-1 {
        fill: #97CCC3;
      }

      .cls-2 {
        fill: none;
        stroke: #140E1B;
        stroke-linecap: round;
        stroke-linejoin: round;
        stroke-width: 3px;
      }
    </style>
  </defs>
  <g id="Layer_2" data-name="Layer 2">
    <g id="Layer_1-2" data-name="Layer 1">
      <g>
        <path class="cls-1" d="M0,66.3C0,13.9,11.6,0,55,0s55,13.9,55,66.3-11.6,66.2-55,66.2S0,118.6,0,66.3"/>
        <g id="Layer_2-2" data-name="Layer 2">
          <g id="Layer_1-2-2" data-name="Layer 1-2">
            <line class="cls-2" x1="26.4" y1="27.6" x2="83.9" y2="27.8"/>
            <line class="cls-2" x1="26.2" y1="49.9" x2="83.8" y2="50.1"/>
            <line class="cls-2" x1="26.1" y1="72.3" x2="83.6" y2="72.5"/>
          </g>
        </g>
        <g>
          <path d="M40.5,119.9V104.5L35,116.3H33.8l-5.5-11.8v15.4H26.2V100h2.2l6,12.9,6-12.9h2.2v19.9Z"/>
          <path d="M51.1,120.2a5.1,5.1,0,0,1-2.5-.6,6.5,6.5,0,0,1-2-1.7,7.9,7.9,0,0,1-1.7-5.3,8.8,8.8,0,0,1,.4-2.9,6.8,6.8,0,0,1,1.3-2.4,6.5,6.5,0,0,1,2-1.7,5.1,5.1,0,0,1,2.5-.6,5.4,5.4,0,0,1,2.5.6,6.1,6.1,0,0,1,1.9,1.7,7.1,7.1,0,0,1,1.2,2.3,9.8,9.8,0,0,1,.5,2.9.7.7,0,0,1-.1.5v.4h-10a4.5,4.5,0,0,0,.4,2,3.8,3.8,0,0,0,.9,1.5,3.6,3.6,0,0,0,2.7,1.4,2,2,0,0,0,1.1-.2,3.1,3.1,0,0,0,1-.5l.9-.7.5-1,1.8.6a4.2,4.2,0,0,1-.9,1.4,3.4,3.4,0,0,1-1.2,1.2,5.3,5.3,0,0,1-1.5.8A4.7,4.7,0,0,1,51.1,120.2Zm4.1-8.6a5.8,5.8,0,0,0-.4-1.9,3.8,3.8,0,0,0-.9-1.5,4.1,4.1,0,0,0-1.3-1,4,4,0,0,0-1.5-.3,3.7,3.7,0,0,0-1.5.3,4.1,4.1,0,0,0-1.3,1,3.8,3.8,0,0,0-.9,1.5,10.6,10.6,0,0,0-.4,1.9Z"/>
          <path d="M69.7,119.9H67.6v-8.2a7.1,7.1,0,0,0-.6-3.4,1.8,1.8,0,0,0-1.8-1.1,2.7,2.7,0,0,0-1.2.3l-1.2.8-1,1.2a7.6,7.6,0,0,0-.6,1.6v8.8h-2V105.3H61v3.1a7.2,7.2,0,0,1,2.1-2.5,5.3,5.3,0,0,1,3-.9,3.1,3.1,0,0,1,1.7.5,2.8,2.8,0,0,1,1.1,1.3,5.3,5.3,0,0,1,.6,1.9,19.4,19.4,0,0,1,.2,2.4Z"/>
          <path d="M76.3,120.2a3.2,3.2,0,0,1-2.8-1.6,8.1,8.1,0,0,1-1-4.6v-8.7h2v8.3c0,2.9.9,4.4,2.6,4.4a4,4,0,0,0,2.4-.9,7.2,7.2,0,0,0,1.6-2.7v-9.1h2v11.6a.9.9,0,0,0,.7.9v2.1h-.9a1.2,1.2,0,0,1-1-.5,1.4,1.4,0,0,1-.5-1v-1.8a7.1,7.1,0,0,1-2.2,2.6A4.8,4.8,0,0,1,76.3,120.2Z"/>
        </g>
      </g>
    </g>
  </g>
</svg>
