<svg xmlns="http://www.w3.org/2000/svg" viewBox="0 0 110 132.5">
  <defs>
    <style>
      .cls-1 {
        fill: #97CCC3;
      }

      .cls-2 {
        fill: none;
        stroke: #140E1B;
        stroke-linecap: round;
        stroke-linejoin: round;
        stroke-width: 3px;
      }
    </style>
  </defs>
  <g id="Layer_2" data-name="Layer 2">
    <g id="Layer_1-2" data-name="Layer 1">
      <g>
        <g>
          <path class="cls-1" d="M0,66.3C0,13.9,11.6,0,55,0s55,13.9,55,66.3-11.6,66.2-55,66.2S0,118.6,0,66.3"/>
          <g id="Layer_2-2" data-name="Layer 2">
            <g id="Layer_1-2-2" data-name="Layer 1-2">
              <line class="cls-2" x1="26.4" y1="27.6" x2="83.9" y2="27.8"/>
              <line class="cls-2" x1="26.2" y1="49.9" x2="83.8" y2="50.1"/>
              <line class="cls-2" x1="26.1" y1="72.3" x2="83.6" y2="72.5"/>
            </g>
          </g>
        </g>
        <g>
          <path d="M40.1,121.8V106.5l-5.6,12.8H33.4l-5.6-12.7v15.2H25.7v-21h1.8L34,115.6l6.4-14.8h1.8v21Z"/>
          <path d="M56.5,114.8H47c.2,2.8,1.9,4.7,4.2,4.7a3.8,3.8,0,0,0,3.4-1.9l1.2,1.8a5.3,5.3,0,0,1-4.6,2.6c-3.8,0-6.4-3.4-6.4-8.1s2.6-8.1,5.9-8.1,5.9,3.3,5.9,8.2C56.6,114.2,56.5,114.6,56.5,114.8Zm-9.5-2h7.5c-.2-2.7-1.7-4.6-3.8-4.6S47.2,110.1,47,112.8Z"/>
          <path d="M70,112.7v9.1H67.9V113c0-3.1-1.1-4.6-3.2-4.6s-3.7,1.8-3.7,5.2v8.2H58.9V105.9h2v2.4a4.7,4.7,0,0,1,4.3-2.5C68,105.8,70,108,70,112.7Z"/>
          <path d="M84.3,105.9v15.9h-2v-2.4a4.4,4.4,0,0,1-4,2.6c-3,0-5.1-2.3-5.1-6.9v-9.2h2.2v8.8c0,3.2,1.1,4.7,3.1,4.7s3.7-1.8,3.7-5.3v-8.2Z"/>
        </g>
      </g>
    </g>
  </g>
</svg>
