<svg xmlns="http://www.w3.org/2000/svg" viewBox="0 0 110 132.5">
  <defs>
    <style>
      .cls-1 {
        fill: #E6B5B5;
      }

      .cls-2 {
        fill: none;
        stroke: #140E1B;
        stroke-linecap: round;
        stroke-linejoin: round;
        stroke-width: 3px;
      }
    </style>
  </defs>
  <g id="Layer_2" data-name="Layer 2">
    <g id="Layer_1-2" data-name="Layer 1">
      <g>
        <path class="cls-1" d="M0,66.3C0,13.9,11.5,0,55,0s55,13.9,55,66.3-11.6,66.2-55,66.2S0,118.6,0,66.3"/>
        <g id="Layer_2-2" data-name="Layer 2">
          <g id="Layer_1-2-2" data-name="Layer 1-2">
            <path class="cls-2" d="M26.7,43.8V56c0,7.6,3,13.9,8.5,18.2s10.6,5.4,17.6,5.7h4.4c7-.3,13-2.3,17.6-5.7S83.3,63.6,83.3,56V43.9"/>
            <path class="cls-2" d="M35.9,92H74.1"/>
            <path class="cls-2" d="M55,79.9V92"/>
            <path class="cls-2" d="M40.4,68.5c3.6,2.4,8.6,3.6,14.7,3.6s11.1-1.2,14.7-3.6,6.6-7.5,6.6-13.3V27.3C76.4,15.9,67.7,8,55.1,8S33.8,16,33.8,27.3V55.2C33.8,61,36.1,65.6,40.4,68.5Z"/>
            <path class="cls-2" d="M34.5,32.3H54.1"/>
            <path class="cls-2" d="M34.5,42.9H54.1"/>
            <path class="cls-2" d="M34.5,53.5H54.1"/>
          </g>
        </g>
        <g>
          <path d="M2.1,120.4V100.6h7a3.8,3.8,0,0,1,2.1.5,5.4,5.4,0,0,1,1.5,1.5,7.8,7.8,0,0,1,1.1,2,9.1,9.1,0,0,1,.3,2.3,6.5,6.5,0,0,1-.2,2,9.6,9.6,0,0,1-.7,1.8,6.9,6.9,0,0,1-1.1,1.3,2.9,2.9,0,0,1-1.4.8l4,7.6H12.3l-3.8-7.1H4.2v7.1Zm2.1-9.3h5a2.1,2.1,0,0,0,1.1-.4,2,2,0,0,0,.9-.9,3.1,3.1,0,0,0,.6-1.3,4.1,4.1,0,0,0,.2-1.6,8.8,8.8,0,0,0-.2-1.6,5.4,5.4,0,0,0-.7-1.3,2.6,2.6,0,0,0-.9-.9L9,102.8H4.2Z"/>
          <path d="M21.7,120.7a5.4,5.4,0,0,1-2.5-.6,5.8,5.8,0,0,1-1.9-1.6,7,7,0,0,1-1.3-2.4,9.9,9.9,0,0,1-.5-3,9.3,9.3,0,0,1,.5-2.9,7,7,0,0,1,1.3-2.4,5.8,5.8,0,0,1,1.9-1.6,5.4,5.4,0,0,1,2.5-.6,4.9,4.9,0,0,1,2.5.6,6.2,6.2,0,0,1,2,1.6,9,9,0,0,1,1.2,2.4,8.6,8.6,0,0,1,.4,2.8v1H17.7a6.5,6.5,0,0,0,.4,2l.9,1.5a4.1,4.1,0,0,0,1.3,1,2.8,2.8,0,0,0,1.5.4l1.1-.2,1-.5.8-.8.6-1,1.7.6a5.3,5.3,0,0,1-.8,1.5L25,119.7a5.1,5.1,0,0,1-1.5.7Zm4.2-8.5a11.8,11.8,0,0,0-.4-2,5.6,5.6,0,0,0-1-1.5,2.7,2.7,0,0,0-1.2-.9,2.9,2.9,0,0,0-1.6-.4,2.8,2.8,0,0,0-1.5.4,3.1,3.1,0,0,0-1.3,1,6.4,6.4,0,0,0-.8,1.4,4.5,4.5,0,0,0-.4,2Z"/>
          <path d="M29,113.1a9.2,9.2,0,0,1,.4-2.9,7,7,0,0,1,1.3-2.4,5.8,5.8,0,0,1,1.9-1.6,5.5,5.5,0,0,1,2.6-.6,5.4,5.4,0,0,1,3.1.9,6.5,6.5,0,0,1,2,2.6l-2,.8a4.2,4.2,0,0,0-1.3-1.6,3.3,3.3,0,0,0-1.9-.6,2.9,2.9,0,0,0-1.6.4,6.9,6.9,0,0,0-1.3,1.1,8.9,8.9,0,0,0-.8,1.7,8.2,8.2,0,0,0,0,4.4,5.6,5.6,0,0,0,.9,1.7,3.7,3.7,0,0,0,1.3,1.2,2.6,2.6,0,0,0,1.5.4l1.1-.2.9-.5a2.7,2.7,0,0,0,.8-.7,4.1,4.1,0,0,0,.5-.9l2,.8a6.4,6.4,0,0,1-.8,1.4,4.6,4.6,0,0,1-1.2,1.2,3.5,3.5,0,0,1-1.5.7,4.7,4.7,0,0,1-1.7.3,5.1,5.1,0,0,1-2.5-.6,7.8,7.8,0,0,1-2-1.6,8.4,8.4,0,0,1-1.3-2.5A9.2,9.2,0,0,1,29,113.1Z"/>
          <path d="M47.6,120.7a5.1,5.1,0,0,1-2.5-.6,6,6,0,0,1-1.9-1.6,6.6,6.6,0,0,1-1.3-2.5,8.6,8.6,0,0,1-.4-2.8,9.9,9.9,0,0,1,.4-3,7,7,0,0,1,1.3-2.4,5.8,5.8,0,0,1,1.9-1.6,5.5,5.5,0,0,1,5,0,5.8,5.8,0,0,1,1.9,1.6,9.2,9.2,0,0,1,1.3,2.4,9.9,9.9,0,0,1,.4,3,8.6,8.6,0,0,1-.4,2.8,6.6,6.6,0,0,1-1.3,2.5,7.4,7.4,0,0,1-1.9,1.6A5.4,5.4,0,0,1,47.6,120.7Zm-4-7.5a6.7,6.7,0,0,0,1.1,3.8,4.9,4.9,0,0,0,1.3,1.2,2.9,2.9,0,0,0,1.6.4,3.2,3.2,0,0,0,1.6-.4,4.6,4.6,0,0,0,1.2-1.2,5.6,5.6,0,0,0,.9-1.7,7.8,7.8,0,0,0,.3-2.2,7.6,7.6,0,0,0-.3-2.1,5.6,5.6,0,0,0-.9-1.7,4.6,4.6,0,0,0-1.2-1.2,3.2,3.2,0,0,0-1.6-.4,2.9,2.9,0,0,0-1.6.4,4.9,4.9,0,0,0-1.3,1.2,8.9,8.9,0,0,0-.8,1.7A7.8,7.8,0,0,0,43.6,113.2Z"/>
          <path d="M62.3,108a4.4,4.4,0,0,0-2.7.9,5.4,5.4,0,0,0-1.6,2.5v9H55.9V105.8h1.9v3.4a7.4,7.4,0,0,1,1.7-2.4,3.6,3.6,0,0,1,2.2-1.1h.6Z"/>
          <path d="M68.9,120.7a5,5,0,0,1-2.4-.6,6.9,6.9,0,0,1-1.8-1.6,8.3,8.3,0,0,1-1.2-2.5,8.6,8.6,0,0,1-.4-2.8,9.9,9.9,0,0,1,.4-3,8.8,8.8,0,0,1,1.1-2.4,5.5,5.5,0,0,1,1.8-1.6,4,4,0,0,1,2.2-.6,4.1,4.1,0,0,1,2.6.9,6.3,6.3,0,0,1,1.8,2.2V100h2.1v17.4q0,.9.6.9v2.1h-.9a1.4,1.4,0,0,1-1-.5,1.8,1.8,0,0,1-.5-1.2v-1.2a5.9,5.9,0,0,1-1.9,2.2A3.9,3.9,0,0,1,68.9,120.7Zm.5-2.1,1.1-.3a2.6,2.6,0,0,0,1.1-.7,2.8,2.8,0,0,0,.9-1,2.1,2.1,0,0,0,.5-1.3v-4.2a3.1,3.1,0,0,0-.6-1.3l-.9-1.1a3.7,3.7,0,0,0-1.2-.7,2,2,0,0,0-1.1-.3,3.4,3.4,0,0,0-1.7.5,3.4,3.4,0,0,0-1.2,1.2,4.9,4.9,0,0,0-.8,1.8,6.4,6.4,0,0,0-.3,2,7.6,7.6,0,0,0,.3,2.1,5.6,5.6,0,0,0,.9,1.7,4.9,4.9,0,0,0,1.3,1.2A4.7,4.7,0,0,0,69.4,118.6Z"/>
          <path d="M78.2,103.1V100h2.1v3.1Zm0,17.3V105.8h2.1v14.6Z"/>
          <path d="M93.8,120.4h-2v-8.1a7.9,7.9,0,0,0-.6-3.5,1.9,1.9,0,0,0-1.8-1,3.1,3.1,0,0,0-1.3.3,4.2,4.2,0,0,0-1.2.8,3.8,3.8,0,0,0-.9,1.2,6.9,6.9,0,0,0-.7,1.5v8.8h-2V105.8h1.8V109a5.8,5.8,0,0,1,2.1-2.5,5.3,5.3,0,0,1,3-.9,2.9,2.9,0,0,1,1.7.4,2.8,2.8,0,0,1,1.1,1.3,5.9,5.9,0,0,1,.6,2,9,9,0,0,1,.2,2.4Z"/>
          <path d="M101.5,120.6a4.3,4.3,0,0,1-2.2-.6,5.8,5.8,0,0,1-1.8-1.7,6.1,6.1,0,0,1-1.1-2.3,9.2,9.2,0,0,1-.5-2.8,9.9,9.9,0,0,1,.5-3,6.6,6.6,0,0,1,1.1-2.4,5.5,5.5,0,0,1,1.8-1.6,4.4,4.4,0,0,1,2.3-.6,3.9,3.9,0,0,1,2.6.9,6.7,6.7,0,0,1,1.9,2.2v-2.9h1.8v14.5a5.9,5.9,0,0,1-.5,2.7,4.6,4.6,0,0,1-1.3,2,5.3,5.3,0,0,1-2,1.3,8.6,8.6,0,0,1-2.4.4,5.6,5.6,0,0,1-3.3-.9,6.1,6.1,0,0,1-2.2-2.3l1.2-1.3a4.4,4.4,0,0,0,1.9,1.9,4.2,4.2,0,0,0,2.4.7,4.3,4.3,0,0,0,2.9-1.1,4.2,4.2,0,0,0,.9-1.4,4.5,4.5,0,0,0,.4-2v-2.6a9.4,9.4,0,0,1-.9,1.2,2.8,2.8,0,0,1-1,.9l-1.2.6Zm.7-2a2.7,2.7,0,0,0,1.2-.3,4.1,4.1,0,0,0,1.1-.7,3.1,3.1,0,0,0,.9-1.1,6.1,6.1,0,0,0,.5-1.2v-4.2l-.7-1.4-.9-1a2.6,2.6,0,0,0-1.1-.7,2.7,2.7,0,0,0-1.2-.3,3.4,3.4,0,0,0-1.7.5,3.4,3.4,0,0,0-1.2,1.2,7.1,7.1,0,0,0-.8,1.8,6.9,6.9,0,0,0-.3,2,7.6,7.6,0,0,0,.3,2.1l.9,1.7a4.9,4.9,0,0,0,1.3,1.2A4.7,4.7,0,0,0,102.2,118.6Z"/>
        </g>
      </g>
    </g>
  </g>
</svg>
