<svg xmlns="http://www.w3.org/2000/svg" viewBox="0 0 110 132.5">
  <defs>
    <style>
      .cls-1 {
        fill: #E6B5B5;
      }

      .cls-2 {
        fill: none;
        stroke: #140E1B;
        stroke-linecap: round;
        stroke-linejoin: round;
        stroke-width: 3px;
      }
    </style>
  </defs>
  <g id="Layer_2" data-name="Layer 2">
    <g id="Layer_1-2" data-name="Layer 1">
      <g>
        <path class="cls-1" d="M0,66.3C0,13.9,11.5,0,55,0s55,13.9,55,66.3-11.6,66.2-55,66.2S0,118.6,0,66.3"/>
        <g id="Layer_2-2" data-name="Layer 2">
          <g id="Layer_1-2-2" data-name="Layer 1-2">
            <path class="cls-2" d="M26.7,43.8V56c0,7.6,3,13.9,8.5,18.2s10.6,5.4,17.6,5.7h4.4c7-.3,13-2.3,17.6-5.7S83.3,63.6,83.3,56V43.9"/>
            <path class="cls-2" d="M35.9,92H74.1"/>
            <path class="cls-2" d="M55,79.9V92"/>
            <path class="cls-2" d="M40.4,68.5c3.6,2.4,8.6,3.6,14.7,3.6s11.1-1.2,14.7-3.6,6.6-7.5,6.6-13.3V27.3C76.4,15.9,67.7,8,55.1,8S33.8,16,33.8,27.3V55.2C33.8,61,36.1,65.6,40.4,68.5Z"/>
            <path class="cls-2" d="M34.5,32.3H54.1"/>
            <path class="cls-2" d="M34.5,42.9H54.1"/>
            <path class="cls-2" d="M34.5,53.5H54.1"/>
          </g>
        </g>
        <g>
          <path d="M11.7,121.8l-3.4-6.4H3.5v6.4H1.3v-21h6c4.1,0,6.5,2.8,6.5,7.3s-1.2,5.6-3.4,6.7l3.7,7Zm-.1-13.7c0-3-1.5-4.7-4.3-4.7H3.5v9.5H7.3C10.1,112.9,11.6,111.1,11.6,108.1Z"/>
          <path d="M27,114.8H17.5c.3,2.8,1.9,4.7,4.3,4.7a4,4,0,0,0,3.4-1.9l1.1,1.8a5.2,5.2,0,0,1-4.6,2.6c-3.8,0-6.3-3.4-6.3-8.1s2.5-8.1,5.9-8.1,5.8,3.3,5.8,8.2A2.2,2.2,0,0,1,27,114.8Zm-9.5-2H25c-.2-2.7-1.7-4.6-3.7-4.6S17.7,110.1,17.5,112.8Z"/>
          <path d="M28.3,113.9c0-4.8,2.6-8.1,6.2-8.1a5,5,0,0,1,4.8,3.4l-1.6,1.4a3.5,3.5,0,0,0-3.2-2.3c-2.3,0-4,2.2-4,5.6s1.7,5.6,4,5.6a3.5,3.5,0,0,0,3.2-2.3l1.6,1.4a5.1,5.1,0,0,1-4.8,3.4C30.9,122,28.3,118.6,28.3,113.9Z"/>
          <path d="M40.2,113.9c0-4.8,2.6-8.1,6.1-8.1s6.1,3.3,6.1,8.1-2.6,8.1-6.1,8.1S40.2,118.6,40.2,113.9Zm10,0c0-3.4-1.6-5.6-3.9-5.6s-4,2.2-4,5.6,1.7,5.6,4,5.6S50.2,117.3,50.2,113.9Z"/>
          <path d="M61,105.8v2.8h-.5c-2.2,0-3.7,1.9-3.7,5.4v7.9H54.7V105.9h2v2.7A4.3,4.3,0,0,1,61,105.8Z"/>
          <path d="M74,99.6v22.2H71.9v-2.5a4.5,4.5,0,0,1-4.1,2.7c-3.5,0-6-3.3-6-8.1s2.5-8.1,6-8.1a4.7,4.7,0,0,1,4.1,2.5V99.6Zm-2.1,14.3c0-3.4-1.7-5.6-4-5.6s-3.9,2.2-3.9,5.6,1.7,5.6,3.9,5.6S71.9,117.3,71.9,113.9Z"/>
          <path d="M77,101a1.7,1.7,0,0,1,1.5-1.9,1.6,1.6,0,0,1,1.4,1.8c0,1.1-.6,2-1.4,2S77,102.1,77,101Zm.4,4.9h2.1v15.9H77.4Z"/>
          <path d="M94.1,112.7v9.1H92V113c0-3.1-1.2-4.6-3.2-4.6s-3.7,1.8-3.7,5.2v8.2H82.9V105.9H85v2.4a4.6,4.6,0,0,1,4.2-2.5C92.1,105.8,94.1,108,94.1,112.7Z"/>
          <path d="M108.7,105.9v13.8c0,5.6-2.1,8.1-6.1,8.1a7.5,7.5,0,0,1-5.6-2.3l1-2.3a6.1,6.1,0,0,0,4.6,2.1c2.7,0,4-1.7,4-5.3v-1.3a4.7,4.7,0,0,1-4.2,2.5c-3.4,0-6-3.2-6-7.7s2.6-7.7,6-7.7a4.8,4.8,0,0,1,4.3,2.6v-2.5Zm-2.1,7.6c0-3.1-1.6-5.2-4-5.2s-4.1,2.1-4.1,5.2,1.7,5.1,4.1,5.1S106.6,116.5,106.6,113.5Z"/>
        </g>
      </g>
    </g>
  </g>
</svg>
